{
.appVersion = "3184";
.formatVersion = 3;
DisplayStrings = (
"/bullet.case/bullet.case/bullet.case/bullet.case/bullet.case/bullet.case/bullet.case/bullet.case/periodcentered.loclCAT.case/periodcentered.loclCAT.case/parenright.case/parenright.case/parenright.case/parenright.case/parenright.case/parenright.case/parenright.case/braceright.case/braceright.case/braceright.case/braceright.case/braceright.case/braceright.case/bracketright.case/bracketright.case/bracketright.case/bracketright.case"
);
axes = (
{
name = Width;
tag = wdth;
},
{
name = Weight;
tag = wght;
}
);
customParameters = (
{
name = "Use Typo Metrics";
value = 1;
},
{
name = "Use Extension Kerning";
value = 1;
},
{
name = "Variable Font Origin";
value = m007;
},
{
name = fsType;
value = (
);
},
{
name = "Axis Mappings";
value = {
wdth = {
75 = 75;
88 = 87.5;
100 = 100;
};
wght = {
400 = 400;
500 = 500;
600 = 600;
700 = 700;
};
};
}
);
date = "2022-07-30 15:19:26 +0000";
familyName = "Instrument Sans";
featurePrefixes = (
{
automatic = 1;
code = "languagesystem DFLT dflt;

languagesystem latn dflt;
languagesystem latn AZE;
languagesystem latn CRT;
languagesystem latn KAZ;
languagesystem latn TAT;
languagesystem latn TRK;
languagesystem latn ROM;
languagesystem latn MOL;
languagesystem latn CAT;
";
name = Languagesystems;
}
);
features = (
{
automatic = 1;
code = "feature locl;
feature ordn;
feature pnum;
feature tnum;
feature case;
feature ss01;
feature ss02;
feature ss03;
feature ss04;
feature ss05;
feature ss06;
feature ss07;
feature ss08;
feature ss09;
feature ss10;
feature ss11;
feature ss12;
";
tag = aalt;
},
{
code = "lookup ccmp_Other_1 {
	@CombiningTopAccents = [acutecomb brevecomb caroncomb circumflexcomb commaturnedabovecomb dieresiscomb dotaccentcomb gravecomb hungarumlautcomb macroncomb ringcomb tildecomb];
	@CombiningNonTopAccents = [cedillacomb ogonekcomb];
	sub [i j]' @CombiningTopAccents by [idotless jdotless];

glyphs = (
{
glyphname = A;
kernLeft = KO_A;
kernRight = KO_A;
lastChange = "2023-03-03 20:56:29 +0000";
layers = (
{
anchors = (
{
name = bottom;
pos = (165,0);
},
{
name = ogonek;
pos = (365,0);
},
{
name = top;
pos = (330,720);
}
);
background = {
shapes = (
{
closed = 1;
nodes = (
(34,0,l),
(333,720,l),
(277,720,l),
(-30,0,l)
);
},
{
closed = 1;
nodes = (
(370,0,l),
(367,720,l),
(307,720,l),
(300,0,l)
);
},
{
closed = 1;
nodes = (
(98,215,l),
(332,215,l),
(344,275,l),
(110,275,l)
);
}
);
};
layerId = m005;
shapes = (
{
closed = 1;
nodes = (
(33,0,l),
(345,720,l),
(285,720,l),
(-35,0,l)
);
},
{
closed = 1;
nodes = (
(365,0,l),
(375,720,l),
(317,720,l),
(297,0,l)
);
},
{
closed = 1;
nodes = (
(97,215,l),
(331,215,l),
(344,275,l),
(110,275,l)
);
}
);
width = 448;
},
{
anchors = (
{
name = bottom;
pos = (191,0);
},
{
name = ogonek;
pos = (419,0);
},
{
name = top;
pos = (343,720);
}
);
background = {
anchors = (
{
name = bottom;
pos = (191,0);
},
{
name = ogonek;
pos = (424,0);
},
{
name = top;
pos = (343,720);
}
);
shapes = (
{
closed = 1;
nodes = (
(91,0,l),
(356,720,l),
(251,720,l),
(-42,0,l)
);
},
{
closed = 1;
nodes = (
(424,0,l),
(435,720,l),
(320,720,l),
(281,0,l)
);
},
{
closed = 1;
nodes = (
(89,155,l),
(359,155,l),
(382,265,l),
(112,265,l)
);
}
);
};
layerId = m006;
shapes = (
{
closed = 1;
nodes = (
(92,0,l),
(369,720,l),
(258,720,l),
(-47,0,l)
);
},
{
closed = 1;
nodes = (
(419,0,l),
(442,720,l),
(329,720,l),
(278,0,l)
);
},
{
closed = 1;
nodes = (
(86,155,l),
(356,155,l),
(381,265,l),
(111,265,l)
);
}
);
width = 490;
},
{
anchors = (
{
name = bottom;
pos = (310,0);
},
{
name = ogonek;
pos = (633,0);
},
{
name = top;
pos = (462,720);
}
);
background = {
anchors = (
{
name = bottom;
pos = (310,0);
},
{
name = ogonek;
pos = (638,0);
},
{
name = top;
pos = (462,720);
}
);
shapes = (
{
closed = 1;
nodes = (
(61,0,l),
(484,720,l),
(412,720,l),
(-18,0,l)
);
},
{
closed = 1;
nodes = (
(638,0,l),
(512,720,l),
(435,720,l),
(554,0,l)
);
},
{
closed = 1;
nodes = (
(166,219,l),
(542,219,l),
(557,291,l),
(181,291,l)
);
}
);
};
layerId = m007;
shapes = (
{
closed = 1;
nodes = (
(62,0,l),
(497,720,l),
(419,720,l),
(-23,0,l)
);
},
{
closed = 1;
nodes = (
(633,0,l),
(519,720,l),
(446,720,l),
(553,0,l)
);
},
{
closed = 1;
nodes = (
(165,219,l),
(541,219,l),
(557,291,l),
(181,291,l)
);
}
);
width = 728;
},
{
anchors = (
{
name = bottom;
pos = (314,0);
},
{
name = ogonek;
pos = (653,0);
},
{
name = top;
pos = (466,720);
}
);
background = {
shapes = (
{
closed = 1;
nodes = (
(123,0,l),
(512,720,l),
(380,720,l),
(-30,0,l)
);
},
{
closed = 1;
nodes = (
(658,0,l),
(552,720,l),
(414,720,l),
(498,0,l)
);
},
{
closed = 1;
nodes = (
(140,159,l),
(544,159,l),
(569,279,l),
(165,279,l)
);
}
);
};
layerId = m008;
shapes = (
{
closed = 1;
nodes = (
(129,0,l),
(530,720,l),
(387,720,l),
(-35,0,l)
);
},
{
closed = 1;
nodes = (
(653,0,l),
(559,720,l),
(428,720,l),
(500,0,l)
);
},
{
closed = 1;
nodes = (
(137,159,l),
(541,159,l),
(569,279,l),
(165,279,l)
);
}
);
width = 736;
}
);
unicode = 65;
userData = {
KernOnName = A;
};
},
{
glyphname = AE;
kernLeft = KO_A;
kernRight = KO_E;
lastChange = "2023-02-07 19:26:43 +0000";
layers = (
{
background = {
shapes = (
{
closed = 1;
nodes = (
(31,0,l),
(332,720,l),
(272,720,l),
(-35,0,l)
);
},
{
closed = 1;
nodes = (
(329,0,l),
(481,720,l),
(411,720,l),
(259,0,l)
);
},
{
closed = 1;
nodes = (
(554,0,l),
(567,62,l),
(314,62,l),
(301,0,l)
);
},
{
closed = 1;
nodes = (
(605,344,l),
(618,406,l),
(176,406,l),
(163,344,l)
);
},
{
closed = 1;
nodes = (
(685,658,l),
(698,720,l),
(287,720,l),
(274,658,l)
);
}
);
};
layerId = m005;
shapes = (
{
closed = 1;
nodes = (
(35,0,l),
(349,720,l),
(284,720,l),
(-35,0,l)
);
},
{
closed = 1;
nodes = (
(329,0,l),
(493,720,l),
(423,720,l),
(259,0,l)
);
},
{
closed = 1;
nodes = (
(554,0,l),
(568,62,l),
(315,62,l),
(301,0,l)
);
},
{
closed = 1;
nodes = (
(611,344,l),
(625,406,l),
(183,406,l),
(169,344,l)
);
},
{
closed = 1;
nodes = (
(696,658,l),
(710,720,l),
(299,720,l),
(285,658,l)
);
}
);
width = 663;
},
{
background = {
shapes = (
{
closed = 1;
nodes = (
(93,0,l),
(368,720,l),
(252,720,l),
(-41,0,l)
);
},
{
closed = 1;
nodes = (
(429,0,l),
(581,720,l),
(439,720,l),
(287,0,l)
);
},
{
closed = 1;
nodes = (
(619,0,l),
(642,110,l),
(382,110,l),
(359,0,l)
);
},
{
closed = 1;
nodes = (
(668,317,l),
(691,425,l),
(219,425,l),
(196,317,l)
);
},
{
closed = 1;
nodes = (
(740,610,l),
(763,720,l),
(281,720,l),
(258,610,l)
);
}
);
};
layerId = m006;
shapes = (
{
closed = 1;
nodes = (
(95,0,l),
(382,720,l),
(258,720,l),
(-47,0,l)
);
},
{
closed = 1;
nodes = (
(423,0,l),
(587,720,l),
(445,720,l),
(281,0,l)
);
},
{
closed = 1;
nodes = (
(613,0,l),
(638,110,l),
(378,110,l),
(353,0,l)
);
},
{
closed = 1;
nodes = (
(667,317,l),
(692,425,l),
(220,425,l),
(195,317,l)
);
},
{
closed = 1;
nodes = (
(744,610,l),
(769,720,l),
(287,720,l),
(262,610,l)
);
}
);
width = 710;
},
{
background = {
shapes = (
{
closed = 1;
nodes = (
(62,0,l),
(485,720,l),
(413,720,l),
(-17,0,l)
);
},
{
closed = 1;
nodes = (
(503,0,l),
(655,720,l),
(573,720,l),
(421,0,l)
);
},
{
closed = 1;
nodes = (
(813,0,l),
(828,72,l),
(478,72,l),
(463,0,l)
);
},
{
closed = 1;
nodes = (
(849,339,l),
(864,411,l),
(255,411,l),
(240,339,l)
);
},
{
closed = 1;
nodes = (
(942,648,l),
(957,720,l),
(436,720,l),
(421,648,l)
);
}
);
};
layerId = m007;
shapes = (
{
closed = 1;
nodes = (
(62,0,l),
(497,720,l),
(419,720,l),
(-23,0,l)
);
},
{
closed = 1;
nodes = (
(497,0,l),
(661,720,l),
(579,720,l),
(415,0,l)
);
},
{
closed = 1;
nodes = (
(807,0,l),
(823,72,l),
(473,72,l),
(457,0,l)
);
},
{
closed = 1;
nodes = (
(848,339,l),
(865,411,l),
(256,411,l),
(239,339,l)
);
},
{
closed = 1;
nodes = (
(947,648,l),
(963,720,l),
(442,720,l),
(426,648,l)
);
}
);
width = 936;
},
{
background = {
shapes = (
{
closed = 1;
nodes = (
(124,0,l),
(515,720,l),
(381,720,l),
(-29,0,l)
);
},
{
closed = 1;
nodes = (
(588,0,l),
(740,720,l),
(586,720,l),
(434,0,l)
);
},
{
closed = 1;
nodes = (
(890,0,l),
(915,118,l),
(531,118,l),
(506,0,l)
);
},
{
closed = 1;
nodes = (
(920,310,l),
(945,426,l),
(277,426,l),
(252,310,l)
);
},
{
closed = 1;
nodes = (
(1005,602,l),
(1030,720,l),
(436,720,l),
(411,602,l)
);
}
);
};
guides = (
{
angle = 149.625;
pos = (130,20);
showMeasurement = 1;
}
);
layerId = m008;
shapes = (
{
closed = 1;
nodes = (
(130,0,l),
(533,720,l),
(387,720,l),
(-35,0,l)
);
},
{
closed = 1;
nodes = (
(582,0,l),
(746,720,l),
(592,720,l),
(428,0,l)
);
},
{
closed = 1;
nodes = (
(884,0,l),
(911,118,l),
(527,118,l),
(500,0,l)
);
},
{
closed = 1;
nodes = (
(920,310,l),
(946,426,l),
(278,426,l),
(252,310,l)
);
},
{
closed = 1;
nodes = (
(1009,602,l),
(1036,720,l),
(442,720,l),
(415,602,l)
);
}
);
width = 983;
}
);
metricLeft = A;
metricRight = E;
unicode = 198;
},
{
glyphname = B;
kernLeft = KO_B;
kernRight = KO_B;
lastChange = "2023-02-07 18:20:01 +0000";
layers = (
{
background = {
shapes = (
{
closed = 1;
nodes = (
(156,0,ls),
(270,0,o),
(359,77,o),
(384,196,cs),
(408,314,o),
(354,390,o),
(243,390,c),
(239,369,l),
(342,369,o),
(418,432,o),
(440,538,cs),
(464,650,o),
(408,720,o),
(300,720,cs),
(211,720,l),
(198,662,l),
(287,662,ls),
(355,662,o),
(387,616,o),
(370,534,cs),
(352,451,o),
(301,406,o),
(229,406,cs),
(145,406,l),
(132,348,l),
(222,348,ls),
(296,348,o),
(331,289,o),
(312,198,cs),
(294,113,o),
(240,58,o),
(169,58,cs),
(72,58,l),
(59,0,l)
);
},
{
closed = 1;
nodes = (
(87,0,l),
(239,720,l),
(169,720,l),
(17,0,l)
);
}
);
};
layerId = m005;
shapes = (
{
closed = 1;
nodes = (
(164,0,ls),
(289,0,o),
(383,100,o),
(383,233,cs),
(383,324,o),
(332,380,o),
(243,389,c),
(237,368,l),
(345,349,o),
(445,446,o),
(445,573,cs),
(445,666,o),
(389,720,o),
(295,720,cs),
(224,720,l),
(211,662,l),
(282,662,ls),
(344,662,o),
(375,631,o),
(375,568,cs),
(375,480,o),
(315,406,o),
(244,406,cs),
(158,406,l),
(146,348,l),
(221,348,ls),
(277,348,o),
(311,305,o),
(311,235,cs),
(311,136,o),
(247,58,o),
(166,58,cs),
(72,58,l),
(59,0,l)
);
},
{
closed = 1;
nodes = (
(82,0,l),
(247,720,l),
(177,720,l),
(12,0,l)
);
}
);
width = 433;
},
{
background = {
shapes = (
{
closed = 1;
nodes = (
(203,0,ls),
(317,0,o),
(411,77,o),
(436,196,cs),
(460,314,o),
(406,390,o),
(325,390,c),
(321,369,l),
(394,369,o),
(470,432,o),
(492,538,cs),
(516,650,o),
(455,720,o),
(347,720,cs),
(263,720,l),
(240,614,l),
(297,614,ls),
(343,614,o),
(364,584,o),
(351,521,cs),
(338,458,o),
(303,428,o),
(255,428,cs),
(201,428,l),
(180,326,l),
(237,326,ls),
(290,326,o),
(314,285,o),
(299,212,cs),
(285,145,o),
(247,106,o),
(196,106,cs),
(134,106,l),
(111,0,l)
);
},
{
closed = 1;
nodes = (
(139,0,l),
(291,720,l),
(149,720,l),
(-3,0,l)
);
}
);
};
layerId = m006;
shapes = (
{
closed = 1;
nodes = (
(187,0,ls),
(331,0,o),
(435,98,o),
(435,233,cs),
(435,319,o),
(388,378,o),
(316,387,c),
(311,366,l),
(404,356,o),
(497,455,o),
(497,566,cs),
(497,657,o),
(438,720,o),
(352,720,cs),
(270,720,l),
(245,614,l),
(304,614,ls),
(339,614,o),
(358,589,o),
(358,545,cs),
(358,480,o),
(314,428,o),
(258,428,cs),
(203,428,l),
(180,326,l),
(232,326,ls),
(273,326,o),
(295,294,o),
(295,238,cs),
(295,160,o),
(255,106,o),
(198,106,cs),
(130,106,l),
(106,0,l)
);
},
{
closed = 1;
nodes = (
(134,0,l),
(299,720,l),
(157,720,l),
(-8,0,l)
);
}
);
width = 471;
},
{
background = {
shapes = (
{
closed = 1;
nodes = (
(324,0,ls),
(456,0,o),
(562,77,o),
(586,192,cs),
(609,305,o),
(544,390,o),
(434,390,c),
(425,369,l),
(529,369,o),
(618,442,o),
(640,545,cs),
(663,653,o),
(595,720,o),
(463,720,cs),
(239,720,l),
(224,652,l),
(441,652,ls),
(531,652,o),
(572,611,o),
(556,536,cs),
(539,456,o),
(477,410,o),
(386,410,cs),
(174,410,l),
(160,344,l),
(383,344,ls),
(475,344,o),
(522,288,o),
(504,201,cs),
(486,119,o),
(420,68,o),
(332,68,cs),
(102,68,l),
(87,0,l)
);
},
{
closed = 1;
nodes = (
(115,0,l),
(267,720,l),
(185,720,l),
(33,0,l)
);
}
);
};
layerId = m007;
shapes = (
{
closed = 1;
nodes = (
(316,0,ls),
(476,0,o),
(583,85,o),
(583,213,cs),
(583,307,o),
(525,373,o),
(430,383,c),
(419,363,l),
(538,353,o),
(642,437,o),
(642,554,cs),
(642,653,o),
(572,720,o),
(465,720,cs),
(245,720,l),
(229,652,l),
(451,652,ls),
(517,652,o),
(559,612,o),
(559,548,cs),
(559,463,o),
(493,410,o),
(385,410,cs),
(174,410,l),
(159,344,l),
(379,344,ls),
(454,344,o),
(499,298,o),
(499,222,cs),
(499,127,o),
(431,68,o),
(323,68,cs),
(97,68,l),
(81,0,l)
);
},
{
closed = 1;
nodes = (
(110,0,l),
(275,720,l),
(193,720,l),
(28,0,l)
);
}
);
width = 636;
},
{
background = {
shapes = (
{
closed = 1;
nodes = (
(345,0,ls),
(479,0,o),
(583,77,o),
(608,196,cs),
(632,314,o),
(558,390,o),
(447,390,c),
(438,369,l),
(541,369,o),
(637,432,o),
(659,538,cs),
(683,650,o),
(612,720,o),
(484,720,cs),
(275,720,l),
(252,610,l),
(428,610,ls),
(489,610,o),
(514,580,o),
(502,521,cs),
(489,462,o),
(450,432,o),
(387,432,cs),
(214,432,l),
(191,322,l),
(372,322,ls),
(440,322,o),
(469,281,o),
(455,214,cs),
(442,149,o),
(398,110,o),
(332,110,cs),
(146,110,l),
(123,0,l)
);
},
{
closed = 1;
nodes = (
(151,0,l),
(303,720,l),
(149,720,l),
(-3,0,l)
);
}
);
};
layerId = m008;
shapes = (
{
closed = 1;
nodes = (
(337,0,ls),
(494,0,o),
(604,88,o),
(604,215,cs),
(604,311,o),
(545,376,o),
(445,388,c),
(434,367,l),
(546,350,o),
(660,434,o),
(660,557,cs),
(660,654,o),
(590,720,o),
(486,720,cs),
(281,720,l),
(256,610,l),
(431,610,ls),
(478,610,o),
(505,580,o),
(505,529,cs),
(505,466,o),
(464,432,o),
(388,432,cs),
(216,432,l),
(191,322,l),
(366,322,ls),
(416,322,o),
(448,285,o),
(448,228,cs),
(448,155,o),
(399,110,o),
(322,110,cs),
(142,110,l),
(117,0,l)
);
},
{
closed = 1;
nodes = (
(146,0,l),
(311,720,l),
(157,720,l),
(-8,0,l)
);
}
);
width = 649;
}
);
unicode = 66;
},
{
glyphname = C;
kernLeft = KO_O;
kernRight = KO_C;
lastChange = "2023-03-03 20:57:22 +0000";
layers = (
{
anchors = (
{
name = bottom;
pos = (187,0);
},
{
name = top;
pos = (329,720);
}
);
background = {
shapes = (
{
closed = 1;
nodes = (
(301,-10,o),
(394,96,o),
(430,269,c),
(359,269,l),
(330,130,o),
(274,54,o),
(202,54,cs),
(116,54,o),
(93,161,o),
(136,363,cs),
(178,563,o),
(246,666,o),
(329,666,cs),
(404,666,o),
(429,592,o),
(399,451,c),
(469,451,l),
(505,624,o),
(458,730,o),
(343,730,cs),
(217,730,o),
(113,597,o),
(63,362,cs),
(14,127,o),
(59,-10,o),
(187,-10,cs)
);
}
);
};
layerId = m005;
shapes = (
{
closed = 1;
nodes = (
(306,-10,o),
(391,86,o),
(430,269,c),
(360,269,l),
(327,126,o),
(276,54,o),
(207,54,cs),
(152,54,o),
(121,103,o),
(121,203,cs),
(121,377,o),
(205,666,o),
(333,666,cs),
(432,666,o),
(424,540,o),
(402,451,c),
(472,451,l),
(503,567,o),
(483,730,o),
(345,730,cs),
(157,730,o),
(49,425,o),
(49,205,cs),
(49,69,o),
(104,-10,o),
(199,-10,cs)
);
}
);
width = 461;
},
{
anchors = (
{
name = bottom;
pos = (206,0);
},
{
name = top;
pos = (350,720);
}
);
background = {
shapes = (
{
closed = 1;
nodes = (
(339,-10,o),
(442,99,o),
(481,283,c),
(340,283,l),
(314,161,o),
(276,102,o),
(227,102,cs),
(170,102,o),
(157,175,o),
(197,364,cs),
(236,551,o),
(277,618,o),
(335,618,cs),
(386,618,o),
(399,562,o),
(373,437,c),
(513,437,l),
(552,624,o),
(498,730,o),
(362,730,cs),
(212,730,o),
(102,600,o),
(52,360,cs),
(2,121,o),
(55,-10,o),
(203,-10,cs)
);
}
);
};
guides = (
{
pos = (390,283);
},
{
angle = 180;
pos = (390,437);
}
);
layerId = m006;
shapes = (
{
closed = 1;
nodes = (
(341,-10,o),
(432,83,o),
(481,283,c),
(340,283,l),
(312,159,o),
(274,103,o),
(233,103,cs),
(196,103,o),
(181,139,o),
(183,202,cs),
(184,315,o),
(234,618,o),
(340,618,cs),
(408,618,o),
(390,494,o),
(375,437,c),
(516,437,l),
(544,558,o),
(519,730,o),
(359,730,cs),
(124,730,o),
(39,383,o),
(39,219,cs),
(39,71,o),
(98,-10,o),
(215,-10,cs)
);
}
);
width = 503;
},
{
anchors = (
{
name = bottom;
pos = (343,0);
},
{
name = top;
pos = (477,720);
}
);
background = {
shapes = (
{
closed = 1;
nodes = (
(498,-10,o),
(640,95,o),
(695,256,c),
(613,256,l),
(573,138,o),
(474,64,o),
(350,64,cs),
(197,64,o),
(119,184,o),
(156,360,cs),
(193,535,o),
(320,656,o),
(475,656,cs),
(596,656,o),
(664,583,o),
(655,464,c),
(737,464,l),
(749,624,o),
(651,730,o),
(490,730,cs),
(292,730,o),
(117,575,o),
(72,360,cs),
(27,145,o),
(137,-10,o),
(335,-10,cs)
);
}
);
};
guides = (
{
angle = 180;
pos = (640,465);
},
{
pos = (641,253);
}
);
layerId = m007;
shapes = (
{
closed = 1;
nodes = (
(524,-10,o),
(650,89,o),
(699,256,c),
(617,256,l),
(580,134,o),
(491,64,o),
(371,64,cs),
(238,64,o),
(160,152,o),
(160,301,cs),
(160,504,o),
(300,655,o),
(475,655,cs),
(599,655,o),
(670,582,o),
(665,464,c),
(746,464,l),
(760,620,o),
(644,730,o),
(479,730,cs),
(262,730,o),
(77,538,o),
(77,298,cs),
(77,112,o),
(189,-10,o),
(364,-10,cs)
);
}
);
width = 741;
},
{
anchors = (
{
name = bottom;
pos = (339,0);
},
{
name = top;
pos = (473,720);
}
);
background = {
shapes = (
{
closed = 1;
nodes = (
(511,-10,o),
(667,99,o),
(728,267,c),
(576,267,l),
(535,164,o),
(451,112,o),
(364,112,cs),
(242,112,o),
(176,207,o),
(209,364,cs),
(241,518,o),
(344,608,o),
(466,608,cs),
(558,608,o),
(620,555,o),
(615,452,c),
(765,452,l),
(779,619,o),
(669,730,o),
(491,730,cs),
(280,730,o),
(98,579,o),
(53,363,cs),
(7,146,o),
(126,-10,o),
(335,-10,cs)
);
}
);
};
guides = (
{
angle = 180;
pos = (551,433);
},
{
pos = (551,287);
}
);
layerId = m008;
shapes = (
{
closed = 1;
nodes = (
(536,-10,o),
(682,100,o),
(729,267,c),
(577,267,l),
(546,171,o),
(473,112,o),
(381,112,cs),
(275,112,o),
(210,186,o),
(210,309,cs),
(210,470,o),
(314,608,o),
(455,608,cs),
(556,608,o),
(621,539,o),
(615,452,c),
(767,452,l),
(785,608,o),
(639,730,o),
(461,730,cs),
(237,730,o),
(58,545,o),
(53,315,cs),
(50,120,o),
(175,-10,o),
(363,-10,cs)
);
}
);
width = 750;
}
);
unicode = 67;
userData = {
KernOnName = C;
};
},
{
glyphname = D;
kernRight = KO_D;
lastChange = "2023-03-03 20:58:26 +0000";
layers = (
{
anchors = (
{
name = bottom;
pos = (195,0);
},
{
name = center;
pos = (277,360);
},
{
name = top;
pos = (330,720);
}
);
background = {
shapes = (
{
closed = 1;
nodes = (
(163,0,ls),
(313,0,o),
(430,128,o),
(479,362,cs),
(528,595,o),
(466,720,o),
(314,720,c),
(213,720,l),
(200,658,l),
(301,658,ls),
(415,658,o),
(449,562,o),
(408,364,cs),
(366,163,o),
(287,62,o),
(175,62,cs),
(79,62,l),
(66,0,l)
);
},
{
closed = 1;
nodes = (
(87,0,l),
(239,720,l),
(169,720,l),
(17,0,l)
);
}
);
};
layerId = m005;
shapes = (
{
closed = 1;
nodes = (
(155,0,ls),
(330,0,o),
(491,223,o),
(491,480,cs),
(491,637,o),
(424,720,o),
(307,720,cs),
(219,720,l),
(204,658,l),
(292,658,ls),
(391,658,o),
(419,602,o),
(419,466,cs),
(419,259,o),
(298,66,o),
(158,66,cs),
(74,66,l),
(60,0,l)
);
},
{
closed = 1;
nodes = (
(82,0,l),
(247,720,l),
(177,720,l),
(12,0,l)
);
}
);
width = 495;
},
{
anchors = (
{
name = bottom;
pos = (213,0);
},
{
name = center;
pos = (295,360);
},
{
name = top;
pos = (348,720);
}
);
background = {
shapes = (
{
closed = 1;
nodes = (
(180,0,ls),
(344,0,o),
(475,127,o),
(524,362,cs),
(574,596,o),
(497,720,o),
(331,720,cs),
(239,720,l),
(216,610,l),
(308,610,ls),
(396,610,o),
(418,540,o),
(381,364,cs),
(343,184,o),
(289,110,o),
(202,110,cs),
(98,110,l),
(75,0,l)
);
},
{
closed = 1;
nodes = (
(139,0,l),
(291,720,l),
(149,720,l),
(-3,0,l)
);
}
);
};
layerId = m006;
shapes = (
{
closed = 1;
nodes = (
(187,0,ls),
(378,0,o),
(534,214,o),
(534,469,cs),
(534,631,o),
(459,720,o),
(331,720,cs),
(230,720,l),
(228,610,l),
(309,610,ls),
(368,610,o),
(395,568,o),
(395,478,cs),
(395,280,o),
(300,110,o),
(190,110,cs),
(97,110,l),
(68,0,l)
);
},
{
closed = 1;
nodes = (
(134,0,l),
(299,720,l),
(157,720,l),
(-8,0,l)
);
}
);
width = 531;
},
{
anchors = (
{
name = bottom;
pos = (323,0);
},
{
name = center;
pos = (405,360);
},
{
name = top;
pos = (468,720);
}
);
background = {
shapes = (
{
closed = 1;
nodes = (
(276,0,ls),
(499,0,o),
(680,147,o),
(725,362,cs),
(771,577,o),
(653,720,o),
(427,720,cs),
(234,720,l),
(219,648,l),
(412,648,ls),
(593,648,o),
(678,536,o),
(642,364,cs),
(605,189,o),
(469,72,o),
(290,72,cs),
(97,72,l),
(82,0,l)
);
},
{
closed = 1;
nodes = (
(115,0,l),
(267,720,l),
(185,720,l),
(33,0,l)
);
}
);
};
layerId = m007;
shapes = (
{
closed = 1;
nodes = (
(321,0,ls),
(554,0,o),
(728,195,o),
(728,412,cs),
(728,590,o),
(610,720,o),
(435,720,cs),
(240,720,l),
(224,648,l),
(427,648,ls),
(558,648,o),
(644,546,o),
(644,406,cs),
(644,230,o),
(509,72,o),
(326,72,cs),
(93,72,l),
(77,0,l)
);
},
{
closed = 1;
nodes = (
(110,0,l),
(275,720,l),
(193,720,l),
(28,0,l)
);
}
);
width = 752;
},
{
anchors = (
{
name = bottom;
pos = (327,0);
},
{
name = center;
pos = (409,360);
},
{
name = top;
pos = (462,720);
}
);
background = {
shapes = (
{
closed = 1;
nodes = (
(274,0,ls),
(513,0,o),
(703,142,o),
(749,362,cs),
(796,582,o),
(667,720,o),
(425,720,cs),
(246,720,l),
(220,600,l),
(399,600,ls),
(557,600,o),
(623,504,o),
(594,364,cs),
(564,222,o),
(455,120,o),
(299,120,cs),
(117,120,l),
(91,0,l)
);
},
{
closed = 1;
nodes = (
(151,0,l),
(303,720,l),
(149,720,l),
(-3,0,l)
);
}
);
};
layerId = m008;
shapes = (
{
closed = 1;
nodes = (
(323,0,ls),
(563,0,o),
(750,177,o),
(750,405,cs),
(750,589,o),
(627,720,o),
(426,720,cs),
(255,720,l),
(226,600,l),
(415,600,ls),
(531,600,o),
(594,520,o),
(594,403,cs),
(594,244,o),
(481,120,o),
(333,120,cs),
(127,120,l),
(99,0,l)
);
},
{
closed = 1;
nodes = (
(146,0,l),
(311,720,l),
(157,720,l),
(-8,0,l)
);
}
);
width = 756;
}
);
metricRight = O;
unicode = 68;
userData = {
KernOnSpecialSpacing = {
L = NoKerning;
};
};
},
{
glyphname = Eth;
kernRight = KO_D;
lastChange = "2023-03-03 20:58:07 +0000";
layers = (
{
layerId = m005;
shapes = (
{
ref = D;
},
{
closed = 1;
nodes = (
(285,331,l),
(299,389,l),
(32,389,l),
(18,331,l)
);
}
);
width = 496;
},
{
layerId = m006;
shapes = (
{
pos = (10,0);
ref = D;
},
{
closed = 1;
nodes = (
(289,307,l),
(314,417,l),
(37,417,l),
(12,307,l)
);
}
);
width = 541;
},
{
layerId = m007;
shapes = (
{
ref = D;
},
{
closed = 1;
nodes = (
(393,326,l),
(409,394,l),
(32,394,l),
(16,326,l)
);
}
);
width = 752;
},
{
layerId = m008;
shapes = (
{
pos = (20,0);
ref = D;
},
{
closed = 1;
nodes = (
(399,302,l),
(426,422,l),
(39,422,l),
(12,302,l)
);
}
);
width = 772;
}
);
unicode = 208;
},
{
glyphname = E;
kernRight = KO_E;
lastChange = "2023-02-07 18:23:56 +0000";
layers = (
{
anchors = (
{
name = bottom;
pos = (149,0);
},
{
name = ogonek;
pos = (266,0);
},
{
name = top;
pos = (325,720);
},
{
name = topleft;
pos = (127,720);
}
);
background = {
shapes = (
{
ref = H;
}
);
};
layerId = m005;
shapes = (
{
closed = 1;
nodes = (
(81,0,l),
(247,720,l),
(177,720,l),
(11,0,l)
);
},
{
closed = 1;
nodes = (
(306,0,l),
(320,62,l),
(67,62,l),
(53,0,l)
);
},
{
closed = 1;
nodes = (
(363,344,l),
(377,406,l),
(146,406,l),
(132,344,l)
);
},
{
closed = 1;
nodes = (
(449,658,l),
(464,720,l),
(219,720,l),
(204,658,l)
);
}
);
width = 415;
},
{
anchors = (
{
name = bottom;
pos = (151,0);
},
{
name = ogonek;
pos = (283,0);
},
{
name = top;
pos = (327,720);
},
{
name = topleft;
pos = (127,720);
}
);
background = {
shapes = (
{
closed = 1;
nodes = (
(192,0,l),
(192,720,l),
(50,720,l),
(50,0,l)
);
},
{
closed = 1;
nodes = (
(382,0,l),
(382,120,l),
(122,120,l),
(122,0,l)
);
},
{
closed = 1;
nodes = (
(364,312,l),
(364,430,l),
(122,430,l),
(122,312,l)
);
},
{
closed = 1;
nodes = (
(374,600,l),
(374,720,l),
(122,720,l),
(122,600,l)
);
}
);
};
layerId = m006;
shapes = (
{
closed = 1;
nodes = (
(133,0,l),
(299,720,l),
(157,720,l),
(-9,0,l)
);
},
{
closed = 1;
nodes = (
(323,0,l),
(348,110,l),
(88,110,l),
(63,0,l)
);
},
{
closed = 1;
nodes = (
(378,317,l),
(402,425,l),
(160,425,l),
(136,317,l)
);
},
{
closed = 1;
nodes = (
(456,610,l),
(481,720,l),
(229,720,l),
(204,610,l)
);
}
);
width = 420;
},
{
anchors = (
{
name = bottom;
pos = (260,0);
},
{
name = ogonek;
pos = (479,0);
},
{
name = top;
pos = (436,720);
},
{
name = topleft;
pos = (127,720);
}
);
background = {
shapes = (
{
ref = H;
}
);
};
layerId = m007;
shapes = (
{
closed = 1;
nodes = (
(109,0,l),
(275,720,l),
(193,720,l),
(27,0,l)
);
},
{
closed = 1;
nodes = (
(509,0,l),
(525,72,l),
(85,72,l),
(69,0,l)
);
},
{
closed = 1;
nodes = (
(551,339,l),
(567,411,l),
(163,411,l),
(147,339,l)
);
},
{
closed = 1;
nodes = (
(650,648,l),
(667,720,l),
(235,720,l),
(218,648,l)
);
}
);
width = 638;
},
{
anchors = (
{
name = bottom;
pos = (256,0);
},
{
name = ogonek;
pos = (487,0);
},
{
name = top;
pos = (432,720);
},
{
name = topleft;
pos = (131,720);
}
);
background = {
shapes = (
{
closed = 1;
nodes = (
(204,0,l),
(204,720,l),
(50,720,l),
(50,0,l)
);
},
{
closed = 1;
nodes = (
(586,0,l),
(586,128,l),
(122,128,l),
(122,0,l)
);
},
{
closed = 1;
nodes = (
(551,305,l),
(551,431,l),
(122,431,l),
(122,305,l)
);
},
{
closed = 1;
nodes = (
(574,592,l),
(574,720,l),
(122,720,l),
(122,592,l)
);
}
);
};
layerId = m008;
shapes = (
{
closed = 1;
nodes = (
(145,0,l),
(311,720,l),
(157,720,l),
(-9,0,l)
);
},
{
closed = 1;
nodes = (
(527,0,l),
(554,118,l),
(90,118,l),
(63,0,l)
);
},
{
closed = 1;
nodes = (
(563,310,l),
(590,426,l),
(161,426,l),
(134,310,l)
);
},
{
closed = 1;
nodes = (
(654,602,l),
(681,720,l),
(229,720,l),
(202,602,l)
);
}
);
width = 626;
}
);
unicode = 69;
userData = {
KernOnName = E;
KernOnSpecialSpacing = {
L = NoKerning;
};
};
},
{
glyphname = F;
kernRight = KO_F;
lastChange = "2023-02-07 18:25:52 +0000";
layers = (
{
background = {
shapes = (
{
closed = 1;
nodes = (
(87,0,l),
(239,720,l),
(169,720,l),
(17,0,l)
);
},
{
closed = 1;
nodes = (
(340,314,l),
(353,376,l),
(138,376,l),
(125,314,l)
);
},
{
closed = 1;
nodes = (
(427,658,l),
(440,720,l),
(211,720,l),
(198,658,l)
);
}
);
};
layerId = m005;
shapes = (
{
closed = 1;
nodes = (
(82,0,l),
(247,720,l),
(177,720,l),
(12,0,l)
);
},
{
closed = 1;
nodes = (
(340,314,l),
(355,376,l),
(140,376,l),
(125,314,l)
);
},
{
closed = 1;
nodes = (
(433,658,l),
(448,720,l),
(219,720,l),
(204,658,l)
);
}
);
width = 381;
},
{
background = {
shapes = (
{
closed = 1;
nodes = (
(139,0,l),
(291,720,l),
(149,720,l),
(-3,0,l)
);
},
{
closed = 1;
nodes = (
(354,286,l),
(378,396,l),
(153,396,l),
(129,286,l)
);
},
{
closed = 1;
nodes = (
(433,610,l),
(456,720,l),
(221,720,l),
(198,610,l)
);
}
);
};
layerId = m006;
shapes = (
{
closed = 1;
nodes = (
(134,0,l),
(299,720,l),
(157,720,l),
(-8,0,l)
);
},
{
closed = 1;
nodes = (
(354,286,l),
(380,396,l),
(155,396,l),
(129,286,l)
);
},
{
closed = 1;
nodes = (
(439,610,l),
(464,720,l),
(229,720,l),
(204,610,l)
);
}
);
width = 390;
},
{
background = {
shapes = (
{
closed = 1;
nodes = (
(115,0,l),
(267,720,l),
(185,720,l),
(33,0,l)
);
},
{
closed = 1;
nodes = (
(528,309,l),
(543,381,l),
(155,381,l),
(140,309,l)
);
},
{
closed = 1;
nodes = (
(628,648,l),
(643,720,l),
(227,720,l),
(212,648,l)
);
}
);
};
layerId = m007;
shapes = (
{
closed = 1;
nodes = (
(110,0,l),
(275,720,l),
(193,720,l),
(28,0,l)
);
},
{
closed = 1;
nodes = (
(528,309,l),
(545,381,l),
(157,381,l),
(140,309,l)
);
},
{
closed = 1;
nodes = (
(634,648,l),
(651,720,l),
(235,720,l),
(218,648,l)
);
}
);
width = 602;
},
{
background = {
shapes = (
{
closed = 1;
nodes = (
(151,0,l),
(303,720,l),
(149,720,l),
(-3,0,l)
);
},
{
closed = 1;
nodes = (
(541,279,l),
(566,397,l),
(153,397,l),
(128,279,l)
);
},
{
closed = 1;
nodes = (
(632,602,l),
(657,720,l),
(221,720,l),
(196,602,l)
);
}
);
};
layerId = m008;
shapes = (
{
closed = 1;
nodes = (
(146,0,l),
(311,720,l),
(157,720,l),
(-8,0,l)
);
},
{
closed = 1;
nodes = (
(541,279,l),
(568,397,l),
(155,397,l),
(128,279,l)
);
},
{
closed = 1;
nodes = (
(638,602,l),
(665,720,l),
(229,720,l),
(202,602,l)
);
}
);
width = 590;
}
);
unicode = 70;
userData = {
KernOnName = F;
KernOnSpecialSpacing = {
L = NoKerning;
};
};
},
{
glyphname = G;
kernLeft = KO_O;
kernRight = KO_G;
lastChange = "2023-03-03 20:59:42 +0000";
layers = (
{
anchors = (
{
name = bottom;
pos = (192,0);
},
{
name = top;
pos = (358,720);
}
);
background = {
shapes = (
{
closed = 1;
nodes = (
(274,-10,o),
(334,12,o),
(384,55,c),
(320,83,l),
(296,64,o),
(264,54,o),
(228,54,cs),
(118,54,o),
(89,146,o),
(133,355,cs),
(177,560,o),
(247,666,o),
(339,666,cs),
(409,666,o),
(431,603,o),
(405,481,c),
(475,481,l),
(508,635,o),
(460,730,o),
(350,730,cs),
(217,730,o),
(112,593,o),
(61,352,cs),
(10,112,o),
(60,-10,o),
(210,-10,cs)
);
},
{
closed = 1;
nodes = (
(384,55,l),
(452,375,l),
(272,375,l),
(259,313,l),
(400,313,l),
(375,344,l),
(317,69,l)
);
}
);
};
guides = (
{
pos = (361,730);
},
{
angle = 90;
pos = (452,530);
}
);
layerId = m005;
shapes = (
{
closed = 1;
nodes = (
(277,-10,o),
(336,13,o),
(383,65,c),
(320,93,l),
(297,66,o),
(264,54,o),
(223,54,cs),
(152,54,o),
(121,103,o),
(121,203,cs),
(121,377,o),
(205,666,o),
(333,666,cs),
(426,666,o),
(421,553,o),
(408,481,c),
(478,481,l),
(494,581,o),
(479,730,o),
(345,730,cs),
(157,730,o),
(49,425,o),
(49,205,cs),
(49,69,o),
(105,-10,o),
(219,-10,cs)
);
},
{
closed = 1;
nodes = (
(383,65,l),
(455,375,l),
(275,375,l),
(260,313,l),
(401,313,l),
(377,344,l),
(314,69,l)
);
}
);
width = 481;
},
{
anchors = (
{
name = bottom;
pos = (209,0);
},
{
name = top;
pos = (375,720);
}
);
background = {
shapes = (
{
closed = 1;
nodes = (
(304,-10,o),
(392,28,o),
(440,88,c),
(306,121,l),
(290,108,o),
(273,102,o),
(250,102,cs),
(171,102,o),
(155,166,o),
(196,357,cs),
(235,540,o),
(278,618,o),
(340,618,cs),
(389,618,o),
(403,573,o),
(380,467,c),
(520,467,l),
(556,636,o),
(503,730,o),
(370,730,cs),
(214,730,o),
(103,597,o),
(50,350,cs),
(-1,107,o),
(54,-10,o),
(215,-10,cs)
);
},
{
closed = 1;
nodes = (
(440,88,l),
(505,395,l),
(289,395,l),
(266,285,l),
(371,285,l),
(346,316,l),
(296,78,l)
);
}
);
};
guides = (
{
pos = (361,730);
},
{
angle = 90;
pos = (452,530);
}
);
layerId = m006;
shapes = (
{
closed = 1;
nodes = (
(306,-10,o),
(380,22,o),
(439,98,c),
(306,132,l),
(290,109,o),
(270,102,o),
(244,102,cs),
(201,102,o),
(182,131,o),
(184,202,cs),
(185,315,o),
(235,618,o),
(341,618,cs),
(396,618,o),
(395,535,o),
(382,467,c),
(522,467,l),
(540,587,o),
(506,730,o),
(360,730,cs),
(130,730,o),
(43,398,o),
(40,230,cs),
(37,75,o),
(96,-10,o),
(226,-10,cs)
);
},
{
closed = 1;
nodes = (
(439,98,l),
(507,395,l),
(292,395,l),
(267,285,l),
(372,285,l),
(348,316,l),
(296,88,l)
);
}
);
width = 513;
},
{
anchors = (
{
name = bottom;
pos = (339,0);
},
{
name = top;
pos = (495,720);
}
);
background = {
shapes = (
{
closed = 1;
nodes = (
(470,-10,o),
(574,29,o),
(664,106,c),
(588,136,l),
(525,87,o),
(458,64,o),
(377,64,cs),
(199,64,o),
(117,173,o),
(156,356,cs),
(194,537,o),
(323,656,o),
(481,656,cs),
(598,656,o),
(670,592,o),
(662,494,c),
(744,494,l),
(755,634,o),
(652,730,o),
(494,730,cs),
(292,730,o),
(118,575,o),
(71,354,cs),
(24,132,o),
(134,-10,o),
(354,-10,cs)
);
},
{
closed = 1;
nodes = (
(664,106,l),
(722,380,l),
(443,380,l),
(427,308,l),
(655,308,l),
(631,339,l),
(582,106,l)
);
}
);
};
guides = (
{
pos = (361,730);
},
{
angle = 90;
pos = (452,530);
}
);
layerId = m007;
shapes = (
{
closed = 1;
nodes = (
(497,-10,o),
(596,41,o),
(663,116,c),
(590,149,l),
(544,94,o),
(465,64,o),
(366,64,cs),
(233,64,o),
(155,152,o),
(155,301,cs),
(155,504,o),
(295,655,o),
(470,655,cs),
(583,655,o),
(653,594,o),
(661,494,c),
(743,494,l),
(740,630,o),
(635,730,o),
(472,730,cs),
(259,730,o),
(72,538,o),
(72,300,cs),
(72,112,o),
(184,-10,o),
(359,-10,cs)
);
},
{
closed = 1;
nodes = (
(663,116,l),
(724,380,l),
(445,380,l),
(427,308,l),
(655,308,l),
(632,339,l),
(581,116,l)
);
}
);
width = 765;
},
{
anchors = (
{
name = bottom;
pos = (356,0);
},
{
name = top;
pos = (492,720);
}
);
background = {
shapes = (
{
closed = 1;
nodes = (
(502,-10,o),
(609,31,o),
(702,109,c),
(568,167,l),
(532,131,o),
(470,110,o),
(390,110,cs),
(242,110,o),
(183,201,o),
(217,362,cs),
(250,516,o),
(351,608,o),
(478,608,cs),
(568,608,o),
(624,560,o),
(620,482,c),
(774,482,l),
(788,627,o),
(680,730,o),
(502,730,cs),
(286,730,o),
(107,579,o),
(60,359,cs),
(13,136,o),
(124,-10,o),
(358,-10,cs)
);
},
{
closed = 1;
nodes = (
(702,109,l),
(763,394,l),
(450,394,l),
(425,276,l),
(615,276,l),
(590,307,l),
(548,109,l)
);
}
);
};
guides = (
{
pos = (361,730);
}
);
layerId = m008;
shapes = (
{
closed = 1;
nodes = (
(513,-10,o),
(620,39,o),
(704,123,c),
(565,174,l),
(528,136,o),
(473,110,o),
(384,110,cs),
(277,110,o),
(212,186,o),
(212,309,cs),
(212,470,o),
(316,608,o),
(458,608,cs),
(557,608,o),
(608,554,o),
(617,482,c),
(771,482,l),
(767,622,o),
(646,730,o),
(471,730,cs),
(239,730,o),
(55,545,o),
(55,315,cs),
(55,120,o),
(177,-10,o),
(376,-10,cs)
);
},
{
closed = 1;
nodes = (
(704,123,l),
(767,394,l),
(454,394,l),
(427,276,l),
(617,276,l),
(592,307,l),
(550,123,l)
);
}
);
width = 763;
}
);
unicode = 71;
},
{
glyphname = H;
lastChange = "2023-02-07 18:34:09 +0000";
layers = (
{
anchors = (
{
name = bottom;
pos = (192,0);
},
{
name = center;
pos = (274,360);
},
{
name = top;
pos = (357,720);
},
{
name = topleft;
pos = (127,720);
}
);
background = {
shapes = (
{
closed = 1;
nodes = (
(198,0,ls),
(208,0,o),
(213,4,o),
(213,12,cs),
(213,18,o),
(209,22,o),
(202,23,cs),
(175,27,ls),
(147,31,o),
(141,39,o),
(141,67,cs),
(141,344,ls),
(141,353,o),
(146,358,o),
(155,358,cs),
(353,358,ls),
(362,358,o),
(367,353,o),
(367,344,cs),
(367,67,ls),
(367,39,o),
(361,31,o),
(333,27,cs),
(306,23,ls),
(299,22,o),
(295,18,o),
(295,12,cs),
(295,4,o),
(300,0,o),
(310,0,cs),
(493,0,ls),
(503,0,o),
(508,4,o),
(508,11,cs),
(508,17,o),
(504,21,o),
(495,23,cs),
(472,27,ls),
(444,32,o),
(438,38,o),
(438,66,cs),
(438,654,ls),
(438,682,o),
(444,688,o),
(472,693,cs),
(495,697,ls),
(504,699,o),
(508,703,o),
(508,709,cs),
(508,716,o),
(503,720,o),
(493,720,cs),
(310,720,ls),
(300,720,o),
(295,716,o),
(295,708,cs),
(295,702,o),
(299,698,o),
(306,697,cs),
(333,693,ls),
(361,689,o),
(367,681,o),
(367,653,cs),
(367,402,ls),
(367,393,o),
(362,388,o),
(353,388,cs),
(155,388,ls),
(146,388,o),
(141,393,o),
(141,402,cs),
(141,653,ls),
(141,681,o),
(147,689,o),
(175,693,cs),
(202,697,ls),
(209,698,o),
(213,702,o),
(213,708,cs),
(213,716,o),
(208,720,o),
(198,720,cs),
(15,720,ls),
(5,720,o),
(0,716,o),
(0,709,cs),
(0,703,o),
(4,699,o),
(13,697,cs),
(36,693,ls),
(64,688,o),
(70,682,o),
(70,654,cs),
(70,66,ls),
(70,38,o),
(64,32,o),
(36,27,cs),
(13,23,ls),
(4,21,o),
(0,17,o),
(0,11,cs),
(0,4,o),
(5,0,o),
(15,0,cs)
);
}
);
};
layerId = m005;
shapes = (
{
closed = 1;
nodes = (
(82,0,l),
(247,720,l),
(177,720,l),
(12,0,l)
);
},
{
closed = 1;
nodes = (
(371,0,l),
(536,720,l),
(466,720,l),
(301,0,l)
);
},
{
closed = 1;
nodes = (
(133,344,l),
(407,344,l),
(421,406,l),
(147,406,l)
);
}
);
width = 500;
},
{
anchors = (
{
name = bottom;
pos = (199,0);
},
{
name = center;
pos = (281,360);
},
{
name = top;
pos = (364,720);
},
{
name = topleft;
pos = (127,720);
}
);
layerId = m006;
shapes = (
{
closed = 1;
nodes = (
(134,0,l),
(299,720,l),
(157,720,l),
(-8,0,l)
);
},
{
closed = 1;
nodes = (
(405,0,l),
(570,720,l),
(428,720,l),
(263,0,l)
);
},
{
closed = 1;
nodes = (
(138,320,l),
(408,320,l),
(433,430,l),
(163,430,l)
);
}
);
width = 514;
},
{
anchors = (
{
name = bottom;
pos = (315,0);
},
{
name = center;
pos = (397,360);
},
{
name = top;
pos = (480,720);
},
{
name = topleft;
pos = (162,720);
}
);
background = {
shapes = (
{
closed = 1;
nodes = (
(259,0,l),
(259,22,l),
(215,29,ls),
(196,32,o),
(190,38,o),
(190,62,cs),
(190,358,l),
(416,358,l),
(416,62,ls),
(416,38,o),
(410,32,o),
(391,29,cs),
(347,22,l),
(347,0,l),
(557,0,l),
(557,22,l),
(512,29,ls),
(493,32,o),
(487,38,o),
(487,62,cs),
(487,658,ls),
(487,682,o),
(493,688,o),
(512,691,cs),
(557,698,l),
(557,720,l),
(347,720,l),
(347,698,l),
(391,691,ls),
(410,688,o),
(416,682,o),
(416,658,cs),
(416,388,l),
(190,388,l),
(190,658,ls),
(190,682,o),
(196,688,o),
(215,691,cs),
(259,698,l),
(259,720,l),
(49,720,l),
(49,698,l),
(94,691,ls),
(113,688,o),
(119,682,o),
(119,658,cs),
(119,62,ls),
(119,38,o),
(113,32,o),
(94,29,cs),
(49,22,l),
(49,0,l)
);
}
);
};
layerId = m007;
shapes = (
{
closed = 1;
nodes = (
(110,0,l),
(275,720,l),
(193,720,l),
(28,0,l)
);
},
{
closed = 1;
nodes = (
(591,0,l),
(756,720,l),
(674,720,l),
(509,0,l)
);
},
{
closed = 1;
nodes = (
(148,339,l),
(624,339,l),
(640,411,l),
(164,411,l)
);
}
);
width = 736;
},
{
anchors = (
{
name = bottom;
pos = (302,0);
},
{
name = center;
pos = (384,360);
},
{
name = top;
pos = (467,720);
},
{
name = topleft;
pos = (131,720);
}
);
background = {
shapes = (
{
closed = 1;
nodes = (
(204,0,l),
(204,720,l),
(50,720,l),
(50,0,l)
);
},
{
closed = 1;
nodes = (
(670,0,l),
(670,720,l),
(516,720,l),
(516,0,l)
);
},
{
closed = 1;
nodes = (
(122,311,l),
(586,311,l),
(586,439,l),
(122,439,l)
);
}
);
};
layerId = m008;
shapes = (
{
closed = 1;
nodes = (
(146,0,l),
(311,720,l),
(157,720,l),
(-8,0,l)
);
},
{
closed = 1;
nodes = (
(611,0,l),
(776,720,l),
(622,720,l),
(457,0,l)
);
},
{
closed = 1;
nodes = (
(137,316,l),
(601,316,l),
(628,434,l),
(164,434,l)
);
}
);
width = 720;
}
);
unicode = 72;
userData = {
KernOnName = H;
KernOnSpecialSpacing = {
L = NoKerning;
R = NoKerning;
};
};
},
{
glyphname = Hbar;
lastChange = "2023-03-03 21:00:40 +0000";
layers = (
{
layerId = m005;
shapes = (
{
ref = H;
},
{
closed = 1;
nodes = (
(567,546,l),
(580,604,l),
(81,604,l),
(68,546,l)
);
}
);
width = 500;
},
{
layerId = m006;
shapes = (
{
pos = (10,0);
ref = H;
},
{
closed = 1;
nodes = (
(587,527,l),
(612,637,l),
(98,637,l),
(73,527,l)
);
}
);
width = 534;
},
{
background = {
shapes = (
{
closed = 1;
nodes = (
(500,546,l),
(500,604,l),
(0,604,l),
(0,546,l)
);
}
);
};
layerId = m007;
shapes = (
{
ref = H;
},
{
closed = 1;
nodes = (
(802,541,l),
(818,609,l),
(82,609,l),
(66,541,l)
);
}
);
width = 736;
},
{
background = {
shapes = (
{
closed = 1;
nodes = (
(540,527,l),
(540,637,l),
(26,637,l),
(26,527,l)
);
}
);
};
layerId = m008;
shapes = (
{
pos = (16,0);
ref = H;
},
{
closed = 1;
nodes = (
(804,522,l),
(831,642,l),
(99,642,l),
(72,522,l)
);
}
);
width = 752;
}
);
unicode = 294;
},
{
glyphname = I;
lastChange = "2023-02-07 18:43:43 +0000";
layers = (
{
anchors = (
{
name = bottom;
pos = (46,0);
},
{
name = ogonek;
pos = (81,0);
},
{
name = top;
pos = (212,720);
},
{
name = topleft;
pos = (127,720);
}
);
background = {
shapes = (
{
closed = 1;
nodes = (
(196,0,ls),
(206,0,o),
(211,4,o),
(211,11,cs),
(211,17,o),
(207,21,o),
(198,23,cs),
(175,27,ls),
(147,32,o),
(141,38,o),
(141,66,cs),
(141,654,ls),
(141,682,o),
(147,688,o),
(175,693,cs),
(198,697,ls),
(207,699,o),
(211,703,o),
(211,709,cs),
(211,716,o),
(206,720,o),
(196,720,cs),
(15,720,ls),
(5,720,o),
(0,716,o),
(0,709,cs),
(0,703,o),
(4,699,o),
(13,697,cs),
(36,693,ls),
(64,688,o),
(70,682,o),
(70,654,cs),
(70,66,ls),
(70,38,o),
(64,32,o),
(36,27,cs),
(13,23,ls),
(4,21,o),
(0,17,o),
(0,11,cs),
(0,4,o),
(5,0,o),
(15,0,cs)
);
}
);
};
layerId = m005;
shapes = (
{
closed = 1;
nodes = (
(81,0,l),
(247,720,l),
(177,720,l),
(11,0,l)
);
}
);
width = 210;
},
{
anchors = (
{
name = bottom;
pos = (62,0);
},
{
name = ogonek;
pos = (133,0);
},
{
name = top;
pos = (228,720);
},
{
name = topleft;
pos = (127,720);
}
);
background = {
shapes = (
{
closed = 1;
nodes = (
(210,0,l),
(210,22,l),
(165,29,ls),
(146,32,o),
(140,38,o),
(140,62,cs),
(140,658,ls),
(140,682,o),
(146,688,o),
(165,691,cs),
(210,698,l),
(210,720,l),
(-1,720,l),
(-1,698,l),
(44,691,ls),
(63,688,o),
(69,682,o),
(69,658,cs),
(69,62,ls),
(69,38,o),
(63,32,o),
(44,29,cs),
(-1,22,l),
(-1,0,l)
);
}
);
};
layerId = m006;
shapes = (
{
closed = 1;
nodes = (
(133,0,l),
(299,720,l),
(157,720,l),
(-9,0,l)
);
}
);
width = 242;
},
{
anchors = (
{
name = bottom;
pos = (68,0);
},
{
name = ogonek;
pos = (89,0);
},
{
name = top;
pos = (234,720);
},
{
name = topleft;
pos = (127,720);
}
);
background = {
shapes = (
{
closed = 1;
nodes = (
(246,0,l),
(246,22,l),
(201,29,ls),
(182,32,o),
(176,38,o),
(176,62,cs),
(176,658,ls),
(176,682,o),
(182,688,o),
(201,691,cs),
(246,698,l),
(246,720,l),
(35,720,l),
(35,698,l),
(80,691,ls),
(99,688,o),
(105,682,o),
(105,658,cs),
(105,62,ls),
(105,38,o),
(99,32,o),
(80,29,cs),
(35,22,l),
(35,0,l)
);
}
);
};
layerId = m007;
shapes = (
{
closed = 1;
nodes = (
(109,0,l),
(275,720,l),
(193,720,l),
(27,0,l)
);
}
);
width = 254;
},
{
anchors = (
{
name = bottom;
pos = (68,0);
},
{
name = ogonek;
pos = (125,0);
},
{
name = top;
pos = (234,720);
},
{
name = topleft;
pos = (111,720);
}
);
background = {
shapes = (
{
closed = 1;
nodes = (
(230,0,l),
(230,22,l),
(185,29,ls),
(166,32,o),
(160,38,o),
(160,62,cs),
(160,658,ls),
(160,682,o),
(166,688,o),
(185,691,cs),
(230,698,l),
(230,720,l),
(19,720,l),
(19,698,l),
(64,691,ls),
(83,688,o),
(89,682,o),
(89,658,cs),
(89,62,ls),
(89,38,o),
(83,32,o),
(64,29,cs),
(19,22,l),
(19,0,l)
);
}
);
};
layerId = m008;
shapes = (
{
closed = 1;
nodes = (
(145,0,l),
(311,720,l),
(157,720,l),
(-9,0,l)
);
}
);
width = 254;
}
);
unicode = 73;
userData = {
KernOnSpecialSpacing = {
L = NoKerning;
R = NoKerning;
};
};
},
{
glyphname = J;
kernLeft = KO_J;
kernRight = KO_J;
lastChange = "2023-02-07 18:44:39 +0000";
layers = (
{
background = {
shapes = (
{
closed = 1;
nodes = (
(121,-10,o),
(195,28,o),
(215,123,cs),
(342,720,l),
(272,720,l),
(146,128,ls),
(135,75,o),
(94,54,o),
(36,54,cs),
(12,54,o),
(-15,59,o),
(-30,66,c),
(-44,2,l),
(-30,-5,o),
(-7,-10,o),
(27,-10,cs)
);
}
);
};
layerId = m005;
shapes = (
{
closed = 1;
nodes = (
(124,-10,o),
(191,28,o),
(215,133,cs),
(350,720,l),
(280,720,l),
(146,138,ls),
(131,75,o),
(98,54,o),
(37,54,cs),
(13,54,o),
(-18,59,o),
(-33,66,c),
(-48,2,l),
(-34,-5,o),
(-7,-10,o),
(27,-10,cs)
);
}
);
width = 307;
},
{
background = {
shapes = (
{
closed = 1;
nodes = (
(130,-10,o),
(208,30,o),
(230,130,cs),
(355,720,l),
(213,720,l),
(92,150,ls),
(85,116,o),
(59,102,o),
(22,102,cs),
(6,102,o),
(-11,106,o),
(-21,110,c),
(-43,3,l),
(-29,-5,o),
(-5,-10,o),
(31,-10,cs)
);
}
);
};
layerId = m006;
shapes = (
{
closed = 1;
nodes = (
(140,-10,o),
(204,30,o),
(229,140,cs),
(363,720,l),
(221,720,l),
(92,160,ls),
(82,116,o),
(61,102,o),
(24,102,cs),
(4,102,o),
(-13,106,o),
(-23,110,c),
(-47,3,l),
(-33,-5,o),
(-9,-10,o),
(31,-10,cs)
);
}
);
width = 302;
},
{
background = {
shapes = (
{
closed = 1;
nodes = (
(239,-10,o),
(333,56,o),
(361,189,cs),
(474,720,l),
(392,720,l),
(280,192,ls),
(261,104,o),
(202,62,o),
(106,62,cs),
(59,62,o),
(13,71,o),
(-16,85,c),
(-32,9,l),
(-13,-2,o),
(37,-10,o),
(88,-10,cs)
);
}
);
};
layerId = m007;
shapes = (
{
closed = 1;
nodes = (
(242,-10,o),
(329,56,o),
(364,208,cs),
(482,720,l),
(400,720,l),
(283,212,ls),
(258,104,o),
(198,62,o),
(112,62,cs),
(55,62,o),
(10,71,o),
(-19,85,c),
(-36,9,l),
(-17,-2,o),
(33,-10,o),
(93,-10,cs)
);
}
);
width = 455;
},
{
background = {
shapes = (
{
closed = 1;
nodes = (
(229,-10,o),
(323,56,o),
(351,189,cs),
(464,720,l),
(310,720,l),
(199,196,ls),
(185,131,o),
(148,110,o),
(73,110,cs),
(38,110,o),
(5,117,o),
(-17,127,c),
(-42,9,l),
(-23,-2,o),
(27,-10,o),
(78,-10,cs)
);
}
);
};
layerId = m008;
shapes = (
{
closed = 1;
nodes = (
(243,-10,o),
(319,56,o),
(352,199,cs),
(472,720,l),
(318,720,l),
(202,216,ls),
(182,131,o),
(145,110,o),
(80,110,cs),
(35,110,o),
(2,117,o),
(-20,127,c),
(-47,9,l),
(-28,-2,o),
(22,-10,o),
(73,-10,cs)
);
}
);
width = 413;
}
);
unicode = 74;
userData = {
KernOnName = J;
};
},
{
glyphname = K;
kernRight = KO_K;
lastChange = "2023-02-07 18:45:04 +0000";
layers = (
{
anchors = (
{
name = bottom;
pos = (194,0);
},
{
name = top;
pos = (340,720);
}
);
background = {
shapes = (
{
closed = 1;
nodes = (
(86,0,l),
(239,720,l),
(169,720,l),
(16,0,l)
);
},
{
closed = 1;
nodes = (
(232,374,l),
(529,720,l),
(452,720,l),
(156,374,l)
);
},
{
closed = 1;
nodes = (
(396,0,l),
(232,374,l),
(154,374,l),
(313,0,l)
);
}
);
};
layerId = m005;
shapes = (
{
closed = 1;
nodes = (
(81,0,l),
(247,720,l),
(177,720,l),
(11,0,l)
);
},
{
closed = 1;
nodes = (
(234,374,l),
(537,720,l),
(452,720,l),
(150,374,l)
);
},
{
closed = 1;
nodes = (
(391,0,l),
(234,374,l),
(163,374,l),
(315,0,l)
);
}
);
width = 466;
},
{
anchors = (
{
name = bottom;
pos = (203,0);
},
{
name = top;
pos = (359,720);
}
);
background = {
shapes = (
{
closed = 1;
nodes = (
(138,0,l),
(291,720,l),
(149,720,l),
(-4,0,l)
);
},
{
closed = 1;
nodes = (
(338,374,l),
(571,720,l),
(424,720,l),
(201,374,l)
);
},
{
closed = 1;
nodes = (
(438,0,l),
(338,374,l),
(196,374,l),
(284,0,l)
);
}
);
};
layerId = m006;
shapes = (
{
closed = 1;
nodes = (
(133,0,l),
(299,720,l),
(157,720,l),
(-9,0,l)
);
},
{
closed = 1;
nodes = (
(340,374,l),
(579,720,l),
(419,720,l),
(189,364,l)
);
},
{
closed = 1;
nodes = (
(433,0,l),
(340,374,l),
(207,374,l),
(288,0,l)
);
}
);
width = 504;
},
{
anchors = (
{
name = bottom;
pos = (297,0);
},
{
name = top;
pos = (453,720);
}
);
background = {
shapes = (
{
closed = 1;
nodes = (
(114,0,l),
(267,720,l),
(185,720,l),
(32,0,l)
);
},
{
closed = 1;
nodes = (
(291,374,l),
(747,720,l),
(632,720,l),
(184,374,l)
);
},
{
closed = 1;
nodes = (
(614,0,l),
(291,374,l),
(182,374,l),
(495,0,l)
);
}
);
};
layerId = m007;
shapes = (
{
closed = 1;
nodes = (
(109,0,l),
(275,720,l),
(193,720,l),
(27,0,l)
);
},
{
closed = 1;
nodes = (
(293,374,l),
(755,720,l),
(628,720,l),
(173,372,l)
);
},
{
closed = 1;
nodes = (
(609,0,l),
(293,374,l),
(187,383,l),
(502,0,l)
);
}
);
width = 692;
},
{
anchors = (
{
name = bottom;
pos = (304,0);
},
{
name = top;
pos = (470,720);
}
);
background = {
shapes = (
{
closed = 1;
nodes = (
(150,0,l),
(303,720,l),
(149,720,l),
(-4,0,l)
);
},
{
closed = 1;
nodes = (
(367,374,l),
(783,720,l),
(578,720,l),
(180,374,l)
);
},
{
closed = 1;
nodes = (
(650,0,l),
(367,374,l),
(178,374,l),
(441,0,l)
);
}
);
};
layerId = m008;
shapes = (
{
closed = 1;
nodes = (
(145,0,l),
(311,720,l),
(157,720,l),
(-9,0,l)
);
},
{
closed = 1;
nodes = (
(369,374,l),
(791,720,l),
(564,720,l),
(159,364,l)
);
},
{
closed = 1;
nodes = (
(645,0,l),
(369,374,l),
(200,374,l),
(456,0,l)
);
}
);
width = 722;
}
);
unicode = 75;
userData = {
KernOnSpecialSpacing = {
L = NoKerning;
};
};
},
{
glyphname = L;
kernRight = KO_L;
lastChange = "2023-02-07 18:47:34 +0000";
layers = (
{
anchors = (
{
name = bottom;
pos = (149,0);
},
{
name = center;
pos = (212,360);
},
{
name = top;
pos = (212,720);
},
{
name = topright;
pos = (375,720);
}
);
layerId = m005;
shapes = (
{
closed = 1;
nodes = (
(81,0,l),
(247,720,l),
(177,720,l),
(11,0,l)
);
},
{
closed = 1;
nodes = (
(276,0,l),
(290,62,l),
(67,62,l),
(53,0,l)
);
}
);
width = 375;
},
{
anchors = (
{
name = bottom;
pos = (149,0);
},
{
name = center;
pos = (219,360);
},
{
name = top;
pos = (226,720);
},
{
name = topright;
pos = (371,720);
}
);
background = {
shapes = (
{
closed = 1;
nodes = (
(192,0,l),
(192,720,l),
(50,720,l),
(50,0,l)
);
},
{
closed = 1;
nodes = (
(358,0,l),
(358,120,l),
(122,120,l),
(122,0,l)
);
}
);
};
layerId = m006;
shapes = (
{
closed = 1;
nodes = (
(133,0,l),
(299,720,l),
(157,720,l),
(-9,0,l)
);
},
{
closed = 1;
nodes = (
(299,0,l),
(324,110,l),
(88,110,l),
(63,0,l)
);
}
);
width = 390;
},
{
anchors = (
{
name = bottom;
pos = (272,0);
},
{
name = center;
pos = (318,360);
},
{
name = top;
pos = (233,720);
},
{
name = topright;
pos = (497,720);
}
);
layerId = m007;
shapes = (
{
closed = 1;
nodes = (
(109,0,l),
(275,720,l),
(193,720,l),
(27,0,l)
);
},
{
closed = 1;
nodes = (
(479,0,l),
(495,72,l),
(85,72,l),
(69,0,l)
);
}
);
width = 588;
},
{
anchors = (
{
name = bottom;
pos = (255,0);
},
{
name = center;
pos = (321,360);
},
{
name = top;
pos = (234,720);
},
{
name = topright;
pos = (467,720);
}
);
background = {
shapes = (
{
closed = 1;
nodes = (
(150,0,l),
(303,720,l),
(149,720,l),
(-4,0,l)
);
},
{
closed = 1;
nodes = (
(496,0,l),
(521,118,l),
(93,118,l),
(68,0,l)
);
}
);
};
layerId = m008;
shapes = (
{
closed = 1;
nodes = (
(145,0,l),
(311,720,l),
(157,720,l),
(-9,0,l)
);
},
{
closed = 1;
nodes = (
(491,0,l),
(518,118,l),
(90,118,l),
(63,0,l)
);
}
);
width = 590;
}
);
unicode = 76;
userData = {
KernOnName = L;
KernOnSpecialSpacing = {
L = NoKerning;
};
};
},
{
glyphname = Lslash;
kernRight = KO_Lslash;
lastChange = "2023-03-03 21:01:44 +0000";
layers = (
{
layerId = m005;
shapes = (
{
ref = L;
},
{
closed = 1;
nodes = (
(135,404,l),
(23,352,l),
(9,292,l),
(123,345,l)
);
},
{
closed = 1;
nodes = (
(124,349,l),
(290,427,l),
(303,487,l),
(136,408,l)
);
}
);
width = 375;
},
{
layerId = m006;
shapes = (
{
pos = (10,0);
ref = L;
},
{
closed = 1;
nodes = (
(178,425,l),
(25,358,l),
(0,253,l),
(154,320,l)
);
},
{
closed = 1;
nodes = (
(166,330,l),
(333,404,l),
(358,509,l),
(190,435,l)
);
}
);
width = 400;
},
{
layerId = m007;
shapes = (
{
ref = L;
},
{
closed = 1;
nodes = (
(167,408,l),
(24,356,l),
(9,292,l),
(155,345,l)
);
},
{
closed = 1;
nodes = (
(156,349,l),
(354,422,l),
(369,486,l),
(168,412,l)
);
}
);
width = 588;
},
{
layerId = m008;
shapes = (
{
pos = (10,0);
ref = L;
},
{
closed = 1;
nodes = (
(202,433,l),
(26,367,l),
(1,259,l),
(177,325,l)
);
},
{
closed = 1;
nodes = (
(179,335,l),
(404,421,l),
(429,529,l),
(204,443,l)
);
}
);
width = 596;
}
);
unicode = 321;
},
{
glyphname = M;
lastChange = "2023-02-07 18:48:32 +0000";
layers = (
{
background = {
shapes = (
{
closed = 1;
nodes = (
(79,0,l),
(211,622,l),
(208,621,l),
(238,0,l),
(318,0,l),
(612,621,l),
(609,622,l),
(477,0,l),
(547,0,l),
(700,720,l),
(596,720,l),
(278,44,l),
(304,44,l),
(273,720,l),
(169,720,l),
(16,0,l)
);
}
);
};
layerId = m005;
shapes = (
{
closed = 1;
nodes = (
(74,0,l),
(217,622,l),
(214,621,l),
(233,0,l),
(313,0,l),
(618,621,l),
(615,622,l),
(472,0,l),
(542,0,l),
(708,720,l),
(600,720,l),
(270,44,l),
(297,44,l),
(278,720,l),
(177,720,l),
(11,0,l)
);
}
);
width = 671;
},
{
background = {
shapes = (
{
closed = 1;
nodes = (
(126,0,l),
(258,622,l),
(237,621,l),
(242,0,l),
(346,0,l),
(615,621,l),
(594,622,l),
(462,0,l),
(600,0,l),
(753,720,l),
(553,720,l),
(259,44,l),
(356,44,l),
(348,720,l),
(149,720,l),
(-4,0,l)
);
}
);
};
layerId = m006;
shapes = (
{
closed = 1;
nodes = (
(121,0,l),
(264,622,l),
(243,621,l),
(237,0,l),
(341,0,l),
(621,621,l),
(600,622,l),
(457,0,l),
(595,0,l),
(761,720,l),
(555,720,l),
(249,44,l),
(349,44,l),
(353,720,l),
(157,720,l),
(-9,0,l)
);
}
);
width = 704;
},
{
background = {
shapes = (
{
closed = 1;
nodes = (
(107,0,l),
(250,671,l),
(239,671,l),
(347,0,l),
(445,0,l),
(840,677,l),
(829,677,l),
(685,0,l),
(766,0,l),
(919,720,l),
(791,720,l),
(386,26,l),
(424,26,l),
(311,720,l),
(185,720,l),
(32,0,l)
);
}
);
};
layerId = m007;
shapes = (
{
closed = 1;
nodes = (
(102,0,l),
(257,671,l),
(246,671,l),
(342,0,l),
(440,0,l),
(847,677,l),
(836,677,l),
(680,0,l),
(761,0,l),
(927,720,l),
(793,720,l),
(375,26,l),
(415,26,l),
(315,720,l),
(193,720,l),
(27,0,l)
);
}
);
width = 906;
},
{
layerId = m008;
shapes = (
{
closed = 1;
nodes = (
(137,0,l),
(292,671,l),
(267,671,l),
(305,0,l),
(464,0,l),
(815,677,l),
(789,677,l),
(633,0,l),
(785,0,l),
(951,720,l),
(703,720,l),
(342,26,l),
(432,26,l),
(393,720,l),
(157,720,l),
(-9,0,l)
);
}
);
width = 894;
}
);
unicode = 77;
userData = {
KernOnSpecialSpacing = {
L = NoKerning;
R = NoKerning;
};
};
},
{
glyphname = N;
lastChange = "2023-02-07 18:49:00 +0000";
layers = (
{
anchors = (
{
name = bottom;
pos = (194,0);
},
{
name = top;
pos = (360,720);
}
);
background = {
shapes = (
{
closed = 1;
nodes = (
(82,0,l),
(211,608,l),
(201,606,l),
(296,0,l),
(381,0,l),
(534,720,l),
(468,720,l),
(339,112,l),
(349,114,l),
(254,720,l),
(169,720,l),
(16,0,l)
);
}
);
};
layerId = m005;
shapes = (
{
closed = 1;
nodes = (
(77,0,l),
(217,608,l),
(209,606,l),
(293,0,l),
(376,0,l),
(542,720,l),
(476,720,l),
(336,112,l),
(344,114,l),
(260,720,l),
(177,720,l),
(11,0,l)
);
}
);
width = 505;
},
{
anchors = (
{
name = bottom;
pos = (201,0);
},
{
name = top;
pos = (367,720);
}
);
background = {
shapes = (
{
closed = 1;
nodes = (
(126,0,l),
(257,618,l),
(222,616,l),
(247,0,l),
(415,0,l),
(568,720,l),
(438,720,l),
(307,102,l),
(342,104,l),
(317,720,l),
(149,720,l),
(-4,0,l)
);
}
);
};
layerId = m006;
shapes = (
{
closed = 1;
nodes = (
(121,0,l),
(263,618,l),
(229,616,l),
(243,0,l),
(410,0,l),
(576,720,l),
(446,720,l),
(304,102,l),
(337,104,l),
(323,720,l),
(157,720,l),
(-9,0,l)
);
}
);
width = 519;
},
{
anchors = (
{
name = bottom;
pos = (309,0);
},
{
name = top;
pos = (462,720);
}
);
background = {
shapes = (
{
closed = 1;
nodes = (
(110,0,l),
(239,608,l),
(227,606,l),
(511,0,l),
(596,0,l),
(749,720,l),
(671,720,l),
(542,112,l),
(554,114,l),
(270,720,l),
(185,720,l),
(32,0,l)
);
}
);
};
layerId = m007;
shapes = (
{
closed = 1;
nodes = (
(105,0,l),
(245,608,l),
(237,606,l),
(510,0,l),
(591,0,l),
(757,720,l),
(679,720,l),
(539,112,l),
(546,114,l),
(273,720,l),
(193,720,l),
(27,0,l)
);
}
);
width = 736;
},
{
anchors = (
{
name = bottom;
pos = (301,0);
},
{
name = top;
pos = (467,720);
}
);
background = {
shapes = (
{
closed = 1;
nodes = (
(146,0,l),
(284,648,l),
(232,636,l),
(417,0,l),
(616,0,l),
(769,720,l),
(619,720,l),
(481,72,l),
(533,84,l),
(348,720,l),
(149,720,l),
(-4,0,l)
);
}
);
};
layerId = m008;
shapes = (
{
closed = 1;
nodes = (
(141,0,l),
(290,648,l),
(247,636,l),
(412,0,l),
(611,0,l),
(777,720,l),
(627,720,l),
(477,72,l),
(520,84,l),
(356,720,l),
(157,720,l),
(-9,0,l)
);
}
);
width = 720;
}
);
unicode = 78;
userData = {
KernOnSpecialSpacing = {
L = NoKerning;
R = NoKerning;
};
};
},
{
glyphname = Eng;
kernLeft = KO_B;
kernRight = KO_Iacute;
lastChange = "2023-02-07 18:50:06 +0000";
layers = (
{
layerId = m005;
shapes = (
{
closed = 1;
nodes = (
(77,0,l),
(217,608,l),
(207,606,l),
(316,0,l),
(376,0,l),
(542,720,l),
(476,720,l),
(336,112,l),
(366,114,l),
(257,720,l),
(177,720,l),
(11,0,l)
);
},
{
closed = 1;
nodes = (
(292,-215,o),
(337,-168,o),
(357,-84,cs),
(376,0,l),
(318,46,l),
(291,-74,ls),
(277,-133,o),
(253,-151,o),
(220,-151,cs),
(198,-151,o),
(186,-149,o),
(171,-145,c),
(157,-208,l),
(174,-213,o),
(183,-215,o),
(217,-215,cs)
);
}
);
width = 505;
},
{
background = {
shapes = (
{
closed = 1;
nodes = (
(126,0,l),
(251,588,l),
(216,586,l),
(279,0,l),
(414,0,l),
(567,720,l),
(437,720,l),
(329,212,l),
(360,214,l),
(317,720,l),
(149,720,l),
(-4,0,l)
);
},
{
closed = 1;
nodes = (
(319,-215,o),
(379,-163,o),
(399,-69,cs),
(421,31,l),
(283,31,l),
(264,-57,ls),
(257,-91,o),
(234,-103,o),
(201,-103,cs),
(186,-103,o),
(173,-100,o),
(166,-97,c),
(143,-206,l),
(158,-211,o),
(178,-215,o),
(211,-215,cs)
);
}
);
};
layerId = m006;
shapes = (
{
closed = 1;
nodes = (
(121,0,l),
(256,588,l),
(234,586,l),
(274,0,l),
(409,0,l),
(575,720,l),
(445,720,l),
(328,212,l),
(359,214,l),
(325,720,l),
(157,720,l),
(-9,0,l)
);
},
{
closed = 1;
nodes = (
(318,-215,o),
(370,-163,o),
(395,-59,cs),
(409,0,l),
(279,31,l),
(260,-47,ls),
(249,-91,o),
(231,-103,o),
(198,-103,cs),
(179,-103,o),
(166,-100,o),
(159,-97,c),
(134,-206,l),
(149,-211,o),
(169,-215,o),
(210,-215,cs)
);
}
);
width = 519;
},
{
layerId = m007;
shapes = (
{
closed = 1;
nodes = (
(105,0,l),
(245,608,l),
(237,606,l),
(518,0,l),
(591,0,l),
(757,720,l),
(679,720,l),
(539,112,l),
(555,114,l),
(274,720,l),
(193,720,l),
(27,0,l)
);
},
{
closed = 1;
nodes = (
(510,-215,o),
(555,-160,o),
(576,-67,cs),
(591,0,l),
(516,25,l),
(496,-62,ls),
(482,-121,o),
(460,-143,o),
(408,-143,cs),
(371,-143,o),
(348,-138,o),
(336,-134,c),
(318,-205,l),
(329,-209,o),
(351,-215,o),
(397,-215,cs)
);
}
);
width = 736;
},
{
background = {
shapes = (
{
closed = 1;
nodes = (
(142,0,l),
(278,638,l),
(226,626,l),
(462,0,l),
(611,0,l),
(764,720,l),
(614,720,l),
(485,112,l),
(580,94,l),
(344,720,l),
(145,720,l),
(-8,0,l)
);
},
{
closed = 1;
nodes = (
(508,-215,o),
(579,-152,o),
(603,-39,cs),
(622,50,l),
(470,50,l),
(452,-35,ls),
(442,-78,o),
(419,-95,o),
(375,-95,cs),
(353,-95,o),
(335,-91,o),
(321,-86,c),
(295,-205,l),
(314,-211,o),
(342,-215,o),
(375,-215,cs)
);
}
);
};
layerId = m008;
shapes = (
{
closed = 1;
nodes = (
(137,0,l),
(284,638,l),
(237,626,l),
(463,0,l),
(607,0,l),
(773,720,l),
(623,720,l),
(483,112,l),
(571,94,l),
(345,720,l),
(153,720,l),
(-13,0,l)
);
},
{
closed = 1;
nodes = (
(510,-215,o),
(572,-153,o),
(603,-19,cs),
(607,0,l),
(467,50,l),
(452,-15,ls),
(437,-78,o),
(413,-95,o),
(377,-95,cs),
(347,-95,o),
(329,-91,o),
(315,-86,c),
(287,-205,l),
(306,-211,o),
(334,-215,o),
(377,-215,cs)
);
}
);
width = 712;
}
);
unicode = 330;
},
{
glyphname = O;
kernLeft = KO_O;
kernRight = KO_O;
lastChange = "2023-02-07 18:53:29 +0000";
layers = (
{
anchors = (
{
name = bottom;
pos = (191,0);
},
{
name = center;
pos = (273,360);
},
{
name = ogonek;
pos = (290,20);
},
{
name = top;
pos = (356,720);
},
{
name = topleft;
pos = (126,720);
},
{
name = topright;
pos = (586,720);
}
);
background = {
shapes = (
{
closed = 1;
nodes = (
(325,-10,o),
(434,130,o),
(482,362,cs),
(531,593,o),
(482,730,o),
(349,730,cs),
(218,730,o),
(111,593,o),
(63,363,cs),
(14,130,o),
(63,-10,o),
(194,-10,cs)
);
},
{
closed = 1;
nodes = (
(119,54,o),
(93,165,o),
(135,364,cs),
(176,560,o),
(246,666,o),
(335,666,cs),
(425,666,o),
(452,559,o),
(411,364,cs),
(369,166,o),
(296,54,o),
(207,54,cs)
);
}
);
};
layerId = m005;
shapes = (
{
closed = 1;
nodes = (
(358,-10,o),
(493,233,o),
(498,498,cs),
(500,644,o),
(443,730,o),
(348,730,cs),
(190,730,o),
(51,481,o),
(51,212,cs),
(51,72,o),
(111,-10,o),
(199,-10,cs)
);
},
{
closed = 1;
nodes = (
(156,54,o),
(123,109,o),
(123,204,cs),
(123,431,o),
(234,666,o),
(334,666,cs),
(393,666,o),
(426,611,o),
(426,516,cs),
(426,289,o),
(315,54,o),
(212,54,cs)
);
}
);
width = 500;
},
{
anchors = (
{
name = bottom;
pos = (210,0);
},
{
name = center;
pos = (292,360);
},
{
name = ogonek;
pos = (328,20);
},
{
name = top;
pos = (375,720);
},
{
name = topleft;
pos = (125,720);
},
{
name = topright;
pos = (625,720);
}
);
background = {
shapes = (
{
closed = 1;
nodes = (
(367,-10,o),
(477,119,o),
(528,362,cs),
(579,604,o),
(524,730,o),
(367,730,cs),
(212,730,o),
(103,603,o),
(53,363,cs),
(2,120,o),
(57,-10,o),
(212,-10,cs)
);
},
{
closed = 1;
nodes = (
(171,102,o),
(158,181,o),
(197,364,cs),
(235,545,o),
(278,618,o),
(343,618,cs),
(409,618,o),
(422,543,o),
(385,364,cs),
(347,182,o),
(300,102,o),
(235,102,cs)
);
}
);
};
guides = (
{
pos = (457,730);
},
{
angle = 90;
pos = (38,665);
},
{
angle = 90;
pos = (498,665);
}
);
layerId = m006;
shapes = (
{
closed = 1;
nodes = (
(398,-9,o),
(538,219,o),
(542,488,cs),
(545,642,o),
(469,729,o),
(358,729,cs),
(183,729,o),
(44,500,o),
(44,226,cs),
(44,75,o),
(117,-9,o),
(225,-9,cs)
);
},
{
closed = 1;
nodes = (
(203,104,o),
(182,137,o),
(182,197,cs),
(182,396,o),
(262,617,o),
(346,617,cs),
(382,617,o),
(404,583,o),
(404,521,cs),
(404,325,o),
(321,104,o),
(237,104,cs)
);
}
);
width = 536;
},
{
anchors = (
{
name = bottom;
pos = (336,0);
},
{
name = center;
pos = (418,360);
},
{
name = ogonek;
pos = (482,20);
},
{
name = top;
pos = (501,720);
},
{
name = topleft;
pos = (128,720);
},
{
name = topright;
pos = (874,720);
}
);
background = {
shapes = (
{
closed = 1;
nodes = (
(535,-10,o),
(713,147,o),
(758,362,cs),
(804,577,o),
(693,730,o),
(492,730,cs),
(293,730,o),
(118,577,o),
(73,363,cs),
(27,147,o),
(138,-10,o),
(337,-10,cs)
);
},
{
closed = 1;
nodes = (
(198,64,o),
(120,188,o),
(157,364,cs),
(193,537,o),
(320,656,o),
(476,656,cs),
(632,656,o),
(711,536,o),
(675,364,cs),
(638,189,o),
(506,64,o),
(352,64,cs)
);
}
);
};
guides = (
{
pos = (576,730);
},
{
angle = 90;
pos = (157,665);
},
{
angle = 90;
pos = (617,665);
}
);
layerId = m007;
shapes = (
{
closed = 1;
nodes = (
(580,-10,o),
(762,187,o),
(762,417,cs),
(762,602,o),
(644,730,o),
(469,730,cs),
(254,730,o),
(74,537,o),
(74,307,cs),
(74,120,o),
(193,-10,o),
(365,-10,cs)
);
},
{
closed = 1;
nodes = (
(243,64,o),
(159,162,o),
(159,308,cs),
(159,499,o),
(296,656,o),
(461,656,cs),
(592,656,o),
(678,559,o),
(678,414,cs),
(678,224,o),
(536,64,o),
(370,64,cs)
);
}
);
width = 786;
},
{
anchors = (
{
name = bottom;
pos = (340,0);
},
{
name = center;
pos = (422,360);
},
{
name = ogonek;
pos = (499,20);
},
{
name = top;
pos = (505,720);
},
{
name = topleft;
pos = (126,720);
},
{
name = topright;
pos = (884,720);
}
);
background = {
shapes = (
{
closed = 1;
nodes = (
(557,-10,o),
(744,142,o),
(790,362,cs),
(837,582,o),
(715,730,o),
(498,730,cs),
(283,730,o),
(99,582,o),
(53,363,cs),
(6,141,o),
(129,-10,o),
(343,-10,cs)
);
},
{
closed = 1;
nodes = (
(243,112,o),
(177,212,o),
(209,364,cs),
(240,513,o),
(345,608,o),
(472,608,cs),
(599,608,o),
(666,512,o),
(635,364,cs),
(603,214,o),
(493,112,o),
(368,112,cs)
);
}
);
};
guides = (
{
pos = (465,730);
},
{
angle = 90;
pos = (46,665);
},
{
angle = 90;
pos = (506,665);
}
);
layerId = m008;
shapes = (
{
closed = 1;
nodes = (
(605,-10,o),
(793,178,o),
(793,410,cs),
(793,600,o),
(663,731,o),
(468,731,cs),
(238,731,o),
(55,545,o),
(55,312,cs),
(55,121,o),
(185,-10,o),
(375,-10,cs)
);
},
{
closed = 1;
nodes = (
(278,112,o),
(211,191,o),
(211,316,cs),
(211,480,o),
(320,609,o),
(458,609,cs),
(568,609,o),
(637,530,o),
(637,406,cs),
(637,245,o),
(523,112,o),
(385,112,cs)
);
}
);
width = 798;
}
);
unicode = 79;
userData = {
KernOnName = O;
};
},
{
glyphname = Oslash;
lastChange = "2023-02-02 18:22:21 +0000";
layers = (
{
background = {
shapes = (
{
closed = 1;
nodes = (
(79,-60,ls),
(84,-60,o),
(88,-58,o),
(90,-52,cs),
(342,538,ls),
(345,545,o),
(341,550,o),
(334,550,cs),
(327,550,ls),
(322,550,o),
(318,548,o),
(316,542,cs),
(64,-48,ls),
(61,-55,o),
(65,-60,o),
(72,-60,cs)
);
}
);
};
layerId = m005;
shapes = (
{
ref = O;
},
{
closed = 1;
nodes = (
(475,706,l),
(433,730,l),
(25,14,l),
(67,-10,l)
);
}
);
width = 500;
},
{
background = {
shapes = (
{
closed = 1;
nodes = (
(79,-60,ls),
(84,-60,o),
(88,-58,o),
(90,-52,cs),
(342,538,ls),
(345,545,o),
(341,550,o),
(334,550,cs),
(327,550,ls),
(322,550,o),
(318,548,o),
(316,542,cs),
(64,-48,ls),
(61,-55,o),
(65,-60,o),
(72,-60,cs)
);
}
);
};
layerId = m006;
shapes = (
{
ref = O;
},
{
closed = 1;
nodes = (
(530,679,l),
(454,730,l),
(6,41,l),
(82,-10,l)
);
}
);
width = 536;
},
{
background = {
shapes = (
{
closed = 1;
nodes = (
(714,682,l),
(664,720,l),
(44,6,l),
(94,-32,l)
);
}
);
};
layerId = m007;
shapes = (
{
ref = O;
},
{
closed = 1;
nodes = (
(724,689,l),
(674,730,l),
(62,31,l),
(112,-10,l)
);
}
);
width = 786;
},
{
background = {
shapes = (
{
closed = 1;
nodes = (
(79,-60,ls),
(84,-60,o),
(88,-58,o),
(90,-52,cs),
(342,538,ls),
(345,545,o),
(341,550,o),
(334,550,cs),
(327,550,ls),
(322,550,o),
(318,548,o),
(316,542,cs),
(64,-48,ls),
(61,-55,o),
(65,-60,o),
(72,-60,cs)
);
}
);
};
layerId = m008;
shapes = (
{
ref = O;
},
{
closed = 1;
nodes = (
(743,657,l),
(664,730,l),
(43,63,l),
(122,-10,l)
);
}
);
width = 798;
}
);
unicode = 216;
},
{
glyphname = OE;
kernLeft = KO_O;
kernRight = KO_E;
lastChange = "2023-02-07 18:54:18 +0000";
layers = (
{
background = {
shapes = (
{
closed = 1;
nodes = (
(239,-10,o),
(270,-5,o),
(305,12,c),
(322,93,l),
(293,67,o),
(260,54,o),
(219,54,cs),
(112,54,o),
(87,160,o),
(130,361,cs),
(172,560,o),
(243,666,o),
(350,666,cs),
(391,666,o),
(418,653,o),
(435,627,c),
(452,708,l),
(425,725,o),
(396,730,o),
(363,730,cs),
(214,730,o),
(107,593,o),
(58,361,cs),
(8,127,o),
(57,-10,o),
(206,-10,cs)
);
},
{
closed = 1;
nodes = (
(556,0,l),
(569,62,l),
(354,62,l),
(414,344,l),
(607,344,l),
(620,406,l),
(427,406,l),
(481,658,l),
(688,658,l),
(701,720,l),
(424,720,l),
(271,0,l)
);
}
);
};
layerId = m005;
shapes = (
{
closed = 1;
nodes = (
(237,-10,o),
(270,-5,o),
(305,12,c),
(324,93,l),
(297,69,o),
(260,54,o),
(222,54,cs),
(151,54,o),
(123,108,o),
(123,212,cs),
(123,415,o),
(225,666,o),
(366,666,cs),
(402,666,o),
(432,650,o),
(446,627,c),
(464,708,l),
(438,725,o),
(407,730,o),
(379,730,cs),
(185,730,o),
(51,471,o),
(51,223,cs),
(51,62,o),
(111,-10,o),
(210,-10,cs)
);
},
{
closed = 1;
nodes = (
(556,0,l),
(570,62,l),
(355,62,l),
(420,344,l),
(613,344,l),
(627,406,l),
(434,406,l),
(492,658,l),
(699,658,l),
(714,720,l),
(437,720,l),
(271,0,l)
);
}
);
width = 665;
},
{
background = {
shapes = (
{
closed = 1;
nodes = (
(283,-10,o),
(328,6,o),
(374,39,c),
(324,121,l),
(307,110,o),
(279,102,o),
(249,102,cs),
(169,102,o),
(153,175,o),
(193,361,cs),
(232,545,o),
(278,618,o),
(358,618,cs),
(388,618,o),
(414,610,o),
(425,599,c),
(511,681,l),
(479,714,o),
(440,730,o),
(374,730,cs),
(219,730,o),
(100,603,o),
(49,361,cs),
(-3,117,o),
(62,-10,o),
(217,-10,cs)
);
},
{
closed = 1;
nodes = (
(608,0,l),
(631,110,l),
(451,110,l),
(495,317,l),
(657,317,l),
(680,425,l),
(518,425,l),
(558,610,l),
(730,610,l),
(753,720,l),
(439,720,l),
(286,0,l)
);
}
);
};
layerId = m006;
shapes = (
{
closed = 1;
nodes = (
(283,-10,o),
(328,6,o),
(375,39,c),
(326,121,l),
(309,110,o),
(290,102,o),
(254,102,cs),
(203,102,o),
(182,137,o),
(182,197,cs),
(182,396,o),
(253,618,o),
(368,618,cs),
(399,618,o),
(424,610,o),
(436,599,c),
(523,681,l),
(491,714,o),
(453,730,o),
(383,730,cs),
(183,730,o),
(44,500,o),
(44,226,cs),
(44,75,o),
(117,-10,o),
(221,-10,cs)
);
},
{
closed = 1;
nodes = (
(608,0,l),
(633,110,l),
(453,110,l),
(501,317,l),
(663,317,l),
(688,425,l),
(526,425,l),
(568,610,l),
(740,610,l),
(766,720,l),
(452,720,l),
(286,0,l)
);
}
);
width = 705;
},
{
background = {
shapes = (
{
closed = 1;
nodes = (
(423,-10,o),
(469,-5,o),
(509,6,c),
(526,86,l),
(494,71,o),
(436,64,o),
(378,64,cs),
(192,64,o),
(115,183,o),
(153,361,cs),
(190,537,o),
(317,656,o),
(503,656,cs),
(561,656,o),
(617,649,o),
(643,634,c),
(660,714,l),
(624,725,o),
(580,730,o),
(519,730,cs),
(290,730,o),
(115,577,o),
(69,361,cs),
(22,143,o),
(133,-10,o),
(362,-10,cs)
);
},
{
closed = 1;
nodes = (
(936,0,l),
(951,72,l),
(571,72,l),
(628,339,l),
(972,339,l),
(987,411,l),
(643,411,l),
(694,648,l),
(1066,648,l),
(1081,720,l),
(627,720,l),
(474,0,l)
);
}
);
};
layerId = m007;
shapes = (
{
closed = 1;
nodes = (
(415,-10,o),
(470,-5,o),
(509,6,c),
(528,86,l),
(504,74,o),
(440,64,o),
(390,64,cs),
(235,64,o),
(158,165,o),
(158,315,cs),
(158,503,o),
(292,656,o),
(518,656,cs),
(573,656,o),
(634,647,o),
(654,634,c),
(672,714,l),
(643,724,o),
(587,730,o),
(536,730,cs),
(245,730,o),
(74,537,o),
(74,307,cs),
(74,125,o),
(182,-10,o),
(377,-10,cs)
);
},
{
closed = 1;
nodes = (
(936,0,l),
(952,72,l),
(572,72,l),
(634,339,l),
(978,339,l),
(994,411,l),
(650,411,l),
(705,648,l),
(1077,648,l),
(1094,720,l),
(640,720,l),
(474,0,l)
);
}
);
width = 1065;
},
{
background = {
shapes = (
{
closed = 1;
nodes = (
(427,-10,o),
(475,-6,o),
(517,1,c),
(545,133,l),
(501,119,o),
(458,112,o),
(395,112,cs),
(235,112,o),
(171,207,o),
(204,361,cs),
(236,513,o),
(340,608,o),
(500,608,cs),
(563,608,o),
(604,601,o),
(642,587,c),
(670,719,l),
(630,726,o),
(584,730,o),
(526,730,cs),
(289,730,o),
(95,582,o),
(48,361,cs),
(0,138,o),
(132,-10,o),
(369,-10,cs)
);
},
{
closed = 1;
nodes = (
(991,0,l),
(1016,118,l),
(674,118,l),
(715,310,l),
(1022,310,l),
(1047,426,l),
(740,426,l),
(777,602,l),
(1107,602,l),
(1132,720,l),
(648,720,l),
(495,0,l)
);
}
);
};
layerId = m008;
shapes = (
{
closed = 1;
nodes = (
(421,-10,o),
(475,-6,o),
(517,1,c),
(547,133,l),
(508,120,o),
(452,112,o),
(408,112,cs),
(271,112,o),
(211,190,o),
(211,313,cs),
(211,480,o),
(310,608,o),
(518,608,cs),
(573,608,o),
(621,599,o),
(652,587,c),
(683,719,l),
(651,725,o),
(592,730,o),
(541,730,cs),
(229,730,o),
(55,545,o),
(55,313,cs),
(55,121,o),
(179,-10,o),
(385,-10,cs)
);
},
{
closed = 1;
nodes = (
(991,0,l),
(1018,118,l),
(676,118,l),
(720,310,l),
(1027,310,l),
(1054,426,l),
(747,426,l),
(788,602,l),
(1118,602,l),
(1145,720,l),
(661,720,l),
(495,0,l)
);
}
);
width = 1090;
}
);
metricLeft = O;
metricRight = E;
unicode = 338;
},
{
glyphname = P;
kernRight = KO_P;
lastChange = "2023-02-07 18:55:19 +0000";
layers = (
{
background = {
shapes = (
{
closed = 1;
nodes = (
(86,0,l),
(226,658,l),
(290,658,ls),
(374,658,o),
(410,600,o),
(390,510,cs),
(371,418,o),
(310,359,o),
(226,359,cs),
(140,359,l),
(127,297,l),
(215,297,ls),
(342,297,o),
(434,384,o),
(460,510,cs),
(487,635,o),
(433,720,o),
(305,720,cs),
(169,720,l),
(16,0,l)
);
}
);
};
layerId = m005;
shapes = (
{
closed = 1;
nodes = (
(81,0,l),
(232,658,l),
(293,658,ls),
(359,658,o),
(395,611,o),
(395,548,cs),
(395,480,o),
(356,359,o),
(241,359,cs),
(141,359,l),
(127,297,l),
(231,297,ls),
(378,297,o),
(466,423,o),
(466,547,cs),
(466,646,o),
(407,720,o),
(310,720,cs),
(177,720,l),
(11,0,l)
);
}
);
width = 434;
},
{
background = {
shapes = (
{
closed = 1;
nodes = (
(138,0,l),
(268,610,l),
(304,610,ls),
(356,610,o),
(374,575,o),
(357,496,cs),
(340,416,o),
(307,381,o),
(255,381,cs),
(187,381,l),
(164,271,l),
(235,271,ls),
(370,271,o),
(470,356,o),
(499,494,cs),
(529,633,o),
(463,720,o),
(330,720,cs),
(149,720,l),
(-4,0,l)
);
}
);
};
guides = (
{
pos = (261,326);
}
);
layerId = m006;
shapes = (
{
closed = 1;
nodes = (
(133,0,l),
(274,610,l),
(305,610,ls),
(344,610,o),
(362,585,o),
(362,534,cs),
(362,449,o),
(311,381,o),
(243,381,cs),
(189,381,l),
(164,271,l),
(244,271,ls),
(395,271,o),
(504,384,o),
(504,533,cs),
(504,649,o),
(438,720,o),
(335,720,cs),
(157,720,l),
(-9,0,l)
);
}
);
width = 468;
},
{
background = {
shapes = (
{
closed = 1;
nodes = (
(114,0,l),
(252,648,l),
(453,648,ls),
(561,648,o),
(606,600,o),
(586,510,cs),
(567,419,o),
(499,369,o),
(393,369,cs),
(170,369,l),
(155,297,l),
(381,297,ls),
(534,297,o),
(640,378,o),
(668,510,cs),
(696,641,o),
(625,720,o),
(471,720,cs),
(185,720,l),
(32,0,l)
);
}
);
};
guides = (
{
pos = (261,326);
}
);
layerId = m007;
shapes = (
{
closed = 1;
nodes = (
(109,0,l),
(258,648,l),
(456,648,ls),
(550,648,o),
(590,598,o),
(590,528,cs),
(590,435,o),
(519,369,o),
(415,369,cs),
(171,369,l),
(155,297,l),
(411,297,ls),
(562,297,o),
(672,397,o),
(672,534,cs),
(672,646,o),
(594,720,o),
(476,720,cs),
(193,720,l),
(27,0,l)
);
}
);
width = 656;
},
{
background = {
shapes = (
{
closed = 1;
nodes = (
(150,0,l),
(278,602,l),
(457,602,ls),
(528,602,o),
(560,560,o),
(546,496,cs),
(533,432,o),
(482,389,o),
(412,389,cs),
(201,389,l),
(176,271,l),
(395,271,ls),
(552,271,o),
(672,362,o),
(701,497,cs),
(729,631,o),
(649,720,o),
(490,720,cs),
(149,720,l),
(-4,0,l)
);
}
);
};
guides = (
{
pos = (265,326);
}
);
layerId = m008;
shapes = (
{
closed = 1;
nodes = (
(145,0,l),
(284,602,l),
(462,602,ls),
(517,602,o),
(551,568,o),
(551,513,cs),
(551,443,o),
(499,389,o),
(430,389,cs),
(203,389,l),
(176,271,l),
(422,271,ls),
(581,271,o),
(705,379,o),
(705,520,cs),
(705,637,o),
(615,720,o),
(486,720,cs),
(157,720,l),
(-9,0,l)
);
}
);
width = 672;
}
);
unicode = 80;
userData = {
KernOnSpecialSpacing = {
L = NoKerning;
};
};
},
{
glyphname = Thorn;
kernLeft = KO_B;
lastChange = "2023-02-07 18:56:40 +0000";
layers = (
{
background = {
shapes = (
{
closed = 1;
nodes = (
(177,170,ls),
(299,170,o),
(404,247,o),
(430,370,cs),
(456,493,o),
(384,570,o),
(262,570,cs),
(184,570,l),
(171,508,l),
(247,508,ls),
(341,508,o),
(379,459,o),
(360,370,cs),
(341,281,o),
(282,232,o),
(188,232,cs),
(112,232,l),
(99,170,l)
);
},
{
closed = 1;
nodes = (
(86,0,l),
(239,720,l),
(169,720,l),
(16,0,l)
);
}
);
};
layerId = m005;
shapes = (
{
closed = 1;
nodes = (
(180,170,ls),
(337,170,o),
(434,284,o),
(434,401,cs),
(434,493,o),
(374,570,o),
(275,570,cs),
(189,570,l),
(175,508,l),
(262,508,ls),
(329,508,o),
(364,463,o),
(364,402,cs),
(364,325,o),
(314,232,o),
(190,232,cs),
(111,232,l),
(97,170,l)
);
},
{
closed = 1;
nodes = (
(81,0,l),
(247,720,l),
(177,720,l),
(11,0,l)
);
}
);
width = 434;
},
{
background = {
shapes = (
{
closed = 1;
nodes = (
(200,160,ls),
(326,160,o),
(443,235,o),
(472,370,cs),
(500,505,o),
(415,580,o),
(289,580,cs),
(228,580,l),
(205,470,l),
(263,470,ls),
(315,470,o),
(346,445,o),
(330,370,cs),
(314,295,o),
(272,270,o),
(220,270,cs),
(162,270,l),
(139,160,l)
);
},
{
closed = 1;
nodes = (
(138,0,l),
(291,720,l),
(149,720,l),
(-4,0,l)
);
}
);
};
layerId = m006;
shapes = (
{
closed = 1;
nodes = (
(217,160,ls),
(368,160,o),
(477,274,o),
(477,406,cs),
(477,510,o),
(410,580,o),
(307,580,cs),
(238,580,l),
(213,470,l),
(277,470,ls),
(315,470,o),
(335,446,o),
(335,400,cs),
(335,327,o),
(284,270,o),
(216,270,cs),
(167,270,l),
(142,160,l)
);
},
{
closed = 1;
nodes = (
(133,0,l),
(299,720,l),
(157,720,l),
(-9,0,l)
);
}
);
width = 468;
},
{
background = {
shapes = (
{
closed = 1;
nodes = (
(351,160,ls),
(504,160,o),
(610,241,o),
(638,370,cs),
(665,499,o),
(593,580,o),
(440,580,cs),
(215,580,l),
(200,508,l),
(422,508,ls),
(528,508,o),
(574,458,o),
(556,370,cs),
(537,282,o),
(469,232,o),
(363,232,cs),
(141,232,l),
(126,160,l)
);
},
{
closed = 1;
nodes = (
(114,0,l),
(267,720,l),
(185,720,l),
(32,0,l)
);
}
);
};
layerId = m007;
shapes = (
{
closed = 1;
nodes = (
(379,160,ls),
(530,160,o),
(640,260,o),
(640,396,cs),
(640,506,o),
(562,580,o),
(443,580,cs),
(220,580,l),
(204,508,l),
(424,508,ls),
(518,508,o),
(558,457,o),
(558,392,cs),
(558,297,o),
(487,232,o),
(383,232,cs),
(140,232,l),
(124,160,l)
);
},
{
closed = 1;
nodes = (
(109,0,l),
(275,720,l),
(193,720,l),
(27,0,l)
);
}
);
width = 656;
},
{
background = {
shapes = (
{
closed = 1;
nodes = (
(366,150,ls),
(523,150,o),
(643,241,o),
(671,370,cs),
(698,499,o),
(616,590,o),
(459,590,cs),
(239,590,l),
(214,472,l),
(424,472,ls),
(495,472,o),
(529,429,o),
(517,370,cs),
(504,311,o),
(452,268,o),
(381,268,cs),
(171,268,l),
(146,150,l)
);
},
{
closed = 1;
nodes = (
(146,0,l),
(299,720,l),
(145,720,l),
(-8,0,l)
);
}
);
};
layerId = m008;
shapes = (
{
closed = 1;
nodes = (
(389,150,ls),
(548,150,o),
(672,258,o),
(672,395,cs),
(672,507,o),
(581,590,o),
(452,590,cs),
(244,590,l),
(217,472,l),
(428,472,ls),
(483,472,o),
(518,438,o),
(518,388,cs),
(518,322,o),
(475,268,o),
(397,268,cs),
(171,268,l),
(144,150,l)
);
},
{
closed = 1;
nodes = (
(141,0,l),
(307,720,l),
(153,720,l),
(-13,0,l)
);
}
);
width = 668;
}
);
unicode = 222;
},
{
glyphname = Q;
kernLeft = KO_O;
kernRight = KO_Q;
lastChange = "2023-02-07 18:59:37 +0000";
layers = (
{
background = {
shapes = (
{
closed = 1;
nodes = (
(268,22,l),
(376,66,o),
(446,188,o),
(483,362,cs),
(532,593,o),
(483,730,o),
(350,730,cs),
(219,730,o),
(112,593,o),
(63,363,cs),
(14,130,o),
(63,-10,o),
(194,-10,c)
);
},
{
closed = 1;
nodes = (
(118,54,o),
(93,165,o),
(135,364,cs),
(177,560,o),
(248,666,o),
(337,666,cs),
(427,666,o),
(453,559,o),
(411,364,cs),
(369,166,o),
(295,54,o),
(206,54,cs)
);
},
{
closed = 1;
nodes = (
(271,-10,o),
(326,0,o),
(426,0,c),
(439,62,l),
(205,42,l),
(194,-10,l)
);
}
);
};
guides = (
{
angle = 90;
pos = (406,56);
}
);
layerId = m005;
shapes = (
{
closed = 1;
nodes = (
(261,21,l),
(406,77,o),
(499,284,o),
(499,505,cs),
(499,647,o),
(442,730,o),
(349,730,cs),
(190,730,o),
(51,481,o),
(51,211,cs),
(51,72,o),
(108,-10,o),
(202,-10,c)
);
},
{
closed = 1;
nodes = (
(156,54,o),
(123,109,o),
(123,204,cs),
(123,431,o),
(234,666,o),
(335,666,cs),
(394,666,o),
(427,611,o),
(427,516,cs),
(427,289,o),
(316,54,o),
(213,54,cs)
);
},
{
closed = 1;
nodes = (
(267,-10,o),
(321,0,o),
(421,0,c),
(435,62,l),
(202,42,l),
(202,-10,l)
);
}
);
width = 500;
},
{
background = {
shapes = (
{
closed = 1;
nodes = (
(314,50,l),
(439,98,o),
(496,207,o),
(529,362,cs),
(580,604,o),
(525,730,o),
(368,730,cs),
(213,730,o),
(104,603,o),
(53,363,cs),
(2,120,o),
(50,-10,o),
(232,-10,c)
);
},
{
closed = 1;
nodes = (
(171,102,o),
(158,181,o),
(197,364,cs),
(236,545,o),
(279,618,o),
(344,618,cs),
(410,618,o),
(423,543,o),
(385,364,cs),
(347,182,o),
(300,102,o),
(235,102,cs)
);
},
{
closed = 1;
nodes = (
(310,-10,o),
(380,0,o),
(474,0,c),
(497,110,l),
(231,80,l),
(232,-10,l)
);
}
);
};
layerId = m006;
shapes = (
{
closed = 1;
nodes = (
(295,47,l),
(439,81,o),
(539,273,o),
(543,488,cs),
(545,642,o),
(470,729,o),
(359,729,cs),
(183,729,o),
(44,500,o),
(44,226,cs),
(44,75,o),
(117,-10,o),
(225,-10,c)
);
},
{
closed = 1;
nodes = (
(203,103,o),
(182,137,o),
(182,197,cs),
(182,396,o),
(263,617,o),
(347,617,cs),
(383,617,o),
(404,583,o),
(404,521,cs),
(404,325,o),
(322,103,o),
(237,103,cs)
);
},
{
closed = 1;
nodes = (
(306,-10,o),
(375,0,o),
(469,0,c),
(494,110,l),
(225,80,l),
(225,-10,l)
);
}
);
width = 546;
},
{
background = {
shapes = (
{
closed = 1;
nodes = (
(455,37,l),
(614,68,o),
(725,201,o),
(759,362,cs),
(805,577,o),
(694,730,o),
(493,730,cs),
(294,730,o),
(119,577,o),
(73,363,cs),
(27,147,o),
(128,-10,o),
(355,-10,c)
);
},
{
closed = 1;
nodes = (
(197,60,o),
(120,188,o),
(157,364,cs),
(194,537,o),
(321,656,o),
(477,656,cs),
(633,656,o),
(712,536,o),
(675,364,cs),
(638,189,o),
(508,60,o),
(351,60,cs)
);
},
{
closed = 1;
nodes = (
(509,-10,o),
(547,0,o),
(709,0,c),
(724,72,l),
(348,44,l),
(355,-10,l)
);
}
);
};
layerId = m007;
shapes = (
{
closed = 1;
nodes = (
(441,29,l),
(631,63,o),
(763,229,o),
(763,417,cs),
(763,602,o),
(645,730,o),
(470,730,cs),
(254,730,o),
(74,537,o),
(74,307,cs),
(74,120,o),
(193,-10,o),
(366,-10,c)
);
},
{
closed = 1;
nodes = (
(243,64,o),
(159,162,o),
(159,308,cs),
(159,499,o),
(296,656,o),
(462,656,cs),
(593,656,o),
(679,559,o),
(679,414,cs),
(679,224,o),
(537,64,o),
(371,64,cs)
);
},
{
closed = 1;
nodes = (
(506,-10,o),
(542,0,o),
(704,0,c),
(720,72,l),
(360,44,l),
(366,-10,l)
);
}
);
width = 787;
},
{
background = {
shapes = (
{
closed = 1;
nodes = (
(501,56,l),
(672,99,o),
(761,221,o),
(791,362,cs),
(838,582,o),
(716,730,o),
(499,730,cs),
(284,730,o),
(100,582,o),
(53,363,cs),
(6,141,o),
(129,-10,o),
(343,-10,c)
);
},
{
closed = 1;
nodes = (
(242,106,o),
(175,202,o),
(209,364,cs),
(241,513,o),
(346,608,o),
(473,608,cs),
(600,608,o),
(667,512,o),
(635,364,cs),
(601,204,o),
(492,106,o),
(367,106,cs)
);
},
{
closed = 1;
nodes = (
(496,-10,o),
(580,0,o),
(751,0,c),
(776,118,l),
(366,98,l),
(343,-10,l)
);
}
);
};
layerId = m008;
shapes = (
{
closed = 1;
nodes = (
(499,59,l),
(670,79,o),
(792,233,o),
(792,410,cs),
(792,600,o),
(662,731,o),
(468,731,cs),
(238,731,o),
(55,545,o),
(55,312,cs),
(55,121,o),
(185,-10,o),
(358,-10,c)
);
},
{
closed = 1;
nodes = (
(278,112,o),
(211,191,o),
(211,316,cs),
(211,480,o),
(320,609,o),
(458,609,cs),
(567,609,o),
(636,530,o),
(636,406,cs),
(636,245,o),
(522,112,o),
(385,112,cs)
);
},
{
closed = 1;
nodes = (
(491,-10,o),
(575,0,o),
(746,0,c),
(773,118,l),
(363,98,l),
(358,-10,l)
);
}
);
width = 815;
}
);
unicode = 81;
},
{
glyphname = R;
kernLeft = KO_B;
kernRight = KO_R.ss05;
lastChange = "2023-02-07 19:01:00 +0000";
layers = (
{
anchors = (
{
name = bottom;
pos = (158,0);
},
{
name = top;
pos = (324,720);
}
);
background = {
shapes = (
{
closed = 1;
nodes = (
(86,0,l),
(226,658,l),
(290,658,ls),
(364,658,o),
(400,600,o),
(383,520,cs),
(365,438,o),
(305,379,o),
(231,379,cs),
(145,379,l),
(131,317,l),
(219,317,ls),
(336,317,o),
(428,404,o),
(453,520,cs),
(477,635,o),
(423,720,o),
(305,720,cs),
(169,720,l),
(16,0,l)
);
},
{
closed = 1;
nodes = (
(370,0,l),
(207,374,l),
(129,374,l),
(287,0,l)
);
}
);
};
layerId = m005;
shapes = (
{
closed = 1;
nodes = (
(81,0,l),
(232,658,l),
(297,658,ls),
(367,658,o),
(393,608,o),
(392,547,cs),
(390,457,o),
(335,379,o),
(229,379,cs),
(147,379,l),
(132,317,l),
(225,317,ls),
(375,317,o),
(461,436,o),
(463,553,cs),
(464,642,o),
(413,720,o),
(314,720,cs),
(177,720,l),
(11,0,l)
);
},
{
closed = 1;
nodes = (
(365,0,l),
(209,374,l),
(139,374,l),
(289,0,l)
);
}
);
width = 434;
},
{
anchors = (
{
name = bottom;
pos = (175,0);
},
{
name = top;
pos = (341,720);
}
);
background = {
shapes = (
{
closed = 1;
nodes = (
(138,0,l),
(268,610,l),
(300,610,ls),
(347,610,o),
(367,571,o),
(354,506,cs),
(340,440,o),
(302,401,o),
(255,401,cs),
(191,401,l),
(170,299,l),
(241,299,ls),
(366,299,o),
(466,384,o),
(492,508,cs),
(519,633,o),
(453,720,o),
(330,720,cs),
(149,720,l),
(-4,0,l)
);
},
{
closed = 1;
nodes = (
(412,0,l),
(332,374,l),
(197,374,l),
(258,0,l)
);
}
);
};
layerId = m006;
shapes = (
{
closed = 1;
nodes = (
(133,0,l),
(274,610,l),
(309,610,ls),
(344,610,o),
(365,582,o),
(364,537,cs),
(363,464,o),
(315,401,o),
(261,401,cs),
(193,401,l),
(170,299,l),
(262,299,ls),
(396,299,o),
(500,403,o),
(502,538,cs),
(504,645,o),
(438,720,o),
(331,720,cs),
(157,720,l),
(-9,0,l)
);
},
{
closed = 1;
nodes = (
(407,0,l),
(334,374,l),
(206,374,l),
(260,0,l)
);
}
);
width = 468;
},
{
anchors = (
{
name = bottom;
pos = (269,0);
},
{
name = top;
pos = (435,720);
}
);
background = {
shapes = (
{
closed = 1;
nodes = (
(114,0,l),
(252,648,l),
(433,648,ls),
(541,648,o),
(586,600,o),
(569,520,cs),
(551,439,o),
(484,389,o),
(378,389,cs),
(175,389,l),
(159,317,l),
(365,317,ls),
(518,317,o),
(625,398,o),
(651,520,cs),
(676,641,o),
(605,720,o),
(451,720,cs),
(185,720,l),
(32,0,l)
);
},
{
closed = 1;
nodes = (
(578,0,l),
(259,357,l),
(147,357,l),
(454,0,l)
);
}
);
};
layerId = m007;
shapes = (
{
closed = 1;
nodes = (
(109,0,l),
(258,648,l),
(443,648,ls),
(535,648,o),
(579,600,o),
(578,531,cs),
(577,448,o),
(511,389,o),
(409,389,cs),
(177,389,l),
(160,317,l),
(392,317,ls),
(553,317,o),
(658,404,o),
(660,534,cs),
(662,642,o),
(592,720,o),
(461,720,cs),
(193,720,l),
(27,0,l)
);
},
{
closed = 1;
nodes = (
(573,0,l),
(260,357,l),
(160,357,l),
(461,0,l)
);
}
);
width = 656;
},
{
anchors = (
{
name = bottom;
pos = (275,0);
},
{
name = top;
pos = (441,720);
}
);
background = {
shapes = (
{
closed = 1;
nodes = (
(146,0,l),
(274,602,l),
(438,602,ls),
(512,602,o),
(545,569,o),
(532,506,cs),
(518,444,o),
(470,409,o),
(397,409,cs),
(201,409,l),
(177,296,l),
(377,296,ls),
(532,296,o),
(653,380,o),
(680,507,cs),
(707,635,o),
(622,720,o),
(467,720,cs),
(145,720,l),
(-8,0,l)
);
},
{
closed = 1;
nodes = (
(606,0,l),
(351,374,l),
(188,374,l),
(398,0,l)
);
}
);
};
layerId = m008;
shapes = (
{
closed = 1;
nodes = (
(141,0,l),
(280,602,l),
(447,602,ls),
(507,602,o),
(541,571,o),
(540,519,cs),
(539,454,o),
(490,409,o),
(422,409,cs),
(203,409,l),
(177,296,l),
(413,296,ls),
(570,296,o),
(686,392,o),
(688,523,cs),
(690,641,o),
(602,720,o),
(468,720,cs),
(153,720,l),
(-13,0,l)
);
},
{
closed = 1;
nodes = (
(601,0,l),
(353,374,l),
(207,374,l),
(410,0,l)
);
}
);
width = 668;
}
);
unicode = 82;
},
{
glyphname = S;
kernLeft = KO_S;
kernRight = KO_S;
lastChange = "2023-03-04 13:28:54 +0000";
layers = (
{
anchors = (
{
name = bottom;
pos = (175,0);
},
{
name = top;
pos = (304,720);
}
);
background = {
shapes = (
{
closed = 1;
nodes = (
(264,-9,o),
(342,56,o),
(364,160,cs),
(380,235,o),
(361,306,o),
(311,357,cs),
(232,435,ls),
(191,476,o),
(178,518,o),
(189,571,cs),
(203,634,o),
(241,669,o),
(298,669,cs),
(367,669,o),
(389,619,o),
(366,514,c),
(434,514,l),
(464,653,o),
(420,731,o),
(313,731,cs),
(216,731,o),
(140,667,o),
(119,569,cs),
(104,498,o),
(124,431,o),
(176,380,cs),
(254,302,ls),
(295,262,o),
(307,220,o),
(295,163,cs),
(279,91,o),
(240,53,o),
(181,53,cs),
(102,53,o),
(70,119,o),
(94,230,c),
(27,230,l),
(-5,80,o),
(45,-9,o),
(163,-9,cs)
);
}
);
};
layerId = m005;
shapes = (
{
closed = 1;
nodes = (
(287,-9,o),
(362,65,o),
(362,193,cs),
(362,255,o),
(342,306,o),
(304,352,cs),
(235,435,ls),
(204,472,o),
(191,503,o),
(191,543,cs),
(191,614,o),
(229,668,o),
(293,668,cs),
(375,668,o),
(386,588,o),
(366,514,c),
(431,514,l),
(458,615,o),
(431,730,o),
(302,730,cs),
(199,730,o),
(120,648,o),
(120,537,cs),
(120,476,o),
(145,430,o),
(179,389,cs),
(251,302,ls),
(280,267,o),
(292,234,o),
(292,190,cs),
(292,102,o),
(247,52,o),
(180,52,cs),
(80,52,o),
(72,156,o),
(91,230,c),
(26,230,l),
(-1,116,o),
(34,-9,o),
(179,-9,cs)
);
}
);
width = 414;
},
{
anchors = (
{
name = bottom;
pos = (183,0);
},
{
name = top;
pos = (336,720);
}
);
background = {
shapes = (
{
closed = 1;
nodes = (
(298,-10,o),
(390,60,o),
(415,181,cs),
(432,261,o),
(417,331,o),
(349,394,cs),
(288,450,ls),
(251,484,o),
(235,515,o),
(244,557,cs),
(253,599,o),
(280,620,o),
(312,620,cs),
(351,620,o),
(366,588,o),
(350,514,c),
(480,514,l),
(510,655,o),
(461,730,o),
(338,730,cs),
(220,730,o),
(134,661,o),
(109,541,cs),
(92,460,o),
(111,393,o),
(174,335,cs),
(236,279,ls),
(277,243,o),
(289,205,o),
(280,167,cs),
(271,124,o),
(241,100,o),
(205,100,cs),
(155,100,o),
(134,145,o),
(152,230,c),
(19,230,l),
(-13,79,o),
(39,-10,o),
(176,-10,cs)
);
}
);
};
layerId = m006;
shapes = (
{
closed = 1;
nodes = (
(340,-10,o),
(412,95,o),
(412,200,cs),
(412,273,o),
(389,331,o),
(341,385,cs),
(284,448,ls),
(256,478,o),
(244,504,o),
(244,538,cs),
(244,569,o),
(261,618,o),
(308,618,cs),
(365,618,o),
(359,554,o),
(350,514,c),
(478,514,l),
(505,619,o),
(465,728,o),
(321,728,cs),
(175,728,o),
(108,622,o),
(108,511,cs),
(108,449,o),
(134,392,o),
(180,343,cs),
(238,280,ls),
(268,248,o),
(276,216,o),
(276,187,cs),
(276,142,o),
(251,100,o),
(208,100,cs),
(139,100,o),
(136,181,o),
(149,230,c),
(18,230,l),
(-13,109,o),
(37,-10,o),
(193,-10,cs)
);
}
);
width = 454;
},
{
anchors = (
{
name = bottom;
pos = (269,0);
},
{
name = top;
pos = (395,720);
}
);
background = {
shapes = (
{
closed = 1;
nodes = (
(453,-9,o),
(548,71,o),
(548,194,cs),
(548,275,o),
(506,333,o),
(417,377,cs),
(300,435,ls),
(236,467,o),
(210,499,o),
(210,547,cs),
(210,620,o),
(266,662,o),
(362,662,cs),
(466,662,o),
(520,612,o),
(524,514,c),
(603,514,l),
(598,654,o),
(512,734,o),
(369,734,cs),
(227,734,o),
(130,653,o),
(130,535,cs),
(130,458,o),
(172,406,o),
(271,357,cs),
(381,302,ls),
(442,272,o),
(468,237,o),
(468,185,cs),
(468,107,o),
(410,63,o),
(309,63,cs),
(191,63,o),
(119,127,o),
(117,233,c),
(37,233,l),
(38,87,o),
(144,-9,o),
(306,-9,cs)
);
}
);
};
layerId = m007;
shapes = (
{
closed = 1;
nodes = (
(452,-9,o),
(547,74,o),
(547,198,cs),
(547,279,o),
(506,334,o),
(420,377,cs),
(304,435,ls),
(241,466,o),
(216,498,o),
(216,544,cs),
(216,619,o),
(273,662,o),
(370,662,cs),
(474,662,o),
(527,612,o),
(529,514,c),
(608,514,l),
(605,654,o),
(521,734,o),
(378,734,cs),
(235,734,o),
(135,652,o),
(135,533,cs),
(135,457,o),
(176,406,o),
(273,357,cs),
(382,302,ls),
(441,272,o),
(467,239,o),
(467,187,cs),
(467,109,o),
(409,63,o),
(308,63,cs),
(188,63,o),
(117,127,o),
(117,233,c),
(37,233,l),
(36,87,o),
(140,-9,o),
(302,-9,cs)
);
}
);
width = 608;
},
{
anchors = (
{
name = bottom;
pos = (295,0);
},
{
name = top;
pos = (418,720);
}
);
background = {
shapes = (
{
closed = 1;
nodes = (
(469,-9,o),
(591,71,o),
(622,215,cs),
(643,317,o),
(599,383,o),
(467,422,cs),
(341,459,ls),
(273,479,o),
(263,508,o),
(270,543,cs),
(280,588,o),
(330,617,o),
(400,617,cs),
(480,617,o),
(527,584,o),
(525,514,c),
(673,514,l),
(688,645,o),
(601,731,o),
(433,731,cs),
(269,731,o),
(145,650,o),
(118,520,cs),
(96,418,o),
(142,352,o),
(272,314,cs),
(398,277,ls),
(459,259,o),
(477,232,o),
(468,186,cs),
(457,136,o),
(404,105,o),
(321,105,cs),
(219,105,o),
(160,153,o),
(167,230,c),
(19,230,l),
(6,78,o),
(103,-9,o),
(290,-9,cs)
);
}
);
};
layerId = m008;
shapes = (
{
closed = 1;
nodes = (
(504,-9,o),
(616,81,o),
(616,225,cs),
(616,315,o),
(570,368,o),
(451,415,cs),
(337,460,ls),
(285,480,o),
(263,504,o),
(263,538,cs),
(263,589,o),
(309,617,o),
(381,617,cs),
(464,617,o),
(519,575,o),
(518,514,c),
(666,514,l),
(668,643,o),
(558,731,o),
(395,731,cs),
(226,731,o),
(115,643,o),
(115,507,cs),
(115,422,o),
(162,366,o),
(268,325,cs),
(392,277,ls),
(444,257,o),
(467,232,o),
(467,193,cs),
(467,137,o),
(421,105,o),
(338,105,cs),
(236,105,o),
(165,157,o),
(166,230,c),
(18,230,l),
(16,92,o),
(147,-9,o),
(329,-9,cs)
);
}
);
width = 652;
}
);
unicode = 83;
userData = {
KernOnName = S;
};
},
{
glyphname = Germandbls;
lastChange = "2023-02-07 19:05:53 +0000";
layers = (
{
background = {
shapes = (
{
closed = 1;
nodes = (
(331,-9,o),
(404,67,o),
(427,175,cs),
(446,264,o),
(413,357,o),
(323,429,c),
(323,371,l),
(524,631,l),
(491,698,o),
(434,731,o),
(356,731,cs),
(235,731,o),
(151,653,o),
(121,514,cs),
(12,0,l),
(82,0,l),
(191,514,ls),
(214,620,o),
(267,669,o),
(341,669,cs),
(392,669,o),
(433,645,o),
(456,589,c),
(457,645,l),
(253,381,l),
(277,361,ls),
(345,303,o),
(368,237,o),
(355,176,cs),
(339,100,o),
(296,53,o),
(221,53,cs),
(196,53,o),
(168,57,o),
(149,63,c),
(136,0,l),
(157,-6,o),
(188,-9,o),
(212,-9,cs)
);
}
);
};
layerId = m005;
shapes = (
{
closed = 1;
nodes = (
(347,-10,o),
(431,82,o),
(431,206,cs),
(431,285,o),
(396,361,o),
(318,425,c),
(328,366,l),
(528,610,l),
(494,688,o),
(431,731,o),
(345,731,cs),
(236,731,o),
(164,663,o),
(134,533,cs),
(12,0,l),
(82,0,l),
(203,526,ls),
(225,621,o),
(270,669,o),
(338,669,cs),
(397,669,o),
(439,634,o),
(461,574,c),
(461,632,l),
(260,385,l),
(283,361,ls),
(335,308,o),
(358,255,o),
(358,200,cs),
(358,116,o),
(307,52,o),
(238,52,cs),
(210,52,o),
(174,61,o),
(152,71,c),
(138,9,l),
(165,-2,o),
(204,-10,o),
(239,-10,cs)
);
}
);
width = 479;
},
{
background = {
shapes = (
{
closed = 1;
nodes = (
(352,-9,o),
(444,67,o),
(467,175,cs),
(490,284,o),
(445,367,o),
(350,439,c),
(380,371,l),
(564,631,l),
(524,698,o),
(456,731,o),
(366,731,cs),
(226,731,o),
(131,653,o),
(101,514,cs),
(-8,0,l),
(134,0,l),
(245,524,ls),
(260,592,o),
(296,621,o),
(346,621,cs),
(395,621,o),
(415,597,o),
(426,571,c),
(437,640,l),
(237,358,l),
(263,336,ls),
(322,287,o),
(342,245,o),
(329,185,cs),
(318,132,o),
(283,101,o),
(242,101,cs),
(221,101,o),
(207,103,o),
(195,106,c),
(172,0,l),
(186,-6,o),
(206,-9,o),
(234,-9,cs)
);
}
);
};
guides = (
{
angle = 90;
pos = (430,407);
}
);
layerId = m006;
shapes = (
{
closed = 1;
nodes = (
(378,-11,o),
(472,80,o),
(472,208,cs),
(472,290,o),
(436,361,o),
(357,434,c),
(384,362,l),
(570,607,l),
(529,685,o),
(446,731,o),
(344,731,cs),
(223,731,o),
(144,663,o),
(115,536,cs),
(-8,0,l),
(134,0,l),
(256,531,ls),
(270,592,o),
(298,621,o),
(347,621,cs),
(389,621,o),
(418,599,o),
(433,560,c),
(445,629,l),
(243,363,l),
(269,338,ls),
(316,292,o),
(332,254,o),
(332,211,cs),
(332,145,o),
(295,101,o),
(244,101,cs),
(225,101,o),
(208,105,o),
(197,111,c),
(173,6,l),
(195,-5,o),
(221,-11,o),
(253,-11,cs)
);
}
);
width = 512;
},
{
background = {
shapes = (
{
closed = 1;
nodes = (
(554,-14,o),
(649,70,o),
(649,195,cs),
(649,294,o),
(589,367,o),
(459,424,c),
(475,363,l),
(734,593,l),
(663,686,o),
(568,731,o),
(445,731,cs),
(269,731,o),
(164,643,o),
(126,464,cs),
(28,0,l),
(110,0,l),
(207,456,ls),
(236,593,o),
(311,659,o),
(435,659,cs),
(527,659,o),
(604,624,o),
(643,564,c),
(658,622,l),
(380,376,l),
(403,366,ls),
(525,313,o),
(567,268,o),
(567,195,cs),
(567,111,o),
(508,58,o),
(412,58,cs),
(354,58,o),
(283,76,o),
(242,100,c),
(226,23,l),
(264,2,o),
(343,-14,o),
(410,-14,cs)
);
}
);
};
guides = (
{
angle = 90;
pos = (613,0);
}
);
layerId = m007;
shapes = (
{
closed = 1;
nodes = (
(556,-14,o),
(652,72,o),
(652,200,cs),
(652,296,o),
(593,368,o),
(466,424,c),
(481,363,l),
(744,593,l),
(675,686,o),
(581,731,o),
(458,731,cs),
(282,731,o),
(175,643,o),
(134,464,cs),
(28,0,l),
(110,0,l),
(215,456,ls),
(246,593,o),
(323,659,o),
(447,659,cs),
(539,659,o),
(615,624,o),
(653,564,c),
(669,622,l),
(387,376,l),
(409,366,ls),
(527,314,o),
(570,270,o),
(570,200,cs),
(570,113,o),
(511,58,o),
(413,58,cs),
(355,58,o),
(284,76,o),
(244,100,c),
(226,23,l),
(264,2,o),
(343,-14,o),
(410,-14,cs)
);
}
);
width = 713;
},
{
background = {
shapes = (
{
closed = 1;
nodes = (
(528,-9,o),
(652,71,o),
(680,202,cs),
(705,319,o),
(645,391,o),
(477,449,c),
(523,381,l),
(761,620,l),
(695,694,o),
(600,731,o),
(476,731,cs),
(262,731,o),
(124,622,o),
(81,420,cs),
(-8,0,l),
(146,0,l),
(239,436,ls),
(263,549,o),
(334,611,o),
(441,611,cs),
(501,611,o),
(544,593,o),
(570,557,c),
(606,630,l),
(351,366,l),
(394,353,ls),
(502,320,o),
(541,280,o),
(526,213,cs),
(511,142,o),
(460,111,o),
(363,111,cs),
(319,111,o),
(286,117,o),
(251,133,c),
(225,9,l),
(264,-3,o),
(308,-9,o),
(354,-9,cs)
);
}
);
};
layerId = m008;
shapes = (
{
closed = 1;
nodes = (
(564,-9,o),
(682,86,o),
(682,217,cs),
(682,309,o),
(627,374,o),
(486,441,c),
(528,368,l),
(766,586,l),
(697,678,o),
(576,731,o),
(436,731,cs),
(254,731,o),
(139,638,o),
(96,453,cs),
(-8,0,l),
(146,0,l),
(251,453,ls),
(275,558,o),
(336,611,o),
(433,611,cs),
(498,611,o),
(550,586,o),
(578,542,c),
(615,612,l),
(359,370,l),
(401,353,ls),
(488,318,o),
(526,277,o),
(526,218,cs),
(526,150,o),
(479,111,o),
(397,111,cs),
(353,111,o),
(294,124,o),
(257,141,c),
(229,25,l),
(279,4,o),
(346,-9,o),
(405,-9,cs)
);
}
);
width = 718;
}
);
metricLeft = H;
metricRight = S;
unicode = 7838;
},
{
glyphname = T;
kernLeft = KO_T;
kernRight = KO_T;
lastChange = "2023-02-07 19:08:37 +0000";
layers = (
{
anchors = (
{
name = bottom;
pos = (148,0);
},
{
name = center;
pos = (234,376);
},
{
name = top;
pos = (314,720);
}
);
background = {
shapes = (
{
pos = (-97,0);
ref = H;
}
);
};
layerId = m005;
shapes = (
{
closed = 1;
nodes = (
(183,0,l),
(334,658,l),
(487,658,l),
(502,720,l),
(127,720,l),
(112,658,l),
(264,658,l),
(113,0,l)
);
}
);
width = 414;
},
{
anchors = (
{
name = bottom;
pos = (156,0);
},
{
name = center;
pos = (243,377);
},
{
name = top;
pos = (322,720);
}
);
background = {
shapes = (
{
closed = 1;
nodes = (
(286,0,l),
(286,600,l),
(420,600,l),
(420,720,l),
(10,720,l),
(10,600,l),
(144,600,l),
(144,0,l)
);
}
);
};
layerId = m006;
shapes = (
{
closed = 1;
nodes = (
(226,0,l),
(367,610,l),
(501,610,l),
(527,720,l),
(117,720,l),
(92,610,l),
(225,610,l),
(84,0,l)
);
}
);
width = 430;
},
{
anchors = (
{
name = bottom;
pos = (265,0);
},
{
name = center;
pos = (352,377);
},
{
name = top;
pos = (431,720);
}
);
background = {
shapes = (
{
pos = (-44,0);
ref = H;
}
);
};
layerId = m007;
shapes = (
{
closed = 1;
nodes = (
(306,0,l),
(455,648,l),
(703,648,l),
(720,720,l),
(143,720,l),
(126,648,l),
(373,648,l),
(224,0,l)
);
}
);
width = 648;
},
{
anchors = (
{
name = bottom;
pos = (277,0);
},
{
name = center;
pos = (364,378);
},
{
name = top;
pos = (443,720);
}
);
background = {
shapes = (
{
closed = 1;
nodes = (
(413,0,l),
(413,592,l),
(648,592,l),
(648,720,l),
(24,720,l),
(24,592,l),
(259,592,l),
(259,0,l)
);
}
);
};
layerId = m008;
shapes = (
{
closed = 1;
nodes = (
(354,0,l),
(493,602,l),
(728,602,l),
(755,720,l),
(131,720,l),
(104,602,l),
(339,602,l),
(200,0,l)
);
}
);
width = 672;
}
);
metricRight = "=|";
unicode = 84;
userData = {
KernOnName = T;
};
},
{
glyphname = U;
kernLeft = KO_U;
kernRight = KO_U;
lastChange = "2023-02-07 19:09:51 +0000";
layers = (
{
anchors = (
{
name = bottom;
pos = (179,0);
},
{
name = ogonek;
pos = (286,20);
},
{
name = top;
pos = (345,720);
},
{
name = topright;
pos = (563,720);
}
);
background = {
shapes = (
{
closed = 1;
nodes = (
(294,-10,o),
(372,66,o),
(398,188,cs),
(511,720,l),
(441,720,l),
(327,182,ls),
(308,93,o),
(260,54,o),
(195,54,cs),
(130,54,o),
(100,93,o),
(119,183,cs),
(233,720,l),
(163,720,l),
(50,189,ls),
(24,66,o),
(70,-10,o),
(182,-10,cs)
);
}
);
};
layerId = m005;
shapes = (
{
closed = 1;
nodes = (
(300,-9,o),
(365,54,o),
(392,171,cs),
(519,720,l),
(449,720,l),
(322,172,ls),
(304,92,o),
(269,55,o),
(204,55,cs),
(130,55,o),
(101,105,o),
(121,195,cs),
(241,720,l),
(171,720,l),
(54,208,ls),
(24,78,o),
(81,-9,o),
(198,-9,cs)
);
}
);
width = 476;
},
{
anchors = (
{
name = bottom;
pos = (190,0);
},
{
name = ogonek;
pos = (311,20);
},
{
name = top;
pos = (356,720);
},
{
name = topright;
pos = (585,720);
}
);
background = {
shapes = (
{
closed = 1;
nodes = (
(326,-10,o),
(414,73,o),
(442,207,cs),
(551,720,l),
(409,720,l),
(293,174,ls),
(283,126,o),
(255,102,o),
(217,102,cs),
(179,102,o),
(161,126,o),
(171,174,cs),
(287,720,l),
(145,720,l),
(36,207,ls),
(8,73,o),
(60,-10,o),
(193,-10,cs)
);
}
);
};
layerId = m006;
shapes = (
{
closed = 1;
nodes = (
(331,-10,o),
(407,58,o),
(436,187,cs),
(559,720,l),
(417,720,l),
(290,169,ls),
(280,125,o),
(257,103,o),
(221,103,cs),
(180,103,o),
(160,134,o),
(171,181,cs),
(295,720,l),
(153,720,l),
(40,229,ls),
(7,86,o),
(78,-10,o),
(216,-10,cs)
);
}
);
width = 498;
},
{
anchors = (
{
name = bottom;
pos = (297,0);
},
{
name = ogonek;
pos = (438,20);
},
{
name = top;
pos = (463,720);
},
{
name = topright;
pos = (799,720);
}
);
background = {
shapes = (
{
closed = 1;
nodes = (
(474,-10,o),
(599,101,o),
(640,291,cs),
(731,720,l),
(649,720,l),
(557,288,ls),
(526,143,o),
(441,64,o),
(315,64,cs),
(191,64,o),
(139,144,o),
(169,288,cs),
(261,720,l),
(179,720,l),
(88,292,ls),
(47,101,o),
(125,-10,o),
(299,-10,cs)
);
}
);
};
layerId = m007;
shapes = (
{
closed = 1;
nodes = (
(488,-10,o),
(593,86,o),
(634,263,cs),
(739,720,l),
(657,720,l),
(553,268,ls),
(522,135,o),
(452,64,o),
(335,64,cs),
(180,64,o),
(142,172,o),
(174,309,cs),
(269,720,l),
(187,720,l),
(95,321,ls),
(49,120,o),
(141,-10,o),
(328,-10,cs)
);
}
);
width = 712;
},
{
anchors = (
{
name = bottom;
pos = (292,0);
},
{
name = ogonek;
pos = (451,20);
},
{
name = top;
pos = (458,720);
},
{
name = topright;
pos = (794,720);
}
);
background = {
anchors = (
{
name = bottom;
pos = (296,0);
},
{
name = ogonek;
pos = (455,20);
},
{
name = top;
pos = (449,720);
},
{
name = topright;
pos = (785,720);
}
);
shapes = (
{
closed = 1;
nodes = (
(499,-10,o),
(626,105,o),
(672,319,cs),
(757,720,l),
(603,720,l),
(512,293,ls),
(486,169,o),
(416,112,o),
(320,112,cs),
(224,112,o),
(178,169,o),
(204,294,cs),
(295,720,l),
(141,720,l),
(56,321,ls),
(10,105,o),
(88,-10,o),
(293,-10,cs)
);
}
);
};
layerId = m008;
shapes = (
{
closed = 1;
nodes = (
(512,-10,o),
(618,86,o),
(665,288,cs),
(765,720,l),
(611,720,l),
(508,278,ls),
(482,165,o),
(428,113,o),
(337,113,cs),
(220,113,o),
(182,188,o),
(210,311,cs),
(304,720,l),
(150,720,l),
(65,354,ls),
(12,127,o),
(113,-10,o),
(332,-10,cs)
);
}
);
width = 700;
}
);
unicode = 85;
userData = {
KernOnName = U;
};
},
{
glyphname = V;
kernLeft = KO_V;
kernRight = KO_V;
lastChange = "2023-02-07 19:10:56 +0000";
layers = (
{
background = {
shapes = (
{
closed = 1;
nodes = (
(215,0,l),
(523,720,l),
(457,720,l),
(177,52,l),
(189,52,l),
(193,720,l),
(123,720,l),
(125,0,l)
);
}
);
};
layerId = m005;
shapes = (
{
closed = 1;
nodes = (
(210,0,l),
(531,720,l),
(461,720,l),
(169,52,l),
(184,52,l),
(200,720,l),
(131,720,l),
(120,0,l)
);
}
);
width = 448;
},
{
background = {
shapes = (
{
closed = 1;
nodes = (
(283,0,l),
(577,720,l),
(444,720,l),
(215,99,l),
(220,99,l),
(254,720,l),
(111,720,l),
(99,0,l)
);
}
);
};
layerId = m006;
shapes = (
{
closed = 1;
nodes = (
(278,0,l),
(585,720,l),
(446,720,l),
(206,99,l),
(215,99,l),
(260,720,l),
(119,720,l),
(94,0,l)
);
}
);
width = 490;
},
{
background = {
shapes = (
{
closed = 1;
nodes = (
(360,0,l),
(791,720,l),
(708,720,l),
(306,36,l),
(336,36,l),
(223,720,l),
(135,720,l),
(260,0,l)
);
}
);
};
layerId = m007;
shapes = (
{
closed = 1;
nodes = (
(355,0,l),
(799,720,l),
(709,720,l),
(295,36,l),
(328,36,l),
(227,720,l),
(143,720,l),
(255,0,l)
);
}
);
width = 728;
},
{
background = {
shapes = (
{
closed = 1;
nodes = (
(400,0,l),
(811,720,l),
(659,720,l),
(334,120,l),
(353,120,l),
(283,720,l),
(123,720,l),
(228,0,l)
);
}
);
};
layerId = m008;
shapes = (
{
closed = 1;
nodes = (
(395,0,l),
(819,720,l),
(656,720,l),
(320,120,l),
(343,120,l),
(284,720,l),
(131,720,l),
(223,0,l)
);
}
);
width = 736;
}
);
unicode = 86;
userData = {
KernOnName = V;
};
},
{
glyphname = W;
kernLeft = KO_W;
kernRight = KO_W;
lastChange = "2023-02-07 19:14:24 +0000";
layers = (
{
anchors = (
{
name = bottom;
pos = (252,0);
},
{
name = top;
pos = (418,720);
}
);
background = {
shapes = (
{
closed = 1;
nodes = (
(172,0,l),
(392,618,l),
(384,618,l),
(342,0,l),
(432,0,l),
(687,720,l),
(621,720,l),
(400,81,l),
(408,81,l),
(457,720,l),
(367,720,l),
(144,81,l),
(152,81,l),
(203,720,l),
(133,720,l),
(82,0,l)
);
}
);
};
layerId = m005;
shapes = (
{
closed = 1;
nodes = (
(167,0,l),
(398,618,l),
(390,618,l),
(337,0,l),
(427,0,l),
(695,720,l),
(626,720,l),
(393,81,l),
(403,81,l),
(464,720,l),
(373,720,l),
(138,81,l),
(149,81,l),
(211,720,l),
(141,720,l),
(77,0,l)
);
}
);
width = 622;
},
{
anchors = (
{
name = bottom;
pos = (281,0);
},
{
name = top;
pos = (447,720);
}
);
background = {
shapes = (
{
closed = 1;
nodes = (
(228,0,l),
(447,692,l),
(419,692,l),
(343,0,l),
(517,0,l),
(756,720,l),
(628,720,l),
(425,34,l),
(443,34,l),
(513,720,l),
(369,720,l),
(147,34,l),
(165,34,l),
(254,720,l),
(121,720,l),
(54,0,l)
);
}
);
};
layerId = m006;
shapes = (
{
closed = 1;
nodes = (
(223,0,l),
(454,692,l),
(426,692,l),
(338,0,l),
(512,0,l),
(764,720,l),
(632,720,l),
(417,34,l),
(439,34,l),
(521,720,l),
(372,720,l),
(138,34,l),
(162,34,l),
(263,720,l),
(129,720,l),
(49,0,l)
);
}
);
width = 679;
},
{
anchors = (
{
name = bottom;
pos = (476,0);
},
{
name = top;
pos = (642,720);
}
);
background = {
shapes = (
{
closed = 1;
nodes = (
(299,0,l),
(624,645,l),
(612,645,l),
(662,0,l),
(762,0,l),
(1128,720,l),
(1049,720,l),
(718,55,l),
(733,55,l),
(686,720,l),
(586,720,l),
(258,55,l),
(273,55,l),
(223,720,l),
(139,720,l),
(199,0,l)
);
}
);
};
layerId = m007;
shapes = (
{
closed = 1;
nodes = (
(294,0,l),
(630,645,l),
(618,645,l),
(657,0,l),
(757,0,l),
(1136,720,l),
(1052,720,l),
(709,55,l),
(727,55,l),
(692,720,l),
(588,720,l),
(248,55,l),
(266,55,l),
(228,720,l),
(147,720,l),
(194,0,l)
);
}
);
width = 1069;
},
{
anchors = (
{
name = bottom;
pos = (484,0);
},
{
name = top;
pos = (650,720);
}
);
background = {
shapes = (
{
closed = 1;
nodes = (
(355,0,l),
(647,646,l),
(607,646,l),
(623,0,l),
(795,0,l),
(1151,720,l),
(1002,720,l),
(693,61,l),
(741,61,l),
(733,720,l),
(558,720,l),
(268,61,l),
(317,61,l),
(289,720,l),
(133,720,l),
(183,0,l)
);
}
);
};
layerId = m008;
shapes = (
{
closed = 1;
nodes = (
(350,0,l),
(654,646,l),
(614,646,l),
(618,0,l),
(790,0,l),
(1159,720,l),
(1001,720,l),
(680,61,l),
(734,61,l),
(738,720,l),
(559,720,l),
(257,61,l),
(308,61,l),
(292,720,l),
(141,720,l),
(178,0,l)
);
}
);
width = 1086;
}
);
unicode = 87;
userData = {
KernOnName = W;
};
},
{
glyphname = X;
kernLeft = KO_X;
kernRight = KO_X;
lastChange = "2023-02-07 19:14:48 +0000";
layers = (
{
background = {
shapes = (
{
closed = 1;
nodes = (
(369,0,l),
(279,416,l),
(214,720,l),
(140,720,l),
(221,343,l),
(295,0,l)
);
},
{
closed = 1;
nodes = (
(265,339,l),
(512,720,l),
(444,720,l),
(252,425,l)
);
},
{
closed = 1;
nodes = (
(242,425,l),
(-33,0,l),
(35,0,l),
(255,339,l)
);
}
);
};
layerId = m005;
shapes = (
{
closed = 1;
nodes = (
(364,0,l),
(279,416,l),
(218,720,l),
(148,720,l),
(224,345,l),
(294,0,l)
);
},
{
closed = 1;
nodes = (
(268,339,l),
(520,720,l),
(446,720,l),
(252,425,l)
);
},
{
closed = 1;
nodes = (
(242,425,l),
(-38,0,l),
(36,0,l),
(258,339,l)
);
}
);
width = 445;
},
{
background = {
shapes = (
{
closed = 1;
nodes = (
(409,0,l),
(319,427,l),
(270,720,l),
(120,720,l),
(205,320,l),
(259,0,l)
);
},
{
closed = 1;
nodes = (
(278,274,l),
(562,720,l),
(425,720,l),
(262,442,l)
);
},
{
closed = 1;
nodes = (
(237,443,l),
(-48,0,l),
(89,0,l),
(253,275,l)
);
}
);
};
layerId = m006;
shapes = (
{
closed = 1;
nodes = (
(404,0,l),
(316,427,l),
(273,720,l),
(128,720,l),
(211,320,l),
(259,0,l)
);
},
{
closed = 1;
nodes = (
(283,274,l),
(570,720,l),
(423,720,l),
(260,442,l)
);
},
{
closed = 1;
nodes = (
(235,443,l),
(-53,0,l),
(94,0,l),
(258,275,l)
);
}
);
width = 469;
},
{
background = {
shapes = (
{
closed = 1;
nodes = (
(594,0,l),
(401,401,l),
(248,720,l),
(152,720,l),
(336,337,l),
(498,0,l)
);
},
{
closed = 1;
nodes = (
(390,333,l),
(747,720,l),
(658,720,l),
(360,398,l)
);
},
{
closed = 1;
nodes = (
(347,394,l),
(-16,0,l),
(73,0,l),
(377,329,l)
);
}
);
};
layerId = m007;
shapes = (
{
closed = 1;
nodes = (
(589,0,l),
(398,401,l),
(251,720,l),
(160,720,l),
(343,337,l),
(498,0,l)
);
},
{
closed = 1;
nodes = (
(396,333,l),
(755,720,l),
(656,720,l),
(359,398,l)
);
},
{
closed = 1;
nodes = (
(344,394,l),
(-21,0,l),
(78,0,l),
(381,329,l)
);
}
);
width = 688;
},
{
background = {
shapes = (
{
closed = 1;
nodes = (
(642,0,l),
(442,423,l),
(318,720,l),
(138,720,l),
(330,315,l),
(462,0,l)
);
},
{
closed = 1;
nodes = (
(399,295,l),
(795,720,l),
(632,720,l),
(375,424,l)
);
},
{
closed = 1;
nodes = (
(358,420,l),
(-34,0,l),
(129,0,l),
(382,291,l)
);
}
);
};
layerId = m008;
shapes = (
{
closed = 1;
nodes = (
(637,0,l),
(438,423,l),
(316,720,l),
(146,720,l),
(337,315,l),
(467,0,l)
);
},
{
closed = 1;
nodes = (
(409,295,l),
(803,720,l),
(625,720,l),
(372,424,l)
);
},
{
closed = 1;
nodes = (
(350,420,l),
(-39,0,l),
(139,0,l),
(387,291,l)
);
}
);
width = 716;
}
);
unicode = 88;
userData = {
KernOnName = X;
};
},
{
glyphname = Y;
kernLeft = KO_Y;
kernRight = KO_Y;
lastChange = "2023-02-07 19:17:38 +0000";
layers = (
{
anchors = (
{
name = bottom;
pos = (167,0);
},
{
name = top;
pos = (333,720);
},
{
name = topleft;
pos = (127,720);
}
);
background = {
shapes = (
{
closed = 1;
nodes = (
(207,0,l),
(278,336,l),
(539,720,l),
(468,720,l),
(244,384,l),
(272,384,l),
(189,720,l),
(111,720,l),
(208,336,l),
(137,0,l)
);
}
);
};
layerId = m005;
shapes = (
{
closed = 1;
nodes = (
(202,0,l),
(279,336,l),
(547,720,l),
(469,720,l),
(239,384,l),
(269,384,l),
(192,720,l),
(119,720,l),
(209,336,l),
(132,0,l)
);
}
);
width = 452;
},
{
anchors = (
{
name = bottom;
pos = (194,0);
},
{
name = top;
pos = (360,720);
},
{
name = topleft;
pos = (127,720);
}
);
background = {
shapes = (
{
closed = 1;
nodes = (
(270,0,l),
(335,306,l),
(597,720,l),
(461,720,l),
(248,344,l),
(317,344,l),
(263,720,l),
(107,720,l),
(193,306,l),
(128,0,l)
);
}
);
};
layerId = m006;
shapes = (
{
closed = 1;
nodes = (
(265,0,l),
(335,306,l),
(605,720,l),
(459,720,l),
(239,344,l),
(311,344,l),
(264,720,l),
(115,720,l),
(193,306,l),
(123,0,l)
);
}
);
width = 506;
},
{
anchors = (
{
name = bottom;
pos = (279,0);
},
{
name = top;
pos = (445,720);
},
{
name = topleft;
pos = (127,720);
}
);
background = {
shapes = (
{
closed = 1;
nodes = (
(325,0,l),
(394,326,l),
(751,720,l),
(659,720,l),
(348,374,l),
(386,374,l),
(223,720,l),
(123,720,l),
(312,326,l),
(243,0,l)
);
}
);
};
layerId = m007;
shapes = (
{
closed = 1;
nodes = (
(320,0,l),
(395,326,l),
(759,720,l),
(658,720,l),
(341,374,l),
(380,374,l),
(223,720,l),
(131,720,l),
(313,326,l),
(238,0,l)
);
}
);
width = 676;
},
{
anchors = (
{
name = bottom;
pos = (297,0);
},
{
name = top;
pos = (463,720);
},
{
name = topleft;
pos = (127,720);
}
);
background = {
shapes = (
{
closed = 1;
nodes = (
(379,0,l),
(441,291,l),
(800,720,l),
(631,720,l),
(339,339,l),
(426,339,l),
(295,720,l),
(110,720,l),
(287,291,l),
(225,0,l)
);
}
);
};
layerId = m008;
shapes = (
{
closed = 1;
nodes = (
(374,0,l),
(441,291,l),
(808,720,l),
(624,720,l),
(325,339,l),
(414,339,l),
(290,720,l),
(118,720,l),
(287,291,l),
(220,0,l)
);
}
);
width = 712;
}
);
unicode = 89;
userData = {
KernOnName = Y;
};
},
{
glyphname = Z;
kernLeft = KO_Z;
kernRight = KO_Z;
lastChange = "2023-03-03 20:55:12 +0000";
layers = (
{
anchors = (
{
name = bottom;
pos = (167,0);
},
{
name = center;
pos = (250,360);
},
{
name = top;
pos = (333,720);
}
);
background = {
shapes = (
{
closed = 1;
nodes = (
(340,0,l),
(353,62,l),
(67,62,l),
(80,31,l),
(477,668,l),
(488,720,l),
(172,720,l),
(159,658,l),
(429,658,l),
(416,689,l),
(19,52,l),
(8,0,l)
);
}
);
};
layerId = m005;
shapes = (
{
closed = 1;
nodes = (
(335,0,l),
(349,62,l),
(63,62,l),
(82,31,l),
(484,668,l),
(496,720,l),
(180,720,l),
(165,658,l),
(435,658,l),
(417,689,l),
(15,52,l),
(3,0,l)
);
}
);
width = 452;
},
{
anchors = (
{
name = bottom;
pos = (168,0);
},
{
name = center;
pos = (251,360);
},
{
name = top;
pos = (334,720);
}
);
background = {
shapes = (
{
closed = 1;
nodes = (
(361,0,l),
(384,110,l),
(139,110,l),
(154,92,l),
(493,640,l),
(510,720,l),
(149,720,l),
(126,610,l),
(347,610,l),
(332,628,l),
(9,100,l),
(-12,0,l)
);
}
);
};
layerId = m006;
shapes = (
{
closed = 1;
nodes = (
(356,0,l),
(381,110,l),
(136,110,l),
(161,92,l),
(499,640,l),
(518,720,l),
(157,720,l),
(131,610,l),
(352,610,l),
(328,628,l),
(6,100,l),
(-17,0,l)
);
}
);
width = 453;
},
{
anchors = (
{
name = bottom;
pos = (253,0);
},
{
name = center;
pos = (336,360);
},
{
name = top;
pos = (419,720);
}
);
background = {
shapes = (
{
closed = 1;
nodes = (
(515,0,l),
(530,72,l),
(67,72,l),
(89,31,l),
(645,658,l),
(658,720,l),
(169,720,l),
(154,648,l),
(597,648,l),
(575,689,l),
(19,62,l),
(6,0,l)
);
}
);
};
layerId = m007;
shapes = (
{
closed = 1;
nodes = (
(510,0,l),
(527,72,l),
(64,72,l),
(94,31,l),
(651,658,l),
(666,720,l),
(177,720,l),
(160,648,l),
(603,648,l),
(573,689,l),
(15,62,l),
(1,0,l)
);
}
);
width = 623;
},
{
anchors = (
{
name = bottom;
pos = (259,0);
},
{
name = center;
pos = (342,360);
},
{
name = top;
pos = (425,720);
}
);
background = {
shapes = (
{
closed = 1;
nodes = (
(545,0,l),
(570,118,l),
(139,118,l),
(163,68,l),
(672,616,l),
(694,720,l),
(153,720,l),
(128,602,l),
(549,602,l),
(524,659,l),
(8,104,l),
(-14,0,l)
);
}
);
};
layerId = m008;
shapes = (
{
closed = 1;
nodes = (
(540,0,l),
(567,118,l),
(136,118,l),
(177,68,l),
(678,616,l),
(702,720,l),
(161,720,l),
(133,602,l),
(554,602,l),
(513,659,l),
(5,104,l),
(-19,0,l)
);
}
);
width = 635;
}
);
unicode = 90;
userData = {
KernOnName = Z;
};
},
{
color = 7;
glyphname = K.ss04;
kernLeft = KO_B;
kernRight = KO_K.ss08;
lastChange = "2023-02-07 19:19:59 +0000";
layers = (
{
anchors = (
{
name = bottom;
pos = (194,0);
},
{
name = top;
pos = (340,720);
}
);
background = {
shapes = (
{
closed = 1;
nodes = (
(86,0,l),
(239,720,l),
(169,720,l),
(16,0,l)
);
},
{
closed = 1;
nodes = (
(90,184,l),
(247,378,l),
(259,387,l),
(529,720,l),
(452,720,l),
(94,267,l)
);
},
{
closed = 1;
nodes = (
(396,0,l),
(279,423,l),
(210,404,l),
(313,0,l)
);
}
);
};
layerId = m005;
shapes = (
{
closed = 1;
nodes = (
(81,0,l),
(247,720,l),
(177,720,l),
(11,0,l)
);
},
{
closed = 1;
nodes = (
(88,184,l),
(249,378,l),
(261,387,l),
(537,720,l),
(452,720,l),
(86,267,l)
);
},
{
closed = 1;
nodes = (
(391,0,l),
(281,423,l),
(217,404,l),
(313,0,l)
);
}
);
width = 466;
},
{
anchors = (
{
name = bottom;
pos = (203,0);
},
{
name = top;
pos = (359,720);
}
);
background = {
shapes = (
{
closed = 1;
nodes = (
(138,0,l),
(291,720,l),
(149,720,l),
(-4,0,l)
);
},
{
closed = 1;
nodes = (
(142,184,l),
(289,378,l),
(317,387,l),
(581,720,l),
(434,720,l),
(96,267,l)
);
},
{
closed = 1;
nodes = (
(438,0,l),
(356,458,l),
(228,439,l),
(286,0,l)
);
}
);
};
layerId = m006;
shapes = (
{
closed = 1;
nodes = (
(133,0,l),
(299,720,l),
(157,720,l),
(-9,0,l)
);
},
{
closed = 1;
nodes = (
(140,184,l),
(291,378,l),
(319,387,l),
(589,720,l),
(428,720,l),
(81,267,l)
);
},
{
closed = 1;
nodes = (
(433,0,l),
(359,458,l),
(238,439,l),
(288,0,l)
);
}
);
width = 504;
},
{
anchors = (
{
name = bottom;
pos = (297,0);
},
{
name = top;
pos = (453,720);
}
);
background = {
shapes = (
{
closed = 1;
nodes = (
(114,0,l),
(267,720,l),
(185,720,l),
(32,0,l)
);
},
{
closed = 1;
nodes = (
(123,194,l),
(349,388,l),
(370,397,l),
(747,720,l),
(632,720,l),
(99,254,l)
);
},
{
closed = 1;
nodes = (
(614,0,l),
(388,414,l),
(293,414,l),
(510,0,l)
);
}
);
};
layerId = m007;
shapes = (
{
closed = 1;
nodes = (
(109,0,l),
(275,720,l),
(193,720,l),
(27,0,l)
);
},
{
closed = 1;
nodes = (
(122,194,l),
(351,388,l),
(372,397,l),
(755,720,l),
(634,720,l),
(92,254,l)
);
},
{
closed = 1;
nodes = (
(609,0,l),
(390,414,l),
(304,414,l),
(514,0,l)
);
}
);
width = 692;
},
{
anchors = (
{
name = bottom;
pos = (304,0);
},
{
name = top;
pos = (470,720);
}
);
background = {
shapes = (
{
closed = 1;
nodes = (
(150,0,l),
(303,720,l),
(149,720,l),
(-4,0,l)
);
},
{
closed = 1;
nodes = (
(132,132,l),
(343,327,l),
(368,334,l),
(783,720,l),
(589,720,l),
(170,324,l)
);
},
{
closed = 1;
nodes = (
(650,0,l),
(429,456,l),
(281,396,l),
(461,0,l)
);
}
);
};
layerId = m008;
shapes = (
{
closed = 1;
nodes = (
(145,0,l),
(311,720,l),
(157,720,l),
(-9,0,l)
);
},
{
closed = 1;
nodes = (
(129,132,l),
(343,327,l),
(369,334,l),
(791,720,l),
(576,720,l),
(150,324,l)
);
},
{
closed = 1;
nodes = (
(645,0,l),
(432,456,l),
(299,396,l),
(472,0,l)
);
}
);
width = 722;
}
);
},
{
color = 4;
glyphname = R.ss05;
kernRight = KO_R;
lastChange = "2023-02-07 19:21:46 +0000";
layers = (
{
anchors = (
{
name = bottom;
pos = (161,0);
},
{
name = top;
pos = (327,720);
}
);
background = {
shapes = (
{
closed = 1;
nodes = (
(86,0,l),
(226,658,l),
(290,658,ls),
(368,658,o),
(401,605,o),
(384,525,cs),
(366,443,o),
(305,379,o),
(231,379,cs),
(145,379,l),
(132,321,l),
(225,321,ls),
(289,321,o),
(320,282,o),
(303,201,cs),
(260,0,l),
(330,0,l),
(375,214,ls),
(393,295,o),
(373,349,o),
(278,365,c),
(283,344,l),
(369,372,o),
(435,436,o),
(454,529,cs),
(478,639,o),
(427,720,o),
(305,720,cs),
(169,720,l),
(16,0,l)
);
}
);
};
layerId = m005;
shapes = (
{
closed = 1;
nodes = (
(81,0,l),
(232,658,l),
(295,658,ls),
(358,658,o),
(391,612,o),
(391,553,cs),
(391,471,o),
(331,379,o),
(246,379,cs),
(147,379,l),
(133,321,l),
(226,321,ls),
(310,321,o),
(312,256,o),
(299,199,cs),
(254,0,l),
(324,0,l),
(367,186,ls),
(385,264,o),
(381,338,o),
(278,357,c),
(283,335,l),
(397,358,o),
(461,463,o),
(461,565,cs),
(461,655,o),
(412,720,o),
(312,720,cs),
(177,720,l),
(11,0,l)
);
}
);
width = 430;
},
{
anchors = (
{
name = bottom;
pos = (175,0);
},
{
name = top;
pos = (341,720);
}
);
background = {
shapes = (
{
closed = 1;
nodes = (
(138,0,l),
(269,616,l),
(305,616,ls),
(347,616,o),
(365,581,o),
(351,514,cs),
(337,446,o),
(303,411,o),
(261,411,cs),
(193,411,l),
(170,299,l),
(233,299,ls),
(271,299,o),
(289,276,o),
(279,229,cs),
(230,0,l),
(372,0,l),
(422,234,ls),
(439,315,o),
(419,369,o),
(324,385,c),
(303,334,l),
(409,362,o),
(475,426,o),
(495,524,cs),
(518,629,o),
(475,720,o),
(347,720,cs),
(149,720,l),
(-4,0,l)
);
}
);
};
layerId = m006;
shapes = (
{
closed = 1;
nodes = (
(133,0,l),
(276,616,l),
(310,616,ls),
(342,616,o),
(360,593,o),
(360,545,cs),
(360,493,o),
(336,411,o),
(263,411,cs),
(195,411,l),
(170,299,l),
(233,299,ls),
(283,299,o),
(285,256,o),
(277,225,cs),
(225,0,l),
(367,0,l),
(419,225,ls),
(437,303,o),
(422,360,o),
(324,368,c),
(303,339,l),
(442,361,o),
(503,464,o),
(503,562,cs),
(503,649,o),
(458,720,o),
(344,720,cs),
(157,720,l),
(-9,0,l)
);
}
);
width = 466;
},
{
anchors = (
{
name = bottom;
pos = (277,0);
},
{
name = top;
pos = (433,720);
}
);
background = {
shapes = (
{
closed = 1;
nodes = (
(114,0,l),
(252,648,l),
(433,648,ls),
(538,648,o),
(586,602,o),
(569,520,cs),
(551,437,o),
(481,389,o),
(378,389,cs),
(175,389,l),
(160,321,l),
(371,321,ls),
(462,321,o),
(504,274,o),
(486,188,cs),
(446,0,l),
(528,0,l),
(571,204,ls),
(593,305,o),
(542,365,o),
(435,362,c),
(419,335,l),
(554,363,o),
(630,425,o),
(651,524,cs),
(677,644,o),
(600,720,o),
(451,720,cs),
(185,720,l),
(32,0,l)
);
}
);
};
layerId = m007;
shapes = (
{
closed = 1;
nodes = (
(109,0,l),
(258,648,l),
(439,648,ls),
(522,648,o),
(574,605,o),
(574,535,cs),
(574,451,o),
(506,389,o),
(412,389,cs),
(177,389,l),
(161,321,l),
(372,321,ls),
(473,321,o),
(498,247,o),
(482,178,cs),
(441,0,l),
(523,0,l),
(567,193,ls),
(584,272,o),
(557,349,o),
(435,358,c),
(430,332,l),
(565,347,o),
(657,434,o),
(657,550,cs),
(657,657,o),
(584,720,o),
(458,720,cs),
(193,720,l),
(27,0,l)
);
}
);
width = 648;
},
{
anchors = (
{
name = bottom;
pos = (277,0);
},
{
name = top;
pos = (438,720);
}
);
background = {
shapes = (
{
closed = 1;
nodes = (
(150,0,l),
(278,602,l),
(436,602,ls),
(510,602,o),
(543,569,o),
(530,506,cs),
(516,444,o),
(468,409,o),
(395,409,cs),
(143,409,l),
(119,296,l),
(350,296,ls),
(434,296,o),
(464,254,o),
(445,163,cs),
(410,0,l),
(564,0,l),
(607,204,ls),
(629,307,o),
(576,365,o),
(461,362,c),
(455,335,l),
(591,361,o),
(665,420,o),
(687,520,cs),
(713,645,o),
(636,720,o),
(481,720,cs),
(149,720,l),
(-4,0,l)
);
}
);
};
layerId = m008;
shapes = (
{
closed = 1;
nodes = (
(145,0,l),
(284,602,l),
(443,602,ls),
(502,602,o),
(536,571,o),
(536,518,cs),
(536,454,o),
(488,409,o),
(420,409,cs),
(145,409,l),
(119,296,l),
(351,296,ls),
(448,296,o),
(460,229,o),
(443,159,cs),
(406,0,l),
(560,0,l),
(603,191,ls),
(623,285,o),
(590,353,o),
(462,363,c),
(457,336,l),
(602,348,o),
(693,428,o),
(693,547,cs),
(693,657,o),
(619,720,o),
(489,720,cs),
(157,720,l),
(-9,0,l)
);
}
);
width = 663;
}
);
userData = {
KernOnName = R;
KernOnSpecialSpacing = {
L = NoKerning;
};
};
},
{
color = 5;
glyphname = M.ss06;
kernLeft = KO_M.ss06;
kernRight = KO_M.ss06;
lastChange = "2023-02-07 19:22:19 +0000";
layers = (
{
background = {
shapes = (
{
closed = 1;
nodes = (
(59,0,l),
(216,622,l),
(208,621,l),
(218,0,l),
(312,0,l),
(586,621,l),
(578,622,l),
(471,0,l),
(541,0,l),
(664,720,l),
(569,720,l),
(271,44,l),
(285,44,l),
(274,720,l),
(179,720,l),
(-4,0,l)
);
}
);
};
layerId = m005;
shapes = (
{
closed = 1;
nodes = (
(56,0,l),
(224,622,l),
(215,621,l),
(214,0,l),
(307,0,l),
(592,621,l),
(583,622,l),
(465,0,l),
(536,0,l),
(672,720,l),
(574,720,l),
(264,44,l),
(281,44,l),
(282,720,l),
(187,720,l),
(-9,0,l)
);
}
);
width = 645;
},
{
background = {
shapes = (
{
closed = 1;
nodes = (
(108,0,l),
(278,642,l),
(233,641,l),
(224,0,l),
(328,0,l),
(591,641,l),
(545,642,l),
(444,0,l),
(582,0,l),
(681,720,l),
(535,720,l),
(261,44,l),
(318,44,l),
(330,720,l),
(184,720,l),
(-22,0,l)
);
}
);
};
layerId = m006;
shapes = (
{
closed = 1;
nodes = (
(107,0,l),
(288,642,l),
(241,641,l),
(221,0,l),
(327,0,l),
(601,641,l),
(555,642,l),
(443,0,l),
(577,0,l),
(689,720,l),
(542,720,l),
(256,44,l),
(314,44,l),
(338,720,l),
(192,720,l),
(-27,0,l)
);
}
);
width = 668;
},
{
background = {
shapes = (
{
closed = 1;
nodes = (
(87,0,l),
(300,671,l),
(276,671,l),
(327,0,l),
(445,0,l),
(784,677,l),
(758,677,l),
(685,0,l),
(766,0,l),
(847,720,l),
(731,720,l),
(382,26,l),
(407,26,l),
(351,720,l),
(236,720,l),
(12,0,l)
);
}
);
};
layerId = m007;
shapes = (
{
closed = 1;
nodes = (
(85,0,l),
(310,671,l),
(286,671,l),
(325,0,l),
(440,0,l),
(791,677,l),
(765,677,l),
(680,0,l),
(761,0,l),
(855,720,l),
(733,720,l),
(371,26,l),
(402,26,l),
(359,720,l),
(244,720,l),
(7,0,l)
);
}
);
width = 886;
},
{
background = {
shapes = (
{
closed = 1;
nodes = (
(122,0,l),
(340,691,l),
(286,691,l),
(300,0,l),
(459,0,l),
(770,697,l),
(714,697,l),
(638,0,l),
(790,0,l),
(865,720,l),
(670,720,l),
(342,6,l),
(425,6,l),
(400,720,l),
(206,720,l),
(-24,0,l)
);
}
);
};
layerId = m008;
shapes = (
{
closed = 1;
nodes = (
(123,0,l),
(353,691,l),
(296,691,l),
(298,0,l),
(459,0,l),
(782,697,l),
(721,697,l),
(633,0,l),
(785,0,l),
(873,720,l),
(676,720,l),
(335,6,l),
(420,6,l),
(408,720,l),
(214,720,l),
(-29,0,l)
);
}
);
width = 874;
}
);
},
{
color = 6;
glyphname = G.ss07;
kernLeft = KO_O;
kernRight = KO_G.ss07;
lastChange = "2023-03-04 15:39:05 +0000";
layers = (
{
anchors = (
{
name = bottom;
pos = (195,0);
},
{
name = top;
pos = (338,720);
}
);
background = {
shapes = (
{
closed = 1;
nodes = (
(309,-10,o),
(392,86,o),
(449,355,c),
(381,355,l),
(332,120,o),
(282,54,o),
(196,54,cs),
(111,54,o),
(87,161,o),
(128,355,cs),
(171,560,o),
(240,666,o),
(332,666,cs),
(402,666,o),
(425,603,o),
(399,481,c),
(469,481,l),
(502,635,o),
(454,730,o),
(344,730,cs),
(211,730,o),
(106,593,o),
(55,352,cs),
(8,127,o),
(54,-10,o),
(181,-10,cs)
);
},
{
closed = 1;
nodes = (
(449,355,l),
(453,375,l),
(278,375,l),
(265,313,l),
(401,313,l)
);
}
);
};
guides = (
{
pos = (355,730);
},
{
angle = 90;
pos = (446,530);
}
);
layerId = m005;
shapes = (
{
closed = 1;
nodes = (
(320,-10,o),
(393,84,o),
(454,355,c),
(387,363,l),
(334,122,o),
(282,54,o),
(206,54,cs),
(141,54,o),
(115,106,o),
(115,194,cs),
(115,323,o),
(178,664,o),
(337,664,cs),
(427,664,o),
(427,559,o),
(408,481,c),
(477,481,l),
(504,593,o),
(477,728,o),
(343,728,cs),
(128,728,o),
(46,363,o),
(46,197,cs),
(46,68,o),
(95,-10,o),
(202,-10,cs)
);
},
{
closed = 1;
nodes = (
(454,355,l),
(459,375,l),
(284,375,l),
(269,313,l),
(405,313,l)
);
}
);
width = 471;
},
{
anchors = (
{
name = bottom;
pos = (225,0);
},
{
name = top;
pos = (358,720);
}
);
background = {
shapes = (
{
closed = 1;
nodes = (
(355,-10,o),
(448,99,o),
(499,343,c),
(358,343,l),
(320,161,o),
(292,102,o),
(233,102,cs),
(166,102,o),
(153,175,o),
(193,364,cs),
(232,551,o),
(279,618,o),
(337,618,cs),
(388,618,o),
(395,562,o),
(375,467,c),
(515,467,l),
(548,624,o),
(500,730,o),
(364,730,cs),
(214,730,o),
(98,600,o),
(48,360,cs),
(-2,121,o),
(51,-10,o),
(209,-10,cs)
);
}
);
};
guides = (
{
pos = (379,730);
},
{
angle = 90;
pos = (470,530);
}
);
layerId = m006;
shapes = (
{
closed = 1;
nodes = (
(367,-10,o),
(452,108,o),
(505,343,c),
(366,358,l),
(327,176,o),
(293,102,o),
(234,102,cs),
(197,102,o),
(177,134,o),
(177,195,cs),
(177,282,o),
(228,618,o),
(348,618,cs),
(413,618,o),
(397,523,o),
(385,467,c),
(523,467,l),
(547,581,o),
(518,730,o),
(360,730,cs),
(122,730,o),
(40,386,o),
(40,221,cs),
(40,70,o),
(105,-10,o),
(222,-10,cs)
);
},
{
closed = 1;
nodes = (
(505,343,l),
(515,385,l),
(289,385,l),
(264,275,l),
(450,275,l)
);
}
);
width = 515;
},
{
anchors = (
{
name = bottom;
pos = (373,0);
},
{
name = top;
pos = (466,720);
}
);
background = {
shapes = (
{
closed = 1;
nodes = (
(514,-10,o),
(678,99,o),
(726,326,c),
(648,326,l),
(608,136,o),
(488,64,o),
(359,64,cs),
(188,64,o),
(115,184,o),
(151,357,cs),
(189,535,o),
(317,656,o),
(481,656,cs),
(613,656,o),
(671,578,o),
(667,494,c),
(749,494,l),
(756,622,o),
(666,730,o),
(495,730,cs),
(290,730,o),
(113,575,o),
(68,358,cs),
(23,145,o),
(129,-10,o),
(340,-10,cs)
);
},
{
closed = 1;
nodes = (
(726,326,l),
(735,370,l),
(441,370,l),
(426,298,l),
(659,298,l)
);
}
);
};
guides = (
{
pos = (381,730);
},
{
angle = 90;
pos = (472,530);
}
);
layerId = m007;
shapes = (
{
closed = 1;
nodes = (
(561,-10,o),
(684,107,o),
(731,326,c),
(654,335,l),
(617,155,o),
(528,64,o),
(385,64,cs),
(245,64,o),
(156,153,o),
(156,305,cs),
(156,496,o),
(294,654,o),
(464,654,cs),
(579,654,o),
(674,583,o),
(673,494,c),
(754,494,l),
(756,623,o),
(628,728,o),
(469,728,cs),
(252,728,o),
(72,532,o),
(72,300,cs),
(72,111,o),
(192,-10,o),
(378,-10,cs)
);
},
{
closed = 1;
nodes = (
(731,326,l),
(740,370,l),
(446,370,l),
(430,298,l),
(663,298,l)
);
}
);
width = 765;
},
{
anchors = (
{
name = bottom;
pos = (372,0);
},
{
name = top;
pos = (465,720);
}
);
background = {
shapes = (
{
closed = 1;
nodes = (
(553,-10,o),
(719,126,o),
(763,335,c),
(621,335,l),
(592,196,o),
(499,112,o),
(373,112,cs),
(237,112,o),
(173,209,o),
(205,362,cs),
(237,513,o),
(341,608,o),
(476,608,cs),
(569,608,o),
(630,559,o),
(632,482,c),
(782,482,l),
(790,627,o),
(674,730,o),
(501,730,cs),
(280,730,o),
(95,577,o),
(49,361,cs),
(4,144,o),
(124,-10,o),
(344,-10,cs)
);
},
{
closed = 1;
nodes = (
(763,335,l),
(775,392,l),
(441,392,l),
(416,274,l),
(636,274,l)
);
}
);
};
guides = (
{
pos = (381,730);
}
);
layerId = m008;
shapes = (
{
closed = 1;
nodes = (
(580,-10,o),
(715,129,o),
(764,335,c),
(622,350,l),
(594,181,o),
(506,112,o),
(391,112,cs),
(279,112,o),
(209,186,o),
(209,304,cs),
(209,420,o),
(279,607,o),
(455,607,cs),
(558,607,o),
(631,547,o),
(629,482,c),
(777,482,l),
(780,620,o),
(634,729,o),
(460,729,cs),
(229,729,o),
(53,528,o),
(53,308,cs),
(53,110,o),
(196,-10,o),
(378,-10,cs)
);
},
{
closed = 1;
nodes = (
(764,335,l),
(777,392,l),
(443,392,l),
(416,274,l),
(636,274,l)
);
}
);
width = 776;
}
);
metricLeft = O;
metricRight = O;
},
{
color = 8;
glyphname = J.ss08;
kernLeft = KO_J.ss09;
kernRight = KO_U;
lastChange = "2023-02-04 15:39:26 +0000";
layers = (
{
background = {
shapes = (
{
closed = 1;
nodes = (
(255,-10,o),
(332,59,o),
(357,181,cs),
(472,720,l),
(402,720,l),
(286,175,ls),
(267,86,o),
(221,54,o),
(166,54,cs),
(109,54,o),
(78,88,o),
(99,186,c),
(31,186,l),
(3,56,o),
(51,-10,o),
(153,-10,cs)
);
}
);
};
layerId = m005;
shapes = (
{
closed = 1;
nodes = (
(260,-10,o),
(323,42,o),
(351,163,cs),
(480,720,l),
(410,720,l),
(284,175,ls),
(264,90,o),
(229,54,o),
(173,54,cs),
(109,54,o),
(81,103,o),
(97,186,c),
(30,186,l),
(5,81,o),
(58,-10,o),
(164,-10,cs)
);
}
);
width = 437;
},
{
background = {
shapes = (
{
closed = 1;
nodes = (
(298,-10,o),
(384,73,o),
(406,177,cs),
(521,720,l),
(379,720,l),
(263,174,ls),
(253,129,o),
(232,102,o),
(197,102,cs),
(162,102,o),
(143,126,o),
(159,201,c),
(21,201,l),
(-8,67,o),
(48,-10,o),
(173,-10,cs)
);
}
);
};
layerId = m006;
shapes = (
{
closed = 1;
nodes = (
(302,-10,o),
(376,54,o),
(400,157,cs),
(529,720,l),
(387,720,l),
(262,179,ls),
(250,126,o),
(229,102,o),
(195,102,cs),
(150,102,o),
(143,140,o),
(156,201,c),
(20,201,l),
(2,101,o),
(37,-10,o),
(188,-10,cs)
);
}
);
width = 469;
},
{
background = {
shapes = (
{
closed = 1;
nodes = (
(382,-10,o),
(503,81,o),
(539,251,cs),
(639,720,l),
(557,720,l),
(457,248,ls),
(430,123,o),
(349,64,o),
(258,64,cs),
(169,64,o),
(112,124,o),
(135,230,c),
(55,230,l),
(23,81,o),
(105,-10,o),
(243,-10,cs)
);
}
);
};
layerId = m007;
shapes = (
{
closed = 1;
nodes = (
(403,-10,o),
(496,73,o),
(532,226,cs),
(647,720,l),
(565,720,l),
(454,242,ls),
(427,123,o),
(363,64,o),
(269,64,cs),
(171,64,o),
(114,135,o),
(134,230,c),
(54,230,l),
(29,90,o),
(116,-10,o),
(265,-10,cs)
);
}
);
width = 620;
},
{
background = {
shapes = (
{
closed = 1;
nodes = (
(447,-10,o),
(564,95,o),
(608,299,cs),
(697,720,l),
(543,720,l),
(448,273,ls),
(422,150,o),
(357,112,o),
(283,112,cs),
(208,112,o),
(164,170,o),
(184,263,c),
(34,263,l),
(2,115,o),
(72,-10,o),
(256,-10,cs)
);
}
);
};
guides = (
{
angle = 81.8699;
pos = (206,263);
}
);
layerId = m008;
shapes = (
{
closed = 1;
nodes = (
(450,-12,o),
(558,85,o),
(601,269,cs),
(705,720,l),
(551,720,l),
(444,259,ls),
(421,159,o),
(372,111,o),
(294,111,cs),
(208,111,o),
(165,169,o),
(181,263,c),
(34,263,l),
(7,100,o),
(109,-12,o),
(284,-12,cs)
);
}
);
width = 640;
}
);
},
{
color = 9;
glyphname = Q.ss09;
kernLeft = KO_O;
kernRight = KO_O;
lastChange = "2023-02-07 19:26:22 +0000";
layers = (
{
background = {
shapes = (
{
closed = 1;
nodes = (
(325,-10,o),
(434,130,o),
(483,362,cs),
(532,593,o),
(483,730,o),
(350,730,cs),
(219,730,o),
(112,593,o),
(63,363,cs),
(14,130,o),
(63,-10,o),
(194,-10,cs)
);
},
{
closed = 1;
nodes = (
(118,54,o),
(93,165,o),
(135,364,cs),
(177,560,o),
(248,666,o),
(337,666,cs),
(427,666,o),
(453,559,o),
(411,364,cs),
(369,166,o),
(295,54,o),
(206,54,cs)
);
},
{
closed = 1;
nodes = (
(314,-83,l),
(375,-52,l),
(284,200,l),
(223,169,l)
);
}
);
};
guides = (
{
angle = 90;
pos = (460,56);
}
);
layerId = m005;
shapes = (
{
closed = 1;
nodes = (
(356,-10,o),
(496,233,o),
(496,498,cs),
(496,644,o),
(439,730,o),
(349,730,cs),
(188,730,o),
(51,481,o),
(51,212,cs),
(51,72,o),
(111,-10,o),
(200,-10,cs)
);
},
{
closed = 1;
nodes = (
(156,54,o),
(123,109,o),
(123,204,cs),
(123,431,o),
(234,666,o),
(335,666,cs),
(391,666,o),
(424,611,o),
(424,516,cs),
(424,289,o),
(313,54,o),
(213,54,cs)
);
},
{
closed = 1;
nodes = (
(311,-73,l),
(370,-52,l),
(283,200,l),
(224,179,l)
);
}
);
width = 500;
},
{
background = {
shapes = (
{
closed = 1;
nodes = (
(367,-10,o),
(477,119,o),
(529,362,cs),
(580,604,o),
(525,730,o),
(368,730,cs),
(213,730,o),
(104,603,o),
(53,363,cs),
(2,120,o),
(57,-10,o),
(212,-10,cs)
);
},
{
closed = 1;
nodes = (
(169,92,o),
(151,171,o),
(192,364,cs),
(231,545,o),
(279,618,o),
(344,618,cs),
(410,618,o),
(428,543,o),
(390,364,cs),
(334,101,o),
(298,92,o),
(233,92,cs)
);
},
{
closed = 1;
nodes = (
(316,-116,l),
(424,-61,l),
(314,243,l),
(206,188,l)
);
}
);
};
layerId = m006;
shapes = (
{
closed = 1;
nodes = (
(399,-9,o),
(540,219,o),
(540,488,cs),
(540,642,o),
(467,729,o),
(359,729,cs),
(183,729,o),
(44,500,o),
(44,226,cs),
(44,75,o),
(117,-9,o),
(225,-9,cs)
);
},
{
closed = 1;
nodes = (
(203,92,o),
(182,125,o),
(182,195,cs),
(182,393,o),
(263,617,o),
(347,617,cs),
(381,617,o),
(401,581,o),
(401,517,cs),
(401,302,o),
(341,92,o),
(237,92,cs)
);
},
{
closed = 1;
nodes = (
(314,-99,l),
(419,-61,l),
(314,243,l),
(210,205,l)
);
}
);
width = 536;
},
{
background = {
shapes = (
{
closed = 1;
nodes = (
(535,-10,o),
(713,147,o),
(759,362,cs),
(805,577,o),
(694,730,o),
(493,730,cs),
(294,730,o),
(119,577,o),
(73,363,cs),
(27,147,o),
(138,-10,o),
(337,-10,cs)
);
},
{
closed = 1;
nodes = (
(198,64,o),
(120,188,o),
(157,364,cs),
(194,537,o),
(321,656,o),
(477,656,cs),
(633,656,o),
(712,536,o),
(675,364,cs),
(638,189,o),
(506,64,o),
(352,64,cs)
);
},
{
closed = 1;
nodes = (
(522,-127,l),
(593,-91,l),
(463,265,l),
(393,229,l)
);
}
);
};
layerId = m007;
shapes = (
{
closed = 1;
nodes = (
(580,-10,o),
(762,187,o),
(762,417,cs),
(762,602,o),
(644,730,o),
(470,730,cs),
(254,730,o),
(74,537,o),
(74,307,cs),
(74,120,o),
(193,-10,o),
(366,-10,cs)
);
},
{
closed = 1;
nodes = (
(243,64,o),
(159,162,o),
(159,308,cs),
(159,499,o),
(296,656,o),
(462,656,cs),
(592,656,o),
(678,559,o),
(678,414,cs),
(678,224,o),
(536,64,o),
(371,64,cs)
);
},
{
closed = 1;
nodes = (
(519,-116,l),
(588,-91,l),
(465,265,l),
(396,240,l)
);
}
);
width = 786;
},
{
background = {
shapes = (
{
closed = 1;
nodes = (
(557,-10,o),
(744,142,o),
(791,362,cs),
(838,582,o),
(716,730,o),
(499,730,cs),
(284,730,o),
(100,582,o),
(53,363,cs),
(6,141,o),
(129,-10,o),
(343,-10,cs)
);
},
{
closed = 1;
nodes = (
(243,112,o),
(177,212,o),
(209,364,cs),
(241,513,o),
(346,608,o),
(473,608,cs),
(600,608,o),
(667,512,o),
(635,364,cs),
(603,214,o),
(493,112,o),
(368,112,cs)
);
},
{
closed = 1;
nodes = (
(511,-156,l),
(625,-97,l),
(476,314,l),
(361,255,l)
);
}
);
};
layerId = m008;
shapes = (
{
closed = 1;
nodes = (
(605,-10,o),
(793,178,o),
(793,410,cs),
(793,600,o),
(663,731,o),
(468,731,cs),
(238,731,o),
(55,545,o),
(55,312,cs),
(55,121,o),
(185,-10,o),
(375,-10,cs)
);
},
{
closed = 1;
nodes = (
(278,112,o),
(211,191,o),
(211,316,cs),
(211,480,o),
(320,609,o),
(458,609,cs),
(568,609,o),
(637,530,o),
(637,406,cs),
(637,245,o),
(523,112,o),
(385,112,cs)
);
},
{
closed = 1;
nodes = (
(508,-137,l),
(618,-97,l),
(476,314,l),
(365,274,l)
);
}
);
width = 798;
}
);
},
{
glyphname = a;
kernLeft = KO_a;
kernRight = KO_a;
lastChange = "2023-03-04 15:41:52 +0000";
layers = (
{
anchors = (
{
name = bottom;
pos = (137,0);
},
{
name = ogonek;
pos = (279,0);
},
{
name = top;
pos = (254,510);
}
);
background = {
shapes = (
{
closed = 1;
nodes = (
(283,0,l),
(284,28,o),
(287,57,o),
(293,85,cs),
(356,380,ls),
(375,469,o),
(339,520,o),
(257,520,cs),
(162,520,o),
(96,456,o),
(76,362,c),
(138,362,l),
(150,418,o),
(185,460,o),
(238,460,cs),
(278,460,o),
(299,433,o),
(289,387,cs),
(225,85,l),
(233,85,l),
(226,53,o),
(223,24,o),
(223,0,c)
);
},
{
closed = 1;
nodes = (
(152,-10,o),
(206,22,o),
(237,85,c),
(242,164,l),
(228,97,o),
(182,50,o),
(131,50,cs),
(90,50,o),
(70,76,o),
(80,122,cs),
(90,168,o),
(121,202,o),
(173,226,c),
(278,274,l),
(291,333,l),
(165,278,ls),
(75,239,o),
(26,188,o),
(11,117,cs),
(-5,40,o),
(29,-10,o),
(98,-10,cs)
);
}
);
};
layerId = m005;
shapes = (
{
closed = 1;
nodes = (
(278,0,l),
(278,21,o),
(281,45,o),
(287,73,cs),
(352,358,ls),
(370,436,o),
(361,520,o),
(250,520,cs),
(158,520,o),
(101,464,o),
(78,362,c),
(141,362,l),
(155,423,o),
(185,461,o),
(237,461,cs),
(296,461,o),
(297,413,o),
(287,371,cs),
(221,80,l),
(228,80,l),
(222,48,o),
(218,19,o),
(218,0,c)
);
},
{
closed = 1;
nodes = (
(158,-10,o),
(203,18,o),
(231,77,c),
(239,158,l),
(223,87,o),
(183,48,o),
(133,48,cs),
(100,48,o),
(77,67,o),
(77,106,cs),
(77,156,o),
(108,199,o),
(182,226,cs),
(276,261,l),
(289,320,l),
(167,277,ls),
(64,241,o),
(8,179,o),
(8,95,cs),
(8,28,o),
(46,-10,o),
(106,-10,cs)
);
}
);
width = 389;
},
{
anchors = (
{
name = bottom;
pos = (151,0);
},
{
name = ogonek;
pos = (332,0);
},
{
name = top;
pos = (268,510);
}
);
background = {
shapes = (
{
closed = 1;
nodes = (
(336,0,l),
(333,28,o),
(336,57,o),
(342,85,cs),
(401,360,ls),
(422,461,o),
(377,520,o),
(273,520,cs),
(166,520,o),
(84,450,o),
(64,356,c),
(185,356,l),
(194,399,o),
(213,420,o),
(241,420,cs),
(269,420,o),
(277,402,o),
(268,356,cs),
(210,85,l),
(214,85,l),
(207,53,o),
(204,24,o),
(208,0,c)
);
},
{
closed = 1;
nodes = (
(139,-10,o),
(183,15,o),
(216,72,c),
(219,127,l),
(214,105,o),
(193,90,o),
(169,90,cs),
(145,90,o),
(133,106,o),
(139,137,cs),
(146,169,o),
(167,194,o),
(215,217,cs),
(279,248,l),
(301,351,l),
(149,281,ls),
(56,238,o),
(19,194,o),
(4,121,cs),
(-13,40,o),
(23,-10,o),
(84,-10,cs)
);
}
);
};
layerId = m006;
shapes = (
{
closed = 1;
nodes = (
(331,0,l),
(327,25,o),
(329,46,o),
(335,70,cs),
(398,343,ls),
(419,432,o),
(385,520,o),
(260,520,cs),
(157,520,o),
(89,462,o),
(66,356,c),
(185,356,l),
(196,399,o),
(214,420,o),
(241,420,cs),
(277,420,o),
(273,379,o),
(267,352,cs),
(206,83,l),
(210,82,l),
(204,53,o),
(201,26,o),
(205,0,c)
);
},
{
closed = 1;
nodes = (
(145,-10,o),
(182,17,o),
(212,64,c),
(216,125,l),
(210,103,o),
(195,90,o),
(173,90,cs),
(147,90,o),
(133,106,o),
(133,129,cs),
(133,166,o),
(162,194,o),
(215,215,cs),
(277,240,l),
(300,337,l),
(151,282,ls),
(52,246,o),
(1,182,o),
(1,98,cs),
(1,30,o),
(36,-10,o),
(96,-10,cs)
);
}
);
width = 418;
},
{
anchors = (
{
name = bottom;
pos = (213,0);
},
{
name = ogonek;
pos = (416,0);
},
{
name = top;
pos = (318,510);
}
);
background = {
shapes = (
{
closed = 1;
nodes = (
(416,0,l),
(416,35,o),
(419,65,o),
(425,95,cs),
(477,340,ls),
(503,460,o),
(455,520,o),
(329,520,cs),
(206,520,o),
(112,460,o),
(84,362,c),
(161,362,l),
(178,419,o),
(234,452,o),
(311,452,cs),
(389,452,o),
(415,416,o),
(399,339,cs),
(347,95,l),
(352,95,l),
(343,50,o),
(339,23,o),
(339,0,c)
);
},
{
closed = 1;
nodes = (
(251,-10,o),
(324,29,o),
(361,97,c),
(363,168,l),
(349,103,o),
(276,58,o),
(187,58,cs),
(118,58,o),
(88,85,o),
(99,137,cs),
(110,190,o),
(155,216,o),
(232,228,cs),
(404,254,l),
(418,320,l),
(234,290,ls),
(111,270,o),
(39,223,o),
(20,134,cs),
(2,45,o),
(56,-10,o),
(162,-10,cs)
);
}
);
};
guides = (
{
angle = 180;
pos = (98,362);
}
);
layerId = m007;
shapes = (
{
closed = 1;
nodes = (
(411,0,l),
(410,25,o),
(414,61,o),
(420,86,cs),
(474,319,ls),
(498,423,o),
(459,520,o),
(307,520,cs),
(191,520,o),
(113,464,o),
(86,362,c),
(161,362,l),
(178,422,o),
(223,452,o),
(296,452,cs),
(394,452,o),
(412,392,o),
(397,326,cs),
(341,84,l),
(346,83,l),
(338,46,o),
(333,14,o),
(334,0,c)
);
},
{
closed = 1;
nodes = (
(253,-10,o),
(320,28,o),
(357,92,c),
(360,164,l),
(344,100,o),
(279,58,o),
(195,58,cs),
(132,58,o),
(99,82,o),
(99,130,cs),
(99,187,o),
(141,219,o),
(229,229,cs),
(398,248,l),
(413,313,l),
(231,292,ls),
(93,276,o),
(21,220,o),
(21,126,cs),
(21,44,o),
(82,-10,o),
(175,-10,cs)
);
}
);
width = 533;
},
{
anchors = (
{
name = bottom;
pos = (240,0);
},
{
name = ogonek;
pos = (479,0);
},
{
name = top;
pos = (337,510);
}
);
background = {
shapes = (
{
closed = 1;
nodes = (
(477,0,l),
(474,39,o),
(477,71,o),
(484,105,cs),
(532,330,ls),
(558,453,o),
(493,520,o),
(347,520,cs),
(205,520,o),
(107,453,o),
(75,361,c),
(218,361,l),
(234,394,o),
(268,412,o),
(319,412,cs),
(372,412,o),
(394,387,o),
(386,346,cs),
(334,105,l),
(338,105,l),
(329,61,o),
(325,29,o),
(327,0,c)
);
},
{
closed = 1;
nodes = (
(233,-10,o),
(303,29,o),
(348,105,c),
(351,185,l),
(342,140,o),
(283,100,o),
(220,100,cs),
(180,100,o),
(158,118,o),
(165,151,cs),
(173,188,o),
(201,209,o),
(257,217,cs),
(385,236,l),
(404,323,l),
(250,302,ls),
(118,284,o),
(31,226,o),
(11,131,cs),
(-7,45,o),
(46,-10,o),
(147,-10,cs)
);
}
);
};
guides = (
{
angle = 180;
pos = (121,361);
}
);
layerId = m008;
shapes = (
{
closed = 1;
nodes = (
(470,0,l),
(467,20,o),
(472,65,o),
(478,92,cs),
(527,306,ls),
(560,450,o),
(471,520,o),
(325,520,cs),
(198,520,o),
(108,456,o),
(77,361,c),
(218,361,l),
(226,388,o),
(260,412,o),
(313,412,cs),
(363,412,o),
(396,388,o),
(385,338,cs),
(331,98,l),
(333,98,l),
(323,54,o),
(321,22,o),
(322,0,c)
);
},
{
closed = 1;
nodes = (
(250,-10,o),
(306,37,o),
(346,102,c),
(351,187,l),
(342,144,o),
(290,100,o),
(224,100,cs),
(185,100,o),
(161,114,o),
(161,142,cs),
(161,186,o),
(201,210,o),
(258,217,cs),
(384,233,l),
(404,320,l),
(262,305,ls),
(110,289,o),
(10,234,o),
(10,115,cs),
(10,41,o),
(68,-10,o),
(159,-10,cs)
);
}
);
width = 569;
}
);
unicode = 97;
userData = {
KernOnName = a;
};
},
{
glyphname = ae;
kernLeft = KO_a;
kernRight = KO_e;
lastChange = "2023-02-08 19:04:01 +0000";
layers = (
{
background = {
shapes = (
{
closed = 1;
nodes = (
(299,125,l),
(358,380,ls),
(378,469,o),
(343,520,o),
(261,520,cs),
(166,520,o),
(99,456,o),
(78,362,c),
(140,362,l),
(153,418,o),
(188,460,o),
(241,460,cs),
(281,460,o),
(302,433,o),
(291,387,cs),
(231,125,l)
);
},
{
closed = 1;
nodes = (
(164,-10,o),
(231,22,o),
(281,115,c),
(240,164,l),
(224,97,o),
(178,50,o),
(127,50,cs),
(86,50,o),
(67,76,o),
(77,122,cs),
(88,168,o),
(118,211,o),
(191,231,cs),
(274,254,l),
(287,313,l),
(184,283,ls),
(72,251,o),
(24,188,o),
(8,117,cs),
(-10,40,o),
(24,-10,o),
(93,-10,cs)
);
},
{
closed = 1;
nodes = (
(446,-10,o),
(518,58,o),
(552,162,c),
(488,162,l),
(466,93,o),
(426,50,o),
(377,50,cs),
(318,50,o),
(298,123,o),
(328,253,cs),
(359,387,o),
(413,460,o),
(476,460,cs),
(534,460,o),
(547,400,o),
(516,258,c),
(553,298,l),
(314,298,l),
(300,240,l),
(575,240,l),
(577,246,o),
(578,253,o),
(580,259,cs),
(621,437,o),
(587,520,o),
(495,520,cs),
(387,520,o),
(307,420,o),
(268,253,cs),
(231,89,o),
(261,-10,o),
(361,-10,cs)
);
}
);
};
layerId = m005;
shapes = (
{
closed = 1;
nodes = (
(298,119,l),
(352,358,ls),
(370,436,o),
(361,520,o),
(250,520,cs),
(158,520,o),
(101,464,o),
(78,362,c),
(141,362,l),
(155,423,o),
(185,461,o),
(237,461,cs),
(296,461,o),
(296,413,o),
(287,371,cs),
(232,126,l)
);
},
{
closed = 1;
nodes = (
(198,-10,o),
(244,41,o),
(280,114,c),
(239,156,l),
(223,87,o),
(183,48,o),
(133,48,cs),
(100,48,o),
(77,67,o),
(77,106,cs),
(77,156,o),
(108,199,o),
(182,226,cs),
(276,261,l),
(289,320,l),
(167,277,ls),
(64,241,o),
(8,179,o),
(8,95,cs),
(8,28,o),
(53,-10,o),
(117,-10,cs)
);
},
{
closed = 1;
nodes = (
(456,-10,o),
(519,50,o),
(553,162,c),
(489,162,l),
(467,89,o),
(431,50,o),
(389,50,cs),
(347,50,o),
(321,89,o),
(321,158,cs),
(321,242,o),
(364,458,o),
(473,458,cs),
(555,458,o),
(532,325,o),
(514,247,c),
(551,298,l),
(319,298,l),
(307,240,l),
(574,240,l),
(583,265,o),
(593,324,o),
(593,371,cs),
(593,470,o),
(550,518,o),
(480,518,cs),
(314,518,o),
(251,280,o),
(251,160,cs),
(251,54,o),
(299,-10,o),
(379,-10,cs)
);
}
);
width = 615;
},
{
background = {
shapes = (
{
closed = 1;
nodes = (
(355,105,l),
(414,360,ls),
(437,461,o),
(393,520,o),
(286,520,cs),
(176,520,o),
(93,450,o),
(71,356,c),
(192,356,l),
(202,399,o),
(224,420,o),
(254,420,cs),
(284,420,o),
(292,402,o),
(281,356,cs),
(223,105,l)
);
},
{
closed = 1;
nodes = (
(179,-10,o),
(240,15,o),
(304,112,c),
(231,137,l),
(223,105,o),
(198,90,o),
(172,90,cs),
(147,90,o),
(130,109,o),
(138,144,cs),
(147,180,o),
(171,200,o),
(216,211,cs),
(286,228,l),
(307,321,l),
(187,292,ls),
(72,264,o),
(20,204,o),
(2,126,cs),
(-17,45,o),
(30,-10,o),
(111,-10,cs)
);
},
{
closed = 1;
nodes = (
(490,-10,o),
(567,62,o),
(607,162,c),
(490,162,l),
(472,114,o),
(449,90,o),
(418,90,cs),
(374,90,o),
(363,140,o),
(390,257,cs),
(417,372,o),
(450,420,o),
(496,420,cs),
(542,420,o),
(554,379,o),
(531,279,c),
(559,310,l),
(348,310,l),
(327,221,l),
(626,221,l),
(631,234,o),
(636,250,o),
(640,269,cs),
(677,429,o),
(631,520,o),
(516,520,cs),
(394,520,o),
(299,418,o),
(261,257,cs),
(224,97,o),
(272,-10,o),
(388,-10,cs)
);
}
);
};
layerId = m006;
shapes = (
{
closed = 1;
nodes = (
(341,96,l),
(398,343,ls),
(419,432,o),
(385,520,o),
(260,520,cs),
(157,520,o),
(89,462,o),
(66,356,c),
(185,356,l),
(196,399,o),
(214,420,o),
(241,420,cs),
(277,420,o),
(273,379,o),
(267,352,cs),
(212,109,l)
);
},
{
closed = 1;
nodes = (
(185,-10,o),
(242,17,o),
(300,109,c),
(216,125,l),
(210,103,o),
(195,90,o),
(173,90,cs),
(147,90,o),
(133,106,o),
(133,129,cs),
(133,166,o),
(162,194,o),
(215,215,cs),
(277,240,l),
(300,337,l),
(151,282,ls),
(52,246,o),
(1,182,o),
(1,98,cs),
(1,30,o),
(48,-10,o),
(116,-10,cs)
);
},
{
closed = 1;
nodes = (
(502,-10,o),
(570,52,o),
(608,162,c),
(488,162,l),
(469,110,o),
(450,90,o),
(420,90,cs),
(391,90,o),
(374,111,o),
(374,158,cs),
(374,213,o),
(402,418,o),
(488,418,cs),
(548,418,o),
(537,322,o),
(524,271,c),
(558,310,l),
(345,310,l),
(326,221,l),
(625,221,l),
(639,254,o),
(650,301,o),
(650,346,cs),
(650,455,o),
(591,518,o),
(492,518,cs),
(314,518,o),
(240,316,o),
(240,189,cs),
(240,68,o),
(306,-10,o),
(409,-10,cs)
);
}
);
width = 658;
},
{
background = {
shapes = (
{
closed = 1;
nodes = (
(423,135,l),
(470,340,ls),
(498,460,o),
(452,520,o),
(328,520,cs),
(207,520,o),
(115,460,o),
(86,362,c),
(164,362,l),
(182,419,o),
(236,452,o),
(309,452,cs),
(384,452,o),
(408,416,o),
(390,339,cs),
(343,135,l)
);
},
{
closed = 1;
nodes = (
(249,-10,o),
(340,29,o),
(407,137,c),
(351,168,l),
(336,103,o),
(265,58,o),
(180,58,cs),
(114,58,o),
(87,85,o),
(97,132,cs),
(109,183,o),
(149,211,o),
(227,223,cs),
(392,249,l),
(408,315,l),
(229,285,ls),
(104,264,o),
(36,214,o),
(17,129,cs),
(-3,45,o),
(49,-10,o),
(153,-10,cs)
);
},
{
closed = 1;
nodes = (
(642,-10,o),
(729,47,o),
(784,141,c),
(708,141,l),
(672,88,o),
(622,58,o),
(562,58,cs),
(464,58,o),
(424,137,o),
(452,258,cs),
(479,376,o),
(563,452,o),
(651,452,cs),
(744,452,o),
(776,383,o),
(748,261,c),
(783,298,l),
(439,298,l),
(423,231,l),
(816,231,l),
(822,245,o),
(825,256,o),
(828,270,cs),
(863,422,o),
(803,520,o),
(667,520,cs),
(532,520,o),
(415,413,o),
(379,257,cs),
(343,101,o),
(403,-10,o),
(543,-10,cs)
);
}
);
};
layerId = m007;
shapes = (
{
closed = 1;
nodes = (
(429,126,l),
(474,319,ls),
(498,423,o),
(459,520,o),
(307,520,cs),
(191,520,o),
(113,464,o),
(86,362,c),
(161,362,l),
(178,422,o),
(223,452,o),
(296,452,cs),
(394,452,o),
(412,392,o),
(397,326,cs),
(350,124,l)
);
},
{
closed = 1;
nodes = (
(265,-10,o),
(350,28,o),
(412,134,c),
(360,164,l),
(344,100,o),
(279,58,o),
(195,58,cs),
(132,58,o),
(99,82,o),
(99,130,cs),
(99,187,o),
(141,219,o),
(229,229,cs),
(398,248,l),
(413,313,l),
(231,292,ls),
(93,276,o),
(21,220,o),
(21,126,cs),
(21,44,o),
(82,-10,o),
(175,-10,cs)
);
},
{
closed = 1;
nodes = (
(667,-10,o),
(743,40,o),
(783,141,c),
(707,141,l),
(685,85,o),
(640,58,o),
(588,58,cs),
(507,58,o),
(462,117,o),
(462,216,cs),
(462,346,o),
(541,452,o),
(643,452,cs),
(758,452,o),
(770,342,o),
(746,244,c),
(780,298,l),
(456,298,l),
(441,231,l),
(815,231,l),
(828,259,o),
(834,289,o),
(834,320,cs),
(834,440,o),
(762,520,o),
(647,520,cs),
(496,520,o),
(380,384,o),
(380,214,cs),
(380,79,o),
(456,-10,o),
(577,-10,cs)
);
}
);
width = 865;
},
{
background = {
shapes = (
{
closed = 1;
nodes = (
(477,145,l),
(520,330,ls),
(549,453,o),
(485,520,o),
(343,520,cs),
(206,520,o),
(111,453,o),
(76,361,c),
(219,361,l),
(236,394,o),
(276,412,o),
(320,412,cs),
(370,412,o),
(396,387,o),
(387,346,cs),
(340,145,l)
);
},
{
closed = 1;
nodes = (
(263,-10,o),
(345,29,o),
(419,145,c),
(350,185,l),
(339,140,o),
(268,100,o),
(222,100,cs),
(175,100,o),
(155,118,o),
(163,150,cs),
(170,182,o),
(196,204,o),
(260,214,cs),
(365,231,l),
(385,318,l),
(244,298,ls),
(99,278,o),
(29,216,o),
(10,136,cs),
(-11,45,o),
(49,-10,o),
(153,-10,cs)
);
},
{
closed = 1;
nodes = (
(680,-10,o),
(774,50,o),
(830,149,c),
(686,149,l),
(663,113,o),
(635,98,o),
(587,98,cs),
(510,98,o),
(478,148,o),
(502,252,cs),
(529,369,o),
(584,412,o),
(661,412,cs),
(726,412,o),
(757,373,o),
(738,291,c),
(765,309,l),
(454,309,l),
(431,210,l),
(853,210,l),
(859,226,o),
(865,243,o),
(870,265,cs),
(906,418,o),
(828,520,o),
(680,520,cs),
(526,520,o),
(400,413,o),
(364,255,cs),
(328,98,o),
(403,-10,o),
(563,-10,cs)
);
}
);
};
layerId = m008;
shapes = (
{
closed = 1;
nodes = (
(474,137,l),
(513,306,ls),
(546,449,o),
(471,520,o),
(325,520,cs),
(198,520,o),
(108,456,o),
(77,361,c),
(218,361,l),
(226,388,o),
(260,412,o),
(313,412,cs),
(363,412,o),
(396,388,o),
(385,338,cs),
(341,143,l)
);
},
{
closed = 1;
nodes = (
(270,-10,o),
(366,47,o),
(419,145,c),
(351,187,l),
(342,144,o),
(290,100,o),
(224,100,cs),
(185,100,o),
(161,114,o),
(161,142,cs),
(161,186,o),
(201,210,o),
(258,217,cs),
(384,233,l),
(404,320,l),
(262,305,ls),
(110,289,o),
(10,234,o),
(10,115,cs),
(10,41,o),
(68,-10,o),
(169,-10,cs)
);
},
{
closed = 1;
nodes = (
(695,-10,o),
(786,49,o),
(831,149,c),
(692,149,l),
(673,120,o),
(647,98,o),
(602,98,cs),
(546,98,o),
(512,130,o),
(512,215,cs),
(512,295,o),
(540,412,o),
(647,412,cs),
(723,412,o),
(739,341,o),
(723,279,c),
(752,309,l),
(471,309,l),
(450,210,l),
(849,210,l),
(864,228,o),
(873,263,o),
(873,305,cs),
(873,448,o),
(769,520,o),
(653,520,cs),
(476,520,o),
(366,372,o),
(366,216,cs),
(366,67,o),
(466,-10,o),
(588,-10,cs)
);
}
);
width = 888;
}
);
metricLeft = a;
metricRight = e;
unicode = 230;
},
{
glyphname = b;
kernRight = KO_p;
lastChange = "2023-02-08 18:34:55 +0000";
layers = (
{
background = {
shapes = (
{
closed = 1;
nodes = (
(291,-10,o),
(376,92,o),
(411,261,cs),
(446,423,o),
(409,520,o),
(310,520,cs),
(249,520,o),
(190,484,o),
(159,415,c),
(165,407,l),
(231,720,l),
(163,720,l),
(10,0,l),
(70,0,l),
(94,111,l),
(87,104,l),
(81,29,o),
(126,-10,o),
(187,-10,cs)
);
},
{
closed = 1;
nodes = (
(119,52,o),
(97,118,o),
(126,255,cs),
(155,392,o),
(203,458,o),
(275,458,cs),
(347,458,o),
(369,392,o),
(340,255,cs),
(311,118,o),
(263,52,o),
(191,52,cs)
);
}
);
};
layerId = m005;
shapes = (
{
closed = 1;
nodes = (
(318,-10,o),
(418,160,o),
(418,349,cs),
(418,450,o),
(375,520,o),
(298,520,cs),
(243,520,o),
(192,487,o),
(163,426,c),
(168,418,l),
(239,720,l),
(171,720,l),
(5,0,l),
(65,0,l),
(93,124,l),
(87,118,l),
(80,39,o),
(129,-10,o),
(198,-10,cs)
);
},
{
closed = 1;
nodes = (
(144,52,o),
(113,89,o),
(113,163,cs),
(113,244,o),
(154,458,o),
(268,458,cs),
(321,458,o),
(348,417,o),
(348,340,cs),
(348,190,o),
(279,52,o),
(192,52,cs)
);
}
);
width = 448;
},
{
background = {
shapes = (
{
closed = 1;
nodes = (
(335,-10,o),
(420,95,o),
(456,262,cs),
(490,424,o),
(453,520,o),
(357,520,cs),
(298,520,o),
(235,481,o),
(208,412,c),
(215,411,l),
(281,720,l),
(143,720,l),
(-10,0,l),
(120,0,l),
(142,102,l),
(135,102,l),
(130,30,o),
(178,-10,o),
(237,-10,cs)
);
},
{
closed = 1;
nodes = (
(169,100,o),
(154,147,o),
(177,253,cs),
(200,360,o),
(236,410,o),
(278,410,cs),
(320,410,o),
(335,363,o),
(313,257,cs),
(290,150,o),
(253,100,o),
(211,100,cs)
);
}
);
};
guides = (
{
pos = (308,388);
}
);
layerId = m006;
shapes = (
{
closed = 1;
nodes = (
(362,-10,o),
(462,163,o),
(462,351,cs),
(462,451,o),
(418,520,o),
(347,520,cs),
(294,520,o),
(239,486,o),
(212,424,c),
(220,418,l),
(289,720,l),
(151,720,l),
(-15,0,l),
(115,0,l),
(143,111,l),
(136,116,l),
(130,37,o),
(183,-10,o),
(244,-10,cs)
);
},
{
closed = 1;
nodes = (
(186,100,o),
(168,125,o),
(168,179,cs),
(168,246,o),
(198,410,o),
(275,410,cs),
(302,410,o),
(320,376,o),
(320,330,cs),
(320,217,o),
(271,100,o),
(212,100,cs)
);
}
);
width = 479;
},
{
background = {
shapes = (
{
closed = 1;
nodes = (
(416,-9,o),
(531,97,o),
(565,257,cs),
(598,415,o),
(531,520,o),
(396,520,cs),
(303,520,o),
(220,472,o),
(179,394,c),
(189,391,l),
(259,720,l),
(179,720,l),
(26,0,l),
(101,0,l),
(128,127,l),
(117,125,l),
(123,40,o),
(180,-9,o),
(276,-9,cs)
);
},
{
closed = 1;
nodes = (
(178,61,o),
(131,135,o),
(156,254,cs),
(182,375,o),
(260,450,o),
(362,450,cs),
(463,450,o),
(508,377,o),
(483,257,cs),
(457,135,o),
(380,61,o),
(279,61,cs)
);
}
);
};
layerId = m007;
shapes = (
{
closed = 1;
nodes = (
(442,-9,o),
(567,134,o),
(567,309,cs),
(567,439,o),
(495,520,o),
(376,520,cs),
(294,520,o),
(224,481,o),
(185,412,c),
(195,408,l),
(267,720,l),
(187,720,l),
(21,0,l),
(96,0,l),
(131,146,l),
(120,145,l),
(121,54,o),
(189,-9,o),
(290,-9,cs)
);
},
{
closed = 1;
nodes = (
(205,61,o),
(152,120,o),
(152,216,cs),
(152,344,o),
(243,450,o),
(354,450,cs),
(436,450,o),
(485,391,o),
(485,297,cs),
(485,168,o),
(399,61,o),
(287,61,cs)
);
}
);
width = 606;
},
{
background = {
shapes = (
{
closed = 1;
nodes = (
(456,-10,o),
(570,95,o),
(605,257,cs),
(639,417,o),
(573,520,o),
(436,520,cs),
(340,520,o),
(262,473,o),
(232,399,c),
(240,397,l),
(313,740,l),
(163,740,l),
(6,0,l),
(153,0,l),
(178,118,l),
(170,117,l),
(164,38,o),
(218,-10,o),
(315,-10,cs)
);
},
{
closed = 1;
nodes = (
(226,110,o),
(188,162,o),
(208,255,cs),
(228,348,o),
(288,400,o),
(358,400,cs),
(430,400,o),
(468,349,o),
(448,256,cs),
(429,163,o),
(368,110,o),
(298,110,cs)
);
}
);
};
layerId = m008;
shapes = (
{
closed = 1;
nodes = (
(485,-14,o),
(606,133,o),
(606,308,cs),
(606,441,o),
(532,516,o),
(413,516,cs),
(329,516,o),
(264,478,o),
(237,413,c),
(246,410,l),
(317,720,l),
(167,720,l),
(1,0,l),
(148,0,l),
(178,132,l),
(171,132,l),
(162,48,o),
(229,-14,o),
(330,-14,cs)
);
},
{
closed = 1;
nodes = (
(246,111,o),
(206,153,o),
(206,225,cs),
(206,312,o),
(264,401,o),
(351,401,cs),
(410,401,o),
(450,359,o),
(450,287,cs),
(450,198,o),
(391,111,o),
(305,111,cs)
);
}
);
width = 628;
}
);
unicode = 98;
userData = {
KernOnSpecialSpacing = {
L = NoKerning;
};
};
},
{
glyphname = c;
kernLeft = KO_e;
kernRight = KO_c;
lastChange = "2023-02-08 18:38:48 +0000";
layers = (
{
anchors = (
{
name = bottom;
pos = (146,0);
},
{
name = top;
pos = (266,510);
}
);
background = {
shapes = (
{
closed = 1;
nodes = (
(237,-10,o),
(313,71,o),
(338,187,c),
(272,187,l),
(255,106,o),
(211,50,o),
(158,50,cs),
(96,50,o),
(78,121,o),
(106,256,cs),
(135,392,o),
(183,460,o),
(249,460,cs),
(303,460,o),
(320,412,o),
(301,323,c),
(367,323,l),
(392,444,o),
(355,520,o),
(262,520,cs),
(155,520,o),
(72,423,o),
(36,255,cs),
(1,89,o),
(41,-10,o),
(144,-10,cs)
);
}
);
};
layerId = m005;
shapes = (
{
closed = 1;
nodes = (
(247,-10,o),
(308,65,o),
(335,187,c),
(270,187,l),
(251,100,o),
(211,50,o),
(161,50,cs),
(119,50,o),
(99,89,o),
(99,168,cs),
(99,312,o),
(162,461,o),
(251,461,cs),
(316,461,o),
(316,381,o),
(302,323,c),
(367,323,l),
(390,403,o),
(364,520,o),
(256,520,cs),
(128,520,o),
(29,348,o),
(29,170,cs),
(29,47,o),
(76,-10,o),
(154,-10,cs)
);
}
);
width = 384;
},
{
anchors = (
{
name = bottom;
pos = (170,0);
},
{
name = top;
pos = (268,510);
}
);
background = {
shapes = (
{
closed = 1;
nodes = (
(258,-10,o),
(358,60,o),
(388,202,c),
(266,202,l),
(249,123,o),
(221,98,o),
(190,98,cs),
(157,98,o),
(133,129,o),
(161,257,cs),
(187,382,o),
(224,412,o),
(257,412,cs),
(288,412,o),
(305,387,o),
(288,308,c),
(410,308,l),
(441,451,o),
(378,520,o),
(276,520,cs),
(165,520,o),
(57,428,o),
(21,257,cs),
(-16,85,o),
(48,-10,o),
(158,-10,cs)
);
}
);
};
layerId = m006;
shapes = (
{
closed = 1;
nodes = (
(270,-10,o),
(356,58,o),
(387,202,c),
(267,202,l),
(249,128,o),
(224,97,o),
(194,97,cs),
(173,97,o),
(155,113,o),
(155,162,cs),
(155,219,o),
(181,410,o),
(261,410,cs),
(308,410,o),
(301,346,o),
(292,308,c),
(412,308,l),
(432,400,o),
(405,519,o),
(267,519,cs),
(92,519,o),
(15,315,o),
(15,181,cs),
(15,58,o),
(80,-10,o),
(175,-10,cs)
);
}
);
width = 418;
},
{
anchors = (
{
name = bottom;
pos = (219,0);
},
{
name = top;
pos = (340,510);
}
);
background = {
shapes = (
{
closed = 1;
nodes = (
(334,-10,o),
(437,61,o),
(478,168,c),
(404,168,l),
(376,102,o),
(314,58,o),
(241,58,cs),
(143,58,o),
(97,139,o),
(122,257,cs),
(147,375,o),
(226,452,o),
(324,452,cs),
(400,452,o),
(439,406,o),
(439,341,c),
(513,341,l),
(520,449,o),
(451,520,o),
(337,520,cs),
(198,520,o),
(72,410,o),
(40,257,cs),
(7,103,o),
(85,-10,o),
(225,-10,cs)
);
}
);
};
guides = (
{
pos = (501,168);
},
{
pos = (426,341);
}
);
layerId = m007;
shapes = (
{
closed = 1;
nodes = (
(348,-11,o),
(441,59,o),
(477,168,c),
(403,168,l),
(377,98,o),
(318,56,o),
(246,56,cs),
(166,56,o),
(120,111,o),
(120,206,cs),
(120,343,o),
(207,450,o),
(320,450,cs),
(391,450,o),
(437,408,o),
(439,341,c),
(513,341,l),
(512,446,o),
(435,518,o),
(326,518,cs),
(167,518,o),
(38,381,o),
(38,209,cs),
(38,76,o),
(117,-11,o),
(239,-11,cs)
);
}
);
width = 533;
},
{
anchors = (
{
name = bottom;
pos = (242,0);
},
{
name = top;
pos = (340,510);
}
);
background = {
shapes = (
{
closed = 1;
nodes = (
(369,-10,o),
(484,68,o),
(529,183,c),
(384,183,l),
(358,134,o),
(312,108,o),
(262,108,cs),
(189,108,o),
(157,165,o),
(176,255,cs),
(195,345,o),
(251,402,o),
(324,402,cs),
(374,402,o),
(410,376,o),
(415,327,c),
(560,327,l),
(564,442,o),
(482,520,o),
(348,520,cs),
(188,520,o),
(53,409,o),
(20,255,cs),
(-13,101,o),
(75,-10,o),
(235,-10,cs)
);
}
);
};
guides = (
{
pos = (477,183);
},
{
pos = (477,327);
}
);
layerId = m008;
shapes = (
{
closed = 1;
nodes = (
(383,-10,o),
(482,61,o),
(527,183,c),
(382,183,l),
(353,132,o),
(318,108,o),
(271,108,cs),
(211,108,o),
(176,149,o),
(176,222,cs),
(176,320,o),
(239,402,o),
(322,402,cs),
(377,402,o),
(414,366,o),
(416,327,c),
(561,327,l),
(560,434,o),
(455,520,o),
(324,520,cs),
(158,520,o),
(20,387,o),
(20,222,cs),
(20,85,o),
(117,-10,o),
(260,-10,cs)
);
}
);
width = 562;
}
);
unicode = 99;
},
{
glyphname = d;
kernLeft = KO_d;
lastChange = "2023-02-08 18:39:44 +0000";
layers = (
{
anchors = (
{
name = bottom;
pos = (165,0);
},
{
name = center;
pos = (224,255);
},
{
name = top;
pos = (331,720);
},
{
name = topright;
pos = (541,720);
}
);
background = {
shapes = (
{
closed = 1;
nodes = (
(330,0,l),
(483,720,l),
(415,720,l),
(347,399,l),
(361,406,l),
(367,481,o),
(323,520,o),
(262,520,cs),
(158,520,o),
(73,418,o),
(37,249,cs),
(2,87,o),
(40,-10,o),
(143,-10,cs),
(205,-10,o),
(264,26,o),
(294,95,c),
(289,103,l),
(267,0,l)
);
},
{
closed = 1;
nodes = (
(101,52,o),
(79,118,o),
(108,255,cs),
(137,392,o),
(185,458,o),
(257,458,cs),
(329,458,o),
(351,392,o),
(322,255,cs),
(293,118,o),
(245,52,o),
(173,52,cs)
);
}
);
};
layerId = m005;
shapes = (
{
closed = 1;
nodes = (
(325,0,l),
(491,720,l),
(423,720,l),
(346,386,l),
(360,392,l),
(367,471,o),
(318,520,o),
(249,520,cs),
(130,520,o),
(30,350,o),
(30,161,cs),
(30,60,o),
(73,-10,o),
(149,-10,cs),
(204,-10,o),
(255,23,o),
(283,84,c),
(284,94,l),
(262,0,l)
);
},
{
closed = 1;
nodes = (
(127,52,o),
(100,101,o),
(100,178,cs),
(100,328,o),
(169,458,o),
(255,458,cs),
(303,458,o),
(334,421,o),
(334,347,cs),
(334,266,o),
(293,52,o),
(179,52,cs)
);
}
);
width = 448;
},
{
anchors = (
{
name = bottom;
pos = (181,0);
},
{
name = center;
pos = (240,255);
},
{
name = top;
pos = (347,720);
},
{
name = topright;
pos = (586,720);
}
);
background = {
shapes = (
{
closed = 1;
nodes = (
(381,0,l),
(534,720,l),
(396,720,l),
(330,408,l),
(345,408,l),
(349,480,o),
(302,520,o),
(243,520,cs),
(145,520,o),
(59,415,o),
(24,248,cs),
(-11,86,o),
(27,-10,o),
(123,-10,cs),
(187,-10,o),
(249,29,o),
(277,98,c),
(269,99,l),
(248,0,l)
);
},
{
closed = 1;
nodes = (
(159,100,o),
(144,147,o),
(167,253,cs),
(190,360,o),
(226,410,o),
(268,410,cs),
(310,410,o),
(325,363,o),
(303,257,cs),
(280,150,o),
(243,100,o),
(201,100,cs)
);
}
);
};
layerId = m006;
shapes = (
{
closed = 1;
nodes = (
(376,0,l),
(542,720,l),
(404,720,l),
(330,399,l),
(342,394,l),
(348,473,o),
(295,520,o),
(234,520,cs),
(117,520,o),
(17,347,o),
(17,159,cs),
(17,59,o),
(61,-10,o),
(131,-10,cs),
(184,-10,o),
(239,24,o),
(267,86,c),
(265,92,l),
(243,0,l)
);
},
{
closed = 1;
nodes = (
(177,100,o),
(159,134,o),
(159,180,cs),
(159,293,o),
(208,410,o),
(266,410,cs),
(292,410,o),
(310,385,o),
(310,331,cs),
(310,264,o),
(280,100,o),
(203,100,cs)
);
}
);
width = 479;
},
{
anchors = (
{
name = bottom;
pos = (244,0);
},
{
name = center;
pos = (303,255);
},
{
name = top;
pos = (414,740);
},
{
name = topright;
pos = (703,720);
}
);
background = {
shapes = (
{
closed = 1;
nodes = (
(472,0,l),
(625,720,l),
(545,720,l),
(473,383,l),
(490,385,l),
(484,470,o),
(426,519,o),
(330,519,cs),
(190,519,o),
(76,413,o),
(42,253,cs),
(8,95,o),
(76,-10,o),
(215,-10,cs),
(308,-10,o),
(390,38,o),
(432,116,c),
(422,119,l),
(397,0,l)
);
},
{
closed = 1;
nodes = (
(144,60,o),
(98,133,o),
(124,253,cs),
(150,375,o),
(226,449,o),
(327,449,cs),
(428,449,o),
(476,375,o),
(450,256,cs),
(425,135,o),
(347,60,o),
(245,60,cs)
);
}
);
};
layerId = m007;
shapes = (
{
closed = 1;
nodes = (
(467,0,l),
(633,720,l),
(553,720,l),
(470,364,l),
(486,365,l),
(485,456,o),
(417,519,o),
(316,519,cs),
(164,519,o),
(39,376,o),
(39,201,cs),
(39,71,o),
(111,-10,o),
(230,-10,cs),
(312,-10,o),
(382,29,o),
(421,98,c),
(416,102,l),
(392,0,l)
);
},
{
closed = 1;
nodes = (
(170,60,o),
(121,119,o),
(121,213,cs),
(121,342,o),
(207,449,o),
(319,449,cs),
(401,449,o),
(454,390,o),
(454,294,cs),
(454,166,o),
(363,60,o),
(252,60,cs)
);
}
);
width = 606;
},
{
anchors = (
{
name = bottom;
pos = (255,0);
},
{
name = center;
pos = (314,255);
},
{
name = top;
pos = (425,740);
},
{
name = topright;
pos = (725,720);
}
);
background = {
shapes = (
{
closed = 1;
nodes = (
(514,0,l),
(667,720,l),
(517,720,l),
(447,392,l),
(459,393,l),
(464,472,o),
(411,520,o),
(314,520,cs),
(173,520,o),
(58,415,o),
(24,253,cs),
(-10,93,o),
(56,-10,o),
(197,-10,cs),
(289,-10,o),
(371,37,o),
(401,111,c),
(391,113,l),
(367,0,l)
);
},
{
closed = 1;
nodes = (
(198,110,o),
(160,161,o),
(180,254,cs),
(200,347,o),
(260,400,o),
(330,400,cs),
(402,400,o),
(440,348,o),
(420,255,cs),
(400,162,o),
(340,110,o),
(270,110,cs)
);
}
);
};
layerId = m008;
shapes = (
{
closed = 1;
nodes = (
(509,0,l),
(675,720,l),
(525,720,l),
(446,374,l),
(456,374,l),
(465,458,o),
(398,520,o),
(297,520,cs),
(142,520,o),
(21,373,o),
(21,198,cs),
(21,65,o),
(95,-10,o),
(214,-10,cs),
(298,-10,o),
(362,28,o),
(390,93,c),
(385,96,l),
(362,0,l)
);
},
{
closed = 1;
nodes = (
(217,105,o),
(177,147,o),
(177,219,cs),
(177,308,o),
(236,395,o),
(322,395,cs),
(381,395,o),
(421,353,o),
(421,281,cs),
(421,194,o),
(363,105,o),
(276,105,cs)
);
}
);
width = 628;
}
);
unicode = 100;
userData = {
KernOnName = d;
KernOnSpecialSpacing = {
R = NoKerning;
};
};
},
{
glyphname = eth;
lastChange = "2023-02-08 18:42:33 +0000";
layers = (
{
background = {
shapes = (
{
closed = 1;
nodes = (
(276,-10,o),
(362,108,o),
(405,311,cs),
(467,604,o),
(339,730,o),
(174,730,c),
(147,670,l),
(292,670,o),
(380,573,o),
(337,374,cs),
(330,341,l),
(359,380,l),
(361,459,o),
(320,504,o),
(247,504,cs),
(146,504,o),
(63,416,o),
(28,247,cs),
(-9,76,o),
(40,-10,o),
(150,-10,cs)
);
},
{
closed = 1;
nodes = (
(93,52,o),
(70,109,o),
(100,248,cs),
(129,387,o),
(177,444,o),
(246,444,cs),
(315,444,o),
(341,387,o),
(313,254,cs),
(284,116,o),
(229,52,o),
(160,52,cs)
);
},
{
closed = 1;
nodes = (
(429,716,l),
(406,753,l),
(166,582,l),
(189,545,l)
);
}
);
};
layerId = m005;
shapes = (
{
closed = 1;
nodes = (
(357,-8,o),
(417,290,o),
(417,439,cs),
(417,598,o),
(355,719,o),
(180,728,c),
(152,670,l),
(340,665,o),
(383,515,o),
(343,363,cs),
(341,355,l),
(358,367,l),
(362,451,o),
(317,506,o),
(242,506,cs),
(88,506,o),
(19,276,o),
(19,162,cs),
(19,50,o),
(81,-8,o),
(165,-8,cs)
);
},
{
closed = 1;
nodes = (
(121,53,o),
(89,88,o),
(89,161,cs),
(89,238,o),
(129,445,o),
(253,445,cs),
(311,445,o),
(330,398,o),
(330,337,cs),
(330,250,o),
(289,53,o),
(171,53,cs)
);
},
{
closed = 1;
nodes = (
(435,702,l),
(413,742,l),
(173,593,l),
(196,553,l)
);
}
);
width = 432;
},
{
background = {
shapes = (
{
closed = 1;
nodes = (
(326,-10,o),
(414,104,o),
(457,305,cs),
(520,604,o),
(393,730,o),
(182,730,c),
(137,635,l),
(294,635,o),
(370,557,o),
(327,354,cs),
(322,331,l),
(368,392,l),
(364,462,o),
(345,506,o),
(273,506,cs),
(167,506,o),
(62,423,o),
(27,258,cs),
(-11,81,o),
(48,-10,o),
(179,-10,cs)
);
},
{
closed = 1;
nodes = (
(159,98,o),
(142,140,o),
(166,255,cs),
(191,371,o),
(225,412,o),
(271,412,cs),
(316,412,o),
(333,371,o),
(308,256,cs),
(284,141,o),
(249,98,o),
(204,98,cs)
);
},
{
closed = 1;
nodes = (
(505,684,l),
(478,755,l),
(167,583,l),
(194,512,l)
);
}
);
};
layerId = m006;
shapes = (
{
closed = 1;
nodes = (
(413,-9,o),
(469,293,o),
(469,432,cs),
(469,631,o),
(365,725,o),
(191,727,c),
(144,635,l),
(336,632,o),
(363,509,o),
(325,347,cs),
(320,324,l),
(366,381,l),
(363,460,o),
(340,508,o),
(258,508,cs),
(89,508,o),
(20,308,o),
(20,184,cs),
(20,57,o),
(89,-9,o),
(195,-9,cs)
);
},
{
closed = 1;
nodes = (
(177,99,o),
(157,125,o),
(157,169,cs),
(157,234,o),
(196,412,o),
(270,412,cs),
(294,412,o),
(317,390,o),
(317,339,cs),
(317,282,o),
(285,99,o),
(204,99,cs)
);
},
{
closed = 1;
nodes = (
(521,661,l),
(495,736,l),
(186,593,l),
(211,518,l)
);
}
);
width = 471;
},
{
background = {
shapes = (
{
closed = 1;
nodes = (
(391,-10,o),
(521,117,o),
(570,350,cs),
(622,592,o),
(484,730,o),
(220,730,c),
(196,665,l),
(425,665,o),
(534,556,o),
(491,354,cs),
(477,289,l),
(509,338,l),
(510,431,o),
(437,494,o),
(329,494,cs),
(200,494,o),
(71,399,o),
(37,240,cs),
(3,81,o),
(92,-10,o),
(228,-10,cs)
);
},
{
closed = 1;
nodes = (
(153,62,o),
(94,123,o),
(119,241,cs),
(145,362,o),
(224,424,o),
(318,424,cs),
(407,424,o),
(478,366,o),
(453,250,cs),
(428,130,o),
(340,62,o),
(239,62,cs)
);
},
{
closed = 1;
nodes = (
(572,705,l),
(551,755,l),
(230,577,l),
(250,527,l)
);
}
);
};
layerId = m007;
shapes = (
{
closed = 1;
nodes = (
(477,-9,o),
(575,253,o),
(575,423,cs),
(575,613,o),
(451,723,o),
(229,730,c),
(205,667,l),
(442,659,o),
(529,523,o),
(486,336,cs),
(471,271,l),
(503,318,l),
(506,419,o),
(425,497,o),
(308,497,cs),
(154,497,o),
(36,358,o),
(36,204,cs),
(36,61,o),
(136,-9,o),
(253,-9,cs)
);
},
{
closed = 1;
nodes = (
(179,64,o),
(118,111,o),
(118,206,cs),
(118,297,o),
(171,426,o),
(302,426,cs),
(383,426,o),
(453,376,o),
(453,278,cs),
(453,176,o),
(377,64,o),
(257,64,cs)
);
},
{
closed = 1;
nodes = (
(578,684,l),
(559,737,l),
(239,590,l),
(258,537,l)
);
}
);
width = 592;
},
{
background = {
shapes = (
{
closed = 1;
nodes = (
(441,-10,o),
(561,110,o),
(605,314,cs),
(661,581,o),
(527,730,o),
(235,730,c),
(190,632,l),
(420,632,o),
(499,530,o),
(461,354,cs),
(447,289,l),
(497,338,l),
(504,434,o),
(449,494,o),
(338,494,cs),
(204,494,o),
(61,402,o),
(28,245,cs),
(-6,83,o),
(90,-10,o),
(247,-10,cs)
);
},
{
closed = 1;
nodes = (
(215,108,o),
(169,148,o),
(190,244,cs),
(209,336,o),
(272,378,o),
(336,378,cs),
(401,378,o),
(451,339,o),
(431,246,cs),
(411,151,o),
(341,108,o),
(277,108,cs)
);
},
{
closed = 1;
nodes = (
(590,683,l),
(560,756,l),
(233,576,l),
(264,503,l)
);
}
);
};
layerId = m008;
shapes = (
{
closed = 1;
nodes = (
(534,-9,o),
(612,244,o),
(612,403,cs),
(612,602,o),
(490,720,o),
(243,727,c),
(197,632,l),
(425,631,o),
(496,520,o),
(457,341,cs),
(443,276,l),
(492,321,l),
(503,440,o),
(420,498,o),
(313,498,cs),
(153,498,o),
(27,367,o),
(27,212,cs),
(27,61,o),
(148,-9,o),
(281,-9,cs)
);
},
{
closed = 1;
nodes = (
(235,109,o),
(188,140,o),
(188,211,cs),
(188,274,o),
(225,379,o),
(326,379,cs),
(381,379,o),
(431,346,o),
(431,268,cs),
(431,191,o),
(380,109,o),
(291,109,cs)
);
},
{
closed = 1;
nodes = (
(596,662,l),
(567,739,l),
(243,590,l),
(272,513,l)
);
}
);
width = 616;
}
);
metricRight = "=|d";
unicode = 240;
},
{
glyphname = dcroat;
kernLeft = KO_d;
kernRight = KO_j;
lastChange = "2023-03-04 15:43:12 +0000";
layers = (
{
layerId = m005;
shapes = (
{
ref = d;
},
{
closed = 1;
nodes = (
(526,595,l),
(537,643,l),
(270,643,l),
(259,595,l)
);
}
);
width = 448;
},
{
layerId = m006;
shapes = (
{
ref = d;
},
{
closed = 1;
nodes = (
(553,578,l),
(575,671,l),
(268,671,l),
(246,578,l)
);
}
);
width = 479;
},
{
layerId = m007;
shapes = (
{
ref = d;
},
{
closed = 1;
nodes = (
(684,595,l),
(698,653,l),
(363,653,l),
(349,595,l)
);
}
);
width = 606;
},
{
layerId = m008;
shapes = (
{
ref = d;
},
{
closed = 1;
nodes = (
(702,578,l),
(725,676,l),
(339,676,l),
(316,578,l)
);
}
);
width = 628;
}
);
unicode = 273;
},
{
glyphname = e;
kernLeft = KO_e;
kernRight = KO_e;
lastChange = "2023-03-04 15:43:34 +0000";
layers = (
{
anchors = (
{
name = bottom;
pos = (142,0);
},
{
name = ogonek;
pos = (240,20);
},
{
name = top;
pos = (271,510);
}
);
background = {
shapes = (
{
closed = 1;
nodes = (
(238,-10,o),
(309,58,o),
(341,162,c),
(277,162,l),
(257,93,o),
(217,50,o),
(163,50,cs),
(99,50,o),
(78,123,o),
(106,253,cs),
(134,387,o),
(187,460,o),
(255,460,cs),
(318,460,o),
(332,400,o),
(303,258,c),
(339,298,l),
(90,298,l),
(78,240,l),
(363,240,l),
(364,246,o),
(366,253,o),
(367,259,cs),
(405,437,o),
(370,520,o),
(273,520,cs),
(160,520,o),
(71,420,o),
(36,253,cs),
(1,89,o),
(43,-10,o),
(148,-10,cs)
);
}
);
};
layerId = m005;
shapes = (
{
closed = 1;
nodes = (
(243,-10,o),
(306,50,o),
(340,162,c),
(276,162,l),
(254,89,o),
(218,50,o),
(170,50,cs),
(122,50,o),
(96,89,o),
(96,158,cs),
(96,242,o),
(139,458,o),
(254,458,cs),
(342,458,o),
(319,325,o),
(301,247,c),
(338,298,l),
(94,298,l),
(82,240,l),
(361,240,l),
(370,265,o),
(380,324,o),
(380,371,cs),
(380,470,o),
(337,518,o),
(261,518,cs),
(89,518,o),
(26,280,o),
(26,160,cs),
(26,54,o),
(74,-10,o),
(160,-10,cs)
);
}
);
width = 402;
},
{
anchors = (
{
name = bottom;
pos = (161,0);
},
{
name = ogonek;
pos = (275,20);
},
{
name = top;
pos = (279,510);
}
);
background = {
shapes = (
{
closed = 1;
nodes = (
(276,-10,o),
(352,62,o),
(390,162,c),
(268,162,l),
(251,114,o),
(228,90,o),
(194,90,cs),
(146,90,o),
(135,140,o),
(160,257,cs),
(184,372,o),
(219,420,o),
(264,420,cs),
(309,420,o),
(326,379,o),
(304,279,c),
(339,310,l),
(116,310,l),
(97,221,l),
(408,221,l),
(413,234,o),
(417,250,o),
(421,269,cs),
(455,429,o),
(408,520,o),
(287,520,cs),
(159,520,o),
(55,418,o),
(21,257,cs),
(-13,97,o),
(46,-10,o),
(168,-10,cs)
);
}
);
};
layerId = m006;
shapes = (
{
closed = 1;
nodes = (
(283,-10,o),
(351,52,o),
(389,162,c),
(269,162,l),
(250,110,o),
(231,90,o),
(199,90,cs),
(167,90,o),
(150,111,o),
(150,158,cs),
(150,213,o),
(178,418,o),
(267,418,cs),
(329,418,o),
(318,322,o),
(305,271,c),
(339,310,l),
(121,310,l),
(102,221,l),
(406,221,l),
(420,254,o),
(431,301,o),
(431,346,cs),
(431,455,o),
(372,518,o),
(271,518,cs),
(90,518,o),
(16,316,o),
(16,189,cs),
(16,68,o),
(82,-10,o),
(188,-10,cs)
);
}
);
width = 439;
},
{
anchors = (
{
name = bottom;
pos = (222,0);
},
{
name = ogonek;
pos = (354,20);
},
{
name = top;
pos = (334,510);
}
);
background = {
shapes = (
{
closed = 1;
nodes = (
(336,-10,o),
(431,47,o),
(484,141,c),
(408,141,l),
(374,88,o),
(315,58,o),
(250,58,cs),
(146,58,o),
(96,137,o),
(122,258,cs),
(147,376,o),
(230,452,o),
(332,452,cs),
(431,452,o),
(472,383,o),
(446,261,c),
(480,298,l),
(108,298,l),
(94,231,l),
(515,231,l),
(520,245,o),
(523,256,o),
(526,270,cs),
(559,422,o),
(489,520,o),
(347,520,cs),
(198,520,o),
(73,413,o),
(40,257,cs),
(6,101,o),
(86,-10,o),
(232,-10,cs)
);
}
);
};
layerId = m007;
shapes = (
{
closed = 1;
nodes = (
(355,-10,o),
(431,40,o),
(481,141,c),
(405,141,l),
(373,85,o),
(328,58,o),
(267,58,cs),
(176,58,o),
(121,117,o),
(121,216,cs),
(121,346,o),
(212,452,o),
(322,452,cs),
(446,452,o),
(468,342,o),
(444,244,c),
(478,298,l),
(115,298,l),
(100,231,l),
(513,231,l),
(526,259,o),
(532,289,o),
(532,320,cs),
(532,440,o),
(450,520,o),
(326,520,cs),
(167,520,o),
(39,384,o),
(39,214,cs),
(39,79,o),
(125,-10,o),
(256,-10,cs)
);
}
);
width = 563;
},
{
anchors = (
{
name = bottom;
pos = (230,0);
},
{
name = ogonek;
pos = (383,20);
},
{
name = top;
pos = (336,510);
}
);
background = {
shapes = (
{
closed = 1;
nodes = (
(373,-10,o),
(466,50,o),
(521,149,c),
(380,149,l),
(354,113,o),
(316,98,o),
(268,98,cs),
(181,98,o),
(148,148,o),
(171,252,cs),
(193,359,o),
(250,412,o),
(329,412,cs),
(397,412,o),
(430,373,o),
(413,291,c),
(443,309,l),
(122,309,l),
(101,210,l),
(543,210,l),
(548,226,o),
(554,243,o),
(558,265,cs),
(591,418,o),
(512,520,o),
(354,520,cs),
(190,520,o),
(56,413,o),
(22,255,cs),
(-11,98,o),
(76,-10,o),
(246,-10,cs)
);
}
);
};
layerId = m008;
shapes = (
{
closed = 1;
nodes = (
(374,-10,o),
(473,49,o),
(518,149,c),
(379,149,l),
(360,120,o),
(326,98,o),
(272,98,cs),
(206,98,o),
(165,130,o),
(165,215,cs),
(165,295,o),
(201,412,o),
(317,412,cs),
(407,412,o),
(426,341,o),
(410,279,c),
(439,309,l),
(124,309,l),
(103,210,l),
(536,210,l),
(551,228,o),
(560,263,o),
(560,305,cs),
(560,448,o),
(453,520,o),
(323,520,cs),
(137,520,o),
(19,372,o),
(19,216,cs),
(19,67,o),
(126,-10,o),
(258,-10,cs)
);
}
);
width = 575;
}
);
metricLeft = o;
metricRight = o;
unicode = 101;
userData = {
KernOnName = e;
};
},
{
glyphname = f;
kernLeft = KO_f;
kernRight = KO_f;
lastChange = "2023-02-08 18:45:53 +0000";
layers = (
{
background = {
shapes = (
{
closed = 1;
nodes = (
(94,0,l),
(224,612,ls),
(232,649,o),
(256,672,o),
(298,672,cs),
(312,672,o),
(323,670,o),
(329,668,c),
(341,725,l),
(334,728,o),
(324,730,o),
(298,730,cs),
(224,730,o),
(173,690,o),
(158,619,cs),
(26,0,l)
);
},
{
closed = 1;
nodes = (
(275,452,l),
(287,510,l),
(66,510,l),
(54,452,l)
);
}
);
};
layerId = m005;
shapes = (
{
closed = 1;
nodes = (
(90,0,l),
(232,617,ls),
(239,650,o),
(260,670,o),
(300,670,cs),
(313,670,o),
(330,667,o),
(336,665,c),
(349,721,l),
(336,727,o),
(316,730,o),
(293,730,cs),
(225,730,o),
(182,695,o),
(167,631,cs),
(22,0,l)
);
},
{
closed = 1;
nodes = (
(279,452,l),
(292,510,l),
(71,510,l),
(58,452,l)
);
}
);
width = 253;
},
{
background = {
shapes = (
{
closed = 1;
nodes = (
(151,0,l),
(273,572,ls),
(279,604,o),
(301,622,o),
(338,622,cs),
(349,622,o),
(358,621,o),
(364,618,c),
(387,723,l),
(372,728,o),
(356,730,o),
(333,730,cs),
(224,730,o),
(157,678,o),
(135,576,cs),
(13,0,l)
);
},
{
closed = 1;
nodes = (
(314,402,l),
(337,510,l),
(64,510,l),
(41,402,l)
);
}
);
};
guides = (
{
pos = (281,276);
}
);
layerId = m006;
shapes = (
{
closed = 1;
nodes = (
(147,0,l),
(279,574,ls),
(285,602,o),
(304,618,o),
(343,618,cs),
(352,618,o),
(361,617,o),
(370,614,c),
(394,718,l),
(374,726,o),
(346,730,o),
(321,730,cs),
(222,730,o),
(166,683,o),
(145,592,cs),
(9,0,l)
);
},
{
closed = 1;
nodes = (
(317,402,l),
(342,510,l),
(69,510,l),
(44,402,l)
);
}
);
width = 301;
},
{
background = {
shapes = (
{
closed = 1;
nodes = (
(148,0,l),
(271,578,ls),
(283,634,o),
(317,666,o),
(379,666,cs),
(398,666,o),
(415,663,o),
(423,660,c),
(437,723,l),
(427,727,o),
(413,730,o),
(387,730,cs),
(276,730,o),
(211,675,o),
(192,582,cs),
(68,0,l)
);
},
{
closed = 1;
nodes = (
(366,442,l),
(380,510,l),
(71,510,l),
(57,442,l)
);
}
);
};
guides = (
{
pos = (259,276);
}
);
layerId = m007;
shapes = (
{
closed = 1;
nodes = (
(143,0,l),
(277,583,ls),
(289,634,o),
(318,666,o),
(377,666,cs),
(397,666,o),
(417,662,o),
(428,657,c),
(444,719,l),
(425,726,o),
(398,730,o),
(375,730,cs),
(273,730,o),
(219,679,o),
(200,596,cs),
(63,0,l)
);
},
{
closed = 1;
nodes = (
(369,442,l),
(384,510,l),
(76,510,l),
(61,442,l)
);
}
);
width = 354;
},
{
background = {
shapes = (
{
closed = 1;
nodes = (
(195,0,l),
(310,542,ls),
(320,587,o),
(348,612,o),
(399,612,cs),
(417,612,o),
(430,610,o),
(439,606,c),
(463,721,l),
(445,727,o),
(426,730,o),
(398,730,cs),
(267,730,o),
(187,667,o),
(161,544,cs),
(45,0,l)
);
},
{
closed = 1;
nodes = (
(383,396,l),
(407,510,l),
(68,510,l),
(44,396,l)
);
}
);
};
guides = (
{
pos = (266,276);
}
);
layerId = m008;
shapes = (
{
closed = 1;
nodes = (
(191,0,l),
(317,546,ls),
(326,586,o),
(348,612,o),
(401,612,cs),
(418,612,o),
(434,609,o),
(445,605,c),
(471,718,l),
(440,727,o),
(413,730,o),
(383,730,cs),
(262,730,o),
(196,674,o),
(171,563,cs),
(41,0,l)
);
},
{
closed = 1;
nodes = (
(386,396,l),
(412,510,l),
(73,510,l),
(47,396,l)
);
}
);
width = 378;
}
);
unicode = 102;
userData = {
KernOnName = f;
};
},
{
glyphname = g;
kernLeft = KO_g;
lastChange = "2023-02-08 19:14:32 +0000";
layers = (
{
anchors = (
{
name = bottom;
pos = (126,-205);
},
{
name = top;
pos = (268,510);
}
);
background = {
shapes = (
{
closed = 1;
nodes = (
(222,-215,o),
(299,-147,o),
(324,-28,cs),
(438,510,l),
(378,510,l),
(357,408,l),
(364,408,l),
(371,476,o),
(332,520,o),
(265,520,cs),
(159,520,o),
(73,420,o),
(38,254,cs),
(4,95,o),
(43,0,o),
(142,0,cs),
(210,0,o),
(271,44,o),
(292,109,c),
(285,110,l),
(254,-38,ls),
(237,-117,o),
(196,-155,o),
(129,-155,cs),
(71,-155,o),
(42,-124,o),
(51,-71,c),
(-11,-71,l),
(-25,-158,o),
(19,-215,o),
(113,-215,cs)
);
},
{
closed = 1;
nodes = (
(103,62,o),
(81,128,o),
(109,260,cs),
(138,393,o),
(186,458,o),
(257,458,cs),
(329,458,o),
(352,393,o),
(323,260,cs),
(295,127,o),
(246,62,o),
(175,62,cs)
);
}
);
};
layerId = m005;
shapes = (
{
closed = 1;
nodes = (
(231,-215,o),
(297,-155,o),
(320,-46,cs),
(438,510,l),
(378,510,l),
(352,386,l),
(358,392,l),
(364,471,o),
(314,520,o),
(245,520,cs),
(127,520,o),
(32,354,o),
(32,168,cs),
(32,63,o),
(76,-10,o),
(154,-10,cs),
(209,-10,o),
(260,23,o),
(287,84,c),
(282,94,l),
(252,-48,ls),
(237,-120,o),
(201,-155,o),
(144,-155,cs),
(78,-155,o),
(49,-123,o),
(51,-71,c),
(-10,-71,l),
(-14,-138,o),
(20,-215,o),
(137,-215,cs)
);
},
{
closed = 1;
nodes = (
(131,52,o),
(102,101,o),
(102,178,cs),
(102,328,o),
(166,458,o),
(252,458,cs),
(301,458,o),
(333,420,o),
(333,343,cs),
(333,261,o),
(296,52,o),
(183,52,cs)
);
}
);
width = 448;
},
{
anchors = (
{
name = bottom;
pos = (134,-205);
},
{
name = top;
pos = (294,510);
}
);
background = {
shapes = (
{
closed = 1;
nodes = (
(265,-215,o),
(352,-138,o),
(381,-2,cs),
(489,510,l),
(359,510,l),
(338,408,l),
(345,408,l),
(350,480,o),
(318,520,o),
(252,520,cs),
(148,520,o),
(60,420,o),
(26,261,cs),
(-6,106,o),
(36,8,o),
(135,8,cs),
(197,8,o),
(251,50,o),
(275,117,c),
(268,117,l),
(237,-30,ls),
(228,-71,o),
(198,-97,o),
(162,-97,cs),
(129,-97,o),
(109,-77,o),
(113,-46,c),
(-17,-46,l),
(-34,-149,o),
(27,-215,o),
(141,-215,cs)
);
},
{
closed = 1;
nodes = (
(163,118,o),
(148,165,o),
(169,262,cs),
(190,361,o),
(226,410,o),
(268,410,cs),
(310,410,o),
(325,364,o),
(305,266,cs),
(283,167,o),
(247,118,o),
(205,118,cs)
);
}
);
};
guides = (
{
pos = (112,-46);
}
);
layerId = m006;
shapes = (
{
closed = 1;
nodes = (
(258,-215,o),
(342,-147,o),
(371,-23,cs),
(494,510,l),
(364,510,l),
(339,399,l),
(343,394,l),
(349,473,o),
(296,520,o),
(235,520,cs),
(117,520,o),
(17,347,o),
(17,159,cs),
(17,59,o),
(61,-10,o),
(132,-10,cs),
(185,-10,o),
(240,24,o),
(268,86,c),
(261,92,l),
(229,-36,ls),
(219,-77,o),
(193,-97,o),
(160,-97,cs),
(125,-97,o),
(105,-71,o),
(108,-46,c),
(-20,-46,l),
(-34,-128,o),
(19,-215,o),
(152,-215,cs)
);
},
{
closed = 1;
nodes = (
(177,100,o),
(159,134,o),
(159,180,cs),
(159,293,o),
(208,410,o),
(267,410,cs),
(293,410,o),
(311,385,o),
(311,331,cs),
(311,264,o),
(281,100,o),
(204,100,cs)
);
}
);
width = 479;
},
{
anchors = (
{
name = bottom;
pos = (205,-205);
},
{
name = top;
pos = (341,510);
}
);
background = {
shapes = (
{
closed = 1;
nodes = (
(326,-215,o),
(439,-126,o),
(472,20,cs),
(585,510,l),
(510,510,l),
(481,383,l),
(491,384,l),
(489,470,o),
(432,519,o),
(336,519,cs),
(196,519,o),
(79,414,o),
(44,258,cs),
(8,104,o),
(74,0,o),
(209,0,cs),
(302,0,o),
(386,49,o),
(427,127,c),
(417,129,l),
(392,20,ls),
(367,-90,o),
(300,-147,o),
(196,-147,cs),
(108,-147,o),
(65,-114,o),
(62,-60,c),
(-14,-60,l),
(-19,-154,o),
(53,-215,o),
(175,-215,cs)
);
},
{
closed = 1;
nodes = (
(145,69,o),
(98,143,o),
(126,259,cs),
(153,377,o),
(232,450,o),
(333,450,cs),
(433,450,o),
(479,378,o),
(453,262,cs),
(424,143,o),
(345,69,o),
(245,69,cs)
);
}
);
};
guides = (
{
pos = (91,-60);
}
);
layerId = m007;
shapes = (
{
closed = 1;
nodes = (
(341,-215,o),
(435,-138,o),
(466,-5,cs),
(585,510,l),
(510,510,l),
(476,367,l),
(486,377,l),
(479,461,o),
(413,519,o),
(316,519,cs),
(164,519,o),
(39,376,o),
(39,201,cs),
(39,71,o),
(111,-10,o),
(230,-10,cs),
(308,-10,o),
(376,25,o),
(416,89,c),
(411,102,l),
(388,3,ls),
(365,-96,o),
(298,-147,o),
(211,-147,cs),
(135,-147,o),
(76,-124,o),
(63,-60,c),
(-11,-60,l),
(-4,-154,o),
(82,-215,o),
(210,-215,cs)
);
},
{
closed = 1;
nodes = (
(170,60,o),
(121,119,o),
(121,213,cs),
(121,342,o),
(207,449,o),
(319,449,cs),
(401,449,o),
(454,390,o),
(454,294,cs),
(454,166,o),
(363,60,o),
(252,60,cs)
);
}
);
width = 606;
},
{
anchors = (
{
name = bottom;
pos = (211,-205);
},
{
name = top;
pos = (361,510);
}
);
background = {
shapes = (
{
closed = 1;
nodes = (
(355,-215,o),
(480,-125,o),
(514,22,cs),
(626,510,l),
(479,510,l),
(452,392,l),
(460,393,l),
(466,472,o),
(414,520,o),
(318,520,cs),
(178,520,o),
(61,417,o),
(26,262,cs),
(-10,108,o),
(56,8,o),
(192,8,cs),
(287,8,o),
(365,54,o),
(396,129,c),
(389,131,l),
(363,20,ls),
(347,-53,o),
(299,-87,o),
(209,-87,cs),
(154,-87,o),
(121,-74,o),
(116,-48,c),
(-26,-48,l),
(-34,-151,o),
(44,-215,o),
(186,-215,cs)
);
},
{
closed = 1;
nodes = (
(198,123,o),
(161,172,o),
(182,263,cs),
(202,354,o),
(263,405,o),
(333,405,cs),
(405,405,o),
(442,355,o),
(422,264,cs),
(401,173,o),
(340,123,o),
(270,123,cs)
);
}
);
};
layerId = m008;
shapes = (
{
closed = 1;
nodes = (
(383,-215,o),
(478,-138,o),
(508,-6,cs),
(626,510,l),
(480,510,l),
(450,374,l),
(456,374,l),
(465,458,o),
(398,520,o),
(297,520,cs),
(142,520,o),
(21,373,o),
(21,198,cs),
(21,65,o),
(95,-10,o),
(214,-10,cs),
(298,-10,o),
(362,28,o),
(390,93,c),
(381,96,l),
(360,8,ls),
(345,-56,o),
(297,-87,o),
(229,-87,cs),
(154,-87,o),
(124,-71,o),
(117,-48,c),
(-22,-48,l),
(-23,-154,o),
(88,-215,o),
(219,-215,cs)
);
},
{
closed = 1;
nodes = (
(217,105,o),
(177,147,o),
(177,219,cs),
(177,308,o),
(236,395,o),
(322,395,cs),
(381,395,o),
(421,353,o),
(421,281,cs),
(421,194,o),
(363,105,o),
(276,105,cs)
);
}
);
width = 628;
}
);
unicode = 103;
userData = {
KernOnSpecialSpacing = {
R = NoKerning;
};
};
},
{
glyphname = h;
kernRight = KO_n;
lastChange = "2023-02-08 18:50:13 +0000";
layers = (
{
anchors = (
{
name = bottom;
pos = (162,0);
},
{
name = top;
pos = (279,510);
}
);
background = {
shapes = (
{
closed = 1;
nodes = (
(73,0,l),
(226,720,l),
(158,720,l),
(5,0,l)
);
},
{
closed = 1;
nodes = (
(323,0,l),
(406,389,ls),
(423,470,o),
(389,520,o),
(315,520,cs),
(250,520,o),
(193,481,o),
(153,421,c),
(143,330,l),
(158,399,o),
(210,458,o),
(283,458,cs),
(329,458,o),
(347,433,o),
(334,373,cs),
(255,0,l)
);
}
);
};
layerId = m005;
shapes = (
{
closed = 1;
nodes = (
(73,0,l),
(239,720,l),
(171,720,l),
(5,0,l)
);
},
{
closed = 1;
nodes = (
(323,0,l),
(410,377,ls),
(429,461,o),
(388,520,o),
(308,520,cs),
(244,520,o),
(191,483,o),
(159,410,c),
(149,330,l),
(167,410,o),
(221,461,o),
(284,461,cs),
(333,461,o),
(353,430,o),
(341,377,cs),
(255,0,l)
);
}
);
width = 442;
},
{
anchors = (
{
name = bottom;
pos = (162,0);
},
{
name = top;
pos = (279,510);
}
);
background = {
shapes = (
{
closed = 1;
nodes = (
(123,0,l),
(276,720,l),
(138,720,l),
(-15,0,l)
);
},
{
closed = 1;
nodes = (
(363,0,l),
(446,391,ls),
(463,472,o),
(431,520,o),
(360,520,cs),
(290,520,o),
(233,481,o),
(192,411,c),
(195,338,l),
(203,377,o),
(230,410,o),
(269,410,cs),
(297,410,o),
(309,394,o),
(302,360,cs),
(225,0,l)
);
}
);
};
layerId = m006;
shapes = (
{
closed = 1;
nodes = (
(123,0,l),
(289,720,l),
(151,720,l),
(-15,0,l)
);
},
{
closed = 1;
nodes = (
(363,0,l),
(451,379,ls),
(470,462,o),
(431,520,o),
(356,520,cs),
(290,520,o),
(232,481,o),
(198,408,c),
(200,334,l),
(213,388,o),
(237,414,o),
(271,414,cs),
(304,414,o),
(316,394,o),
(306,352,cs),
(225,0,l)
);
}
);
width = 462;
},
{
anchors = (
{
name = bottom;
pos = (260,0);
},
{
name = top;
pos = (377,510);
}
);
background = {
shapes = (
{
closed = 1;
nodes = (
(101,0,l),
(254,720,l),
(174,720,l),
(21,0,l)
);
},
{
closed = 1;
nodes = (
(466,0,l),
(541,355,ls),
(563,454,o),
(506,520,o),
(400,520,cs),
(309,520,o),
(223,473,o),
(172,397,c),
(160,276,l),
(182,379,o),
(267,450,o),
(367,450,cs),
(443,450,o),
(473,411,o),
(457,334,cs),
(386,0,l)
);
}
);
};
guides = (
{
angle = 222.6141;
pos = (101,452);
}
);
layerId = m007;
shapes = (
{
closed = 1;
nodes = (
(101,0,l),
(267,720,l),
(187,720,l),
(21,0,l)
);
},
{
closed = 1;
nodes = (
(466,0,l),
(539,317,ls),
(567,441,o),
(506,520,o),
(386,520,cs),
(307,520,o),
(233,479,o),
(181,407,c),
(166,282,l),
(192,387,o),
(267,452,o),
(362,452,cs),
(442,452,o),
(479,403,o),
(458,313,cs),
(386,0,l)
);
}
);
width = 599;
},
{
anchors = (
{
name = bottom;
pos = (231,0);
},
{
name = top;
pos = (348,510);
}
);
background = {
shapes = (
{
closed = 1;
nodes = (
(151,0,l),
(304,720,l),
(154,720,l),
(1,0,l)
);
},
{
closed = 1;
nodes = (
(506,0,l),
(573,316,ls),
(599,438,o),
(540,520,o),
(425,520,cs),
(342,520,o),
(260,470,o),
(222,396,c),
(209,273,l),
(226,355,o),
(280,402,o),
(351,402,cs),
(411,402,o),
(434,370,o),
(420,303,cs),
(356,0,l)
);
}
);
};
layerId = m008;
shapes = (
{
closed = 1;
nodes = (
(151,0,l),
(317,720,l),
(167,720,l),
(1,0,l)
);
},
{
closed = 1;
nodes = (
(506,0,l),
(579,316,ls),
(607,438,o),
(549,520,o),
(435,520,cs),
(352,520,o),
(269,470,o),
(228,394,c),
(213,271,l),
(234,355,o),
(288,402,o),
(359,402,cs),
(418,402,o),
(440,370,o),
(425,303,cs),
(356,0,l)
);
}
);
width = 619;
}
);
metricLeft = n;
metricRight = n;
unicode = 104;
userData = {
KernOnSpecialSpacing = {
L = NoKerning;
};
};
},
{
glyphname = hbar;
kernRight = KO_n;
lastChange = "2023-03-04 15:45:18 +0000";
layers = (
{
layerId = m005;
shapes = (
{
ref = h;
},
{
closed = 1;
nodes = (
(346,595,l),
(357,643,l),
(90,643,l),
(79,595,l)
);
}
);
width = 442;
},
{
layerId = m006;
shapes = (
{
ref = h;
},
{
closed = 1;
nodes = (
(382,578,l),
(404,671,l),
(97,671,l),
(75,578,l)
);
}
);
width = 462;
},
{
layerId = m007;
shapes = (
{
ref = h;
},
{
closed = 1;
nodes = (
(413,595,l),
(427,653,l),
(92,653,l),
(78,595,l)
);
}
);
width = 599;
},
{
layerId = m008;
shapes = (
{
ref = h;
},
{
closed = 1;
nodes = (
(461,578,l),
(484,676,l),
(98,676,l),
(75,578,l)
);
}
);
width = 619;
}
);
unicode = 295;
},
{
glyphname = i;
kernLeft = KO_i;
kernRight = KO_i;
lastChange = "2023-03-04 15:41:46 +0000";
layers = (
{
anchors = (
{
name = bottom;
pos = (110,0);
}
);
background = {
shapes = (
{
closed = 1;
nodes = (
(130,0,l),
(130,510,l),
(62,510,l),
(62,0,l)
);
},
{
closed = 1;
nodes = (
(140,609,o),
(161,631,o),
(161,660,cs),
(161,689,o),
(140,710,o),
(112,710,cs),
(84,710,o),
(62,689,o),
(62,660,cs),
(62,631,o),
(84,609,o),
(112,609,cs)
);
}
);
};
guides = (
{
angle = 270;
pos = (77,240);
},
{
angle = 90;
pos = (145,290);
}
);
layerId = m005;
shapes = (
{
ref = idotless;
slant = (0.1345,0);
},
{
pos = (-8,0);
ref = dotaccentcomb;
slant = (0.1345,0);
}
);
width = 197;
},
{
anchors = (
{
name = bottom;
pos = (86,0);
}
);
background = {
shapes = (
{
closed = 1;
nodes = (
(185,0,l),
(185,21,l),
(155,26,ls),
(127,31,o),
(121,39,o),
(121,67,cs),
(121,513,l),
(101,513,l),
(76,495,o),
(42,479,o),
(-4,471,c),
(-4,451,l),
(28,446,ls),
(48,443,o),
(53,436,o),
(53,413,cs),
(53,67,ls),
(53,38,o),
(46,29,o),
(19,25,cs),
(-11,21,l),
(-11,0,l)
);
},
{
closed = 1;
nodes = (
(116,605,o),
(137,627,o),
(137,658,cs),
(137,689,o),
(116,710,o),
(88,710,cs),
(60,710,o),
(38,689,o),
(38,658,cs),
(38,627,o),
(60,605,o),
(88,605,cs)
);
}
);
};
guides = (
{
angle = 270;
pos = (53,240);
},
{
angle = 90;
pos = (121,290);
}
);
layerId = m006;
shapes = (
{
ref = idotless;
slant = (0.1345,0);
},
{
pos = (-22,0);
ref = dotaccentcomb;
slant = (0.1345,0);
}
);
width = 227;
},
{
anchors = (
{
name = bottom;
pos = (163,0);
}
);
background = {
shapes = (
{
closed = 1;
nodes = (
(191,0,l),
(191,510,l),
(96,510,l),
(96,0,l)
);
},
{
closed = 1;
nodes = (
(182,609,o),
(212,631,o),
(212,660,cs),
(212,689,o),
(182,710,o),
(143,710,cs),
(104,710,o),
(73,689,o),
(73,660,cs),
(73,631,o),
(104,609,o),
(143,609,cs)
);
}
);
};
guides = (
{
angle = 270;
pos = (85,240);
},
{
angle = 90;
pos = (153,290);
}
);
layerId = m007;
shapes = (
{
ref = idotless;
slant = (0.1345,0);
},
{
pos = (10,0);
ref = dotaccentcomb;
slant = (0.1345,0);
}
);
width = 241;
},
{
anchors = (
{
name = bottom;
pos = (212,0);
}
);
background = {
shapes = (
{
closed = 1;
nodes = (
(182,0,l),
(182,510,l),
(102,510,l),
(102,0,l)
);
},
{
closed = 1;
nodes = (
(174,607,o),
(198,632,o),
(198,664,cs),
(198,697,o),
(174,720,o),
(143,720,cs),
(112,720,o),
(87,697,o),
(87,664,cs),
(87,632,o),
(112,607,o),
(143,607,cs)
);
}
);
};
guides = (
{
angle = 270;
pos = (101,240);
},
{
angle = 90;
pos = (169,290);
}
);
layerId = m008;
shapes = (
{
ref = idotless;
slant = (0.1345,0);
},
{
pos = (-10,0);
ref = dotaccentcomb;
slant = (0.1345,0);
}
);
width = 271;
}
);
unicode = 105;
userData = {
KernOnName = i;
};
},
{
glyphname = idotless;
kernLeft = KO_idotless;
kernRight = KO_u;
lastChange = "2023-02-08 18:51:12 +0000";
layers = (
{
anchors = (
{
name = bottom;
pos = (40,0);
},
{
name = ogonek;
pos = (74,0);
},
{
name = top;
pos = (157,510);
}
);
layerId = m005;
shapes = (
{
closed = 1;
nodes = (
(74,0,l),
(191,510,l),
(123,510,l),
(6,0,l)
);
}
);
width = 197;
},
{
anchors = (
{
name = bottom;
pos = (55,0);
},
{
name = ogonek;
pos = (124,0);
},
{
name = top;
pos = (172,510);
}
);
layerId = m006;
shapes = (
{
closed = 1;
nodes = (
(124,0,l),
(241,510,l),
(103,510,l),
(-14,0,l)
);
}
);
width = 227;
},
{
anchors = (
{
name = bottom;
pos = (62,0);
},
{
name = ogonek;
pos = (102,0);
},
{
name = top;
pos = (179,510);
}
);
layerId = m007;
shapes = (
{
closed = 1;
nodes = (
(102,0,l),
(219,510,l),
(139,510,l),
(22,0,l)
);
}
);
width = 241;
},
{
anchors = (
{
name = bottom;
pos = (77,0);
},
{
name = ogonek;
pos = (152,0);
},
{
name = top;
pos = (194,510);
}
);
layerId = m008;
shapes = (
{
closed = 1;
nodes = (
(152,0,l),
(269,510,l),
(119,510,l),
(2,0,l)
);
}
);
width = 271;
}
);
metricRight = "=|";
unicode = 305;
},
{
glyphname = j;
kernLeft = KO_j;
kernRight = KO_j;
lastChange = "2023-03-04 15:41:46 +0000";
layers = (
{
layerId = m005;
shapes = (
{
ref = jdotless;
},
{
pos = (-8,0);
ref = dotaccentcomb;
}
);
width = 196;
},
{
background = {
shapes = (
{
closed = 1;
nodes = (
(133,-215,o),
(182,-168,o),
(182,-84,cs),
(182,510,l),
(44,510,l),
(44,-64,ls),
(44,-88,o),
(28,-97,o),
(7,-97,cs),
(-4,-97,o),
(-13,-96,o),
(-20,-93,c),
(-20,-208,l),
(-4,-213,o),
(12,-215,o),
(35,-215,cs)
);
},
{
closed = 1;
nodes = (
(162,580,o),
(199,618,o),
(199,669,cs),
(199,719,o),
(162,755,o),
(113,755,cs),
(65,755,o),
(27,719,o),
(27,669,cs),
(27,618,o),
(65,580,o),
(113,580,cs)
);
}
);
};
layerId = m006;
shapes = (
{
ref = jdotless;
},
{
pos = (-22,0);
ref = dotaccentcomb;
}
);
width = 226;
},
{
layerId = m007;
shapes = (
{
ref = jdotless;
},
{
pos = (10,0);
ref = dotaccentcomb;
}
);
width = 240;
},
{
background = {
shapes = (
{
closed = 1;
nodes = (
(153,-215,o),
(210,-152,o),
(210,-49,cs),
(210,510,l),
(60,510,l),
(60,-37,ls),
(60,-70,o),
(40,-87,o),
(6,-87,cs),
(-7,-87,o),
(-20,-85,o),
(-30,-81,c),
(-30,-206,l),
(-10,-212,o),
(9,-215,o),
(32,-215,cs)
);
},
{
closed = 1;
nodes = (
(188,562,o),
(230,605,o),
(230,658,cs),
(230,716,o),
(188,755,o),
(137,755,cs),
(84,755,o),
(40,716,o),
(40,658,cs),
(40,605,o),
(84,562,o),
(137,562,cs)
);
}
);
};
layerId = m008;
shapes = (
{
ref = jdotless;
},
{
pos = (-9,0);
ref = dotaccentcomb;
}
);
width = 271;
}
);
unicode = 106;
userData = {
KernOnName = j;
};
},
{
glyphname = jdotless;
lastChange = "2023-02-08 19:22:10 +0000";
layers = (
{
anchors = (
{
name = bottom;
pos = (-8,-205);
},
{
name = top;
pos = (157,510);
}
);
background = {
shapes = (
{
closed = 1;
nodes = (
(-15,-215,o),
(33,-174,o),
(46,-118,cs),
(191,510,l),
(123,510,l),
(-21,-114,ls),
(-28,-144,o),
(-48,-157,o),
(-82,-157,cs),
(-96,-157,o),
(-108,-155,o),
(-113,-153,c),
(-126,-210,l),
(-119,-213,o),
(-110,-215,o),
(-84,-215,cs)
);
}
);
};
guides = (
{
angle = 257.1523;
pos = (-118,-174);
}
);
layerId = m005;
shapes = (
{
closed = 1;
nodes = (
(-9,-215,o),
(32,-179,o),
(44,-127,cs),
(191,510,l),
(123,510,l),
(-21,-116,ls),
(-27,-143,o),
(-44,-157,o),
(-71,-157,cs),
(-90,-157,o),
(-105,-153,o),
(-112,-149,c),
(-125,-203,l),
(-111,-211,o),
(-81,-214,o),
(-69,-214,cs)
);
}
);
width = 196;
},
{
anchors = (
{
name = bottom;
pos = (7,-205);
},
{
name = top;
pos = (172,510);
}
);
background = {
shapes = (
{
closed = 1;
nodes = (
(24,-215,o),
(84,-168,o),
(104,-84,cs),
(241,510,l),
(103,510,l),
(-32,-74,ls),
(-38,-98,o),
(-56,-107,o),
(-77,-107,cs),
(-88,-107,o),
(-96,-106,o),
(-103,-103,c),
(-127,-208,l),
(-112,-213,o),
(-97,-215,o),
(-74,-215,cs)
);
}
);
};
layerId = m006;
shapes = (
{
closed = 1;
nodes = (
(34,-215,o),
(82,-175,o),
(100,-99,cs),
(241,510,l),
(103,510,l),
(-32,-75,ls),
(-37,-96,o),
(-51,-107,o),
(-71,-107,cs),
(-84,-107,o),
(-95,-104,o),
(-102,-100,c),
(-125,-201,l),
(-101,-213,o),
(-65,-215,o),
(-46,-215,cs)
);
}
);
width = 226;
},
{
anchors = (
{
name = bottom;
pos = (14,-205);
},
{
name = top;
pos = (179,510);
}
);
background = {
shapes = (
{
closed = 1;
nodes = (
(8,-215,o),
(62,-170,o),
(81,-87,cs),
(219,510,l),
(139,510,l),
(2,-83,ls),
(-9,-129,o),
(-31,-151,o),
(-83,-151,cs),
(-102,-151,o),
(-119,-148,o),
(-127,-145,c),
(-142,-208,l),
(-132,-212,o),
(-119,-215,o),
(-93,-215,cs)
);
}
);
};
layerId = m007;
shapes = (
{
closed = 1;
nodes = (
(18,-215,o),
(61,-174,o),
(78,-101,cs),
(219,510,l),
(139,510,l),
(1,-89,ls),
(-8,-129,o),
(-28,-151,o),
(-69,-151,cs),
(-90,-151,o),
(-115,-144,o),
(-126,-139,c),
(-140,-201,l),
(-118,-212,o),
(-81,-215,o),
(-62,-215,cs)
);
}
);
width = 240;
},
{
anchors = (
{
name = bottom;
pos = (30,-205);
},
{
name = top;
pos = (195,510);
}
);
background = {
shapes = (
{
closed = 1;
nodes = (
(45,-215,o),
(117,-152,o),
(141,-49,cs),
(270,510,l),
(120,510,l),
(-9,-47,ls),
(-16,-80,o),
(-40,-97,o),
(-74,-97,cs),
(-87,-97,o),
(-100,-95,o),
(-109,-91,c),
(-136,-206,l),
(-117,-212,o),
(-99,-215,o),
(-76,-215,cs)
);
}
);
};
layerId = m008;
shapes = (
{
closed = 1;
nodes = (
(56,-215,o),
(115,-159,o),
(138,-60,cs),
(270,510,l),
(120,510,l),
(-8,-43,ls),
(-16,-79,o),
(-37,-97,o),
(-67,-97,cs),
(-83,-97,o),
(-98,-93,o),
(-109,-87,c),
(-135,-198,l),
(-105,-211,o),
(-74,-215,o),
(-44,-215,cs)
);
}
);
width = 271;
}
);
metricRight = idotless;
unicode = 567;
},
{
glyphname = k;
kernRight = KO_k;
lastChange = "2023-02-08 19:28:42 +0000";
layers = (
{
anchors = (
{
name = bottom;
pos = (161,0);
},
{
name = top;
pos = (312,740);
}
);
background = {
shapes = (
{
closed = 1;
nodes = (
(73,0,l),
(239,720,l),
(171,720,l),
(5,0,l)
);
},
{
closed = 1;
nodes = (
(328,0,l),
(187,289,l),
(178,246,l),
(436,510,l),
(359,510,l),
(122,265,l),
(249,0,l)
);
}
);
};
layerId = m005;
shapes = (
{
closed = 1;
nodes = (
(73,0,l),
(239,720,l),
(171,720,l),
(5,0,l)
);
},
{
closed = 1;
nodes = (
(328,0,l),
(180,289,l),
(185,246,l),
(436,510,l),
(352,510,l),
(122,265,l),
(256,0,l)
);
}
);
width = 399;
},
{
anchors = (
{
name = bottom;
pos = (171,0);
},
{
name = top;
pos = (332,740);
}
);
background = {
shapes = (
{
closed = 1;
nodes = (
(123,0,l),
(289,720,l),
(151,720,l),
(-15,0,l)
);
},
{
closed = 1;
nodes = (
(370,0,l),
(296,289,l),
(283,242,l),
(478,510,l),
(336,510,l),
(173,265,l),
(224,0,l)
);
}
);
};
layerId = m006;
shapes = (
{
closed = 1;
nodes = (
(123,0,l),
(289,720,l),
(151,720,l),
(-15,0,l)
);
},
{
closed = 1;
nodes = (
(370,0,l),
(288,289,l),
(293,242,l),
(478,510,l),
(325,510,l),
(173,265,l),
(232,0,l)
);
}
);
width = 439;
},
{
anchors = (
{
name = bottom;
pos = (229,0);
},
{
name = top;
pos = (380,740);
}
);
background = {
shapes = (
{
closed = 1;
nodes = (
(101,0,l),
(272,740,l),
(192,740,l),
(21,0,l)
);
},
{
closed = 1;
nodes = (
(464,0,l),
(233,289,l),
(217,242,l),
(572,510,l),
(462,510,l),
(144,265,l),
(354,0,l)
);
}
);
};
layerId = m007;
shapes = (
{
closed = 1;
nodes = (
(101,0,l),
(272,740,l),
(192,740,l),
(21,0,l)
);
},
{
closed = 1;
nodes = (
(464,0,l),
(222,289,l),
(227,242,l),
(572,510,l),
(452,510,l),
(144,265,l),
(365,0,l)
);
}
);
width = 535;
},
{
anchors = (
{
name = bottom;
pos = (226,0);
},
{
name = top;
pos = (397,740);
}
);
background = {
shapes = (
{
closed = 1;
nodes = (
(151,0,l),
(317,720,l),
(167,720,l),
(1,0,l)
);
},
{
closed = 1;
nodes = (
(506,0,l),
(327,289,l),
(309,242,l),
(614,510,l),
(441,510,l),
(177,265,l),
(328,0,l)
);
}
);
};
layerId = m008;
shapes = (
{
closed = 1;
nodes = (
(151,0,l),
(317,720,l),
(167,720,l),
(1,0,l)
);
},
{
closed = 1;
nodes = (
(506,0,l),
(312,289,l),
(324,242,l),
(614,510,l),
(426,510,l),
(177,265,l),
(343,0,l)
);
}
);
width = 569;
}
);
unicode = 107;
userData = {
KernOnName = k;
KernOnSpecialSpacing = {
L = NoKerning;
};
};
},
{
glyphname = l;
lastChange = "2023-02-08 18:51:45 +0000";
layers = (
{
anchors = (
{
name = bottom;
pos = (39,0);
},
{
name = center;
pos = (124,370);
},
{
name = top;
pos = (205,720);
},
{
name = topright;
pos = (289,720);
}
);
background = {
shapes = (
{
closed = 1;
nodes = (
(206,0,l),
(206,21,l),
(176,26,ls),
(148,31,o),
(142,39,o),
(142,67,cs),
(142,740,l),
(122,740,l),
(97,722,o),
(64,707,o),
(17,698,c),
(17,678,l),
(49,673,ls),
(68,670,o),
(74,664,o),
(74,640,cs),
(74,67,ls),
(74,39,o),
(68,29,o),
(40,25,cs),
(10,21,l),
(10,0,l)
);
}
);
};
layerId = m005;
shapes = (
{
closed = 1;
nodes = (
(73,0,l),
(239,720,l),
(171,720,l),
(5,0,l)
);
}
);
width = 196;
},
{
anchors = (
{
name = bottom;
pos = (54,0);
},
{
name = center;
pos = (139,370);
},
{
name = top;
pos = (220,720);
},
{
name = topright;
pos = (333,720);
}
);
background = {
shapes = (
{
closed = 1;
nodes = (
(206,0,l),
(206,21,l),
(176,26,ls),
(148,31,o),
(142,39,o),
(142,67,cs),
(142,740,l),
(122,740,l),
(97,722,o),
(64,707,o),
(17,698,c),
(17,678,l),
(49,673,ls),
(68,670,o),
(74,664,o),
(74,640,cs),
(74,67,ls),
(74,39,o),
(68,29,o),
(40,25,cs),
(10,21,l),
(10,0,l)
);
}
);
};
layerId = m006;
shapes = (
{
closed = 1;
nodes = (
(123,0,l),
(289,720,l),
(151,720,l),
(-15,0,l)
);
}
);
width = 226;
},
{
anchors = (
{
name = bottom;
pos = (61,0);
},
{
name = center;
pos = (146,370);
},
{
name = top;
pos = (227,720);
},
{
name = topright;
pos = (337,720);
}
);
background = {
shapes = (
{
closed = 1;
nodes = (
(206,0,l),
(206,21,l),
(176,26,ls),
(148,31,o),
(142,39,o),
(142,67,cs),
(142,740,l),
(122,740,l),
(97,722,o),
(64,707,o),
(17,698,c),
(17,678,l),
(49,673,ls),
(68,670,o),
(74,664,o),
(74,640,cs),
(74,67,ls),
(74,39,o),
(68,29,o),
(40,25,cs),
(10,21,l),
(10,0,l)
);
}
);
};
layerId = m007;
shapes = (
{
closed = 1;
nodes = (
(101,0,l),
(267,720,l),
(187,720,l),
(21,0,l)
);
}
);
width = 240;
},
{
anchors = (
{
name = bottom;
pos = (76,0);
},
{
name = center;
pos = (161,370);
},
{
name = top;
pos = (242,720);
},
{
name = topright;
pos = (367,720);
}
);
background = {
shapes = (
{
closed = 1;
nodes = (
(206,0,l),
(206,21,l),
(176,26,ls),
(148,31,o),
(142,39,o),
(142,67,cs),
(142,740,l),
(122,740,l),
(97,722,o),
(64,707,o),
(17,698,c),
(17,678,l),
(49,673,ls),
(68,670,o),
(74,664,o),
(74,640,cs),
(74,67,ls),
(74,39,o),
(68,29,o),
(40,25,cs),
(10,21,l),
(10,0,l)
);
}
);
};
layerId = m008;
shapes = (
{
closed = 1;
nodes = (
(151,0,l),
(317,720,l),
(167,720,l),
(1,0,l)
);
}
);
width = 270;
}
);
unicode = 108;
userData = {
KernOnSpecialSpacing = {
L = NoKerning;
R = NoKerning;
};
};
},
{
glyphname = lslash;
lastChange = "2023-03-04 15:46:48 +0000";
layers = (
{
layerId = m005;
shapes = (
{
ref = l;
},
{
closed = 1;
nodes = (
(134,408,l),
(22,356,l),
(10,302,l),
(123,355,l)
);
},
{
closed = 1;
nodes = (
(124,359,l),
(233,410,l),
(245,464,l),
(135,412,l)
);
}
);
width = 196;
},
{
layerId = m006;
shapes = (
{
pos = (20,0);
ref = l;
},
{
closed = 1;
nodes = (
(177,425,l),
(35,363,l),
(13,268,l),
(155,330,l)
);
},
{
closed = 1;
nodes = (
(157,340,l),
(289,398,l),
(311,493,l),
(179,435,l)
);
}
);
width = 266;
},
{
background = {
shapes = (
{
closed = 1;
nodes = (
(131,408,l),
(0,356,l),
(0,292,l),
(133,345,l)
);
},
{
closed = 1;
nodes = (
(133,349,l),
(260,400,l),
(260,464,l),
(131,412,l)
);
}
);
};
layerId = m007;
shapes = (
{
pos = (10,0);
ref = l;
},
{
closed = 1;
nodes = (
(167,408,l),
(24,356,l),
(9,292,l),
(155,345,l)
);
},
{
closed = 1;
nodes = (
(156,349,l),
(293,400,l),
(308,464,l),
(168,412,l)
);
}
);
width = 260;
},
{
layerId = m008;
shapes = (
{
pos = (20,0);
ref = l;
},
{
closed = 1;
nodes = (
(202,428,l),
(36,366,l),
(14,268,l),
(179,330,l)
);
},
{
closed = 1;
nodes = (
(181,340,l),
(333,398,l),
(356,496,l),
(204,438,l)
);
}
);
width = 310;
}
);
unicode = 322;
},
{
glyphname = m;
kernRight = KO_n;
lastChange = "2023-02-08 19:33:15 +0000";
layers = (
{
background = {
shapes = (
{
closed = 1;
nodes = (
(73,0,l),
(169,414,l),
(164,414,l),
(186,510,l),
(123,510,l),
(5,0,l)
);
},
{
closed = 1;
nodes = (
(315,0,l),
(405,389,ls),
(424,470,o),
(390,520,o),
(320,520,cs),
(259,520,o),
(202,481,o),
(161,421,c),
(149,330,l),
(166,401,o),
(222,458,o),
(288,458,cs),
(330,458,o),
(347,433,o),
(335,383,cs),
(247,0,l)
);
},
{
closed = 1;
nodes = (
(557,0,l),
(647,389,ls),
(666,470,o),
(627,520,o),
(557,520,cs),
(496,520,o),
(440,485,o),
(394,425,c),
(391,330,l),
(409,405,o),
(464,458,o),
(530,458,cs),
(572,458,o),
(589,433,o),
(577,383,cs),
(489,0,l)
);
}
);
};
layerId = m005;
shapes = (
{
closed = 1;
nodes = (
(74,0,l),
(169,414,l),
(164,414,l),
(186,510,l),
(123,510,l),
(6,0,l)
);
},
{
closed = 1;
nodes = (
(315,0,l),
(402,377,ls),
(421,461,o),
(380,520,o),
(304,520,cs),
(244,520,o),
(191,483,o),
(160,411,c),
(150,331,l),
(167,410,o),
(221,461,o),
(280,461,cs),
(325,461,o),
(345,430,o),
(333,377,cs),
(247,0,l)
);
},
{
closed = 1;
nodes = (
(557,0,l),
(644,377,ls),
(663,461,o),
(622,520,o),
(546,520,cs),
(486,520,o),
(427,483,o),
(382,402,c),
(391,330,l),
(409,410,o),
(463,461,o),
(522,461,cs),
(567,461,o),
(587,430,o),
(575,377,cs),
(489,0,l)
);
}
);
width = 676;
},
{
background = {
shapes = (
{
closed = 1;
nodes = (
(123,0,l),
(219,414,l),
(214,414,l),
(236,510,l),
(103,510,l),
(-15,0,l)
);
},
{
closed = 1;
nodes = (
(352,0,l),
(442,391,ls),
(461,472,o),
(429,520,o),
(364,520,cs),
(299,520,o),
(244,488,o),
(200,411,c),
(201,338,l),
(211,382,o),
(238,410,o),
(272,410,cs),
(297,410,o),
(305,394,o),
(297,360,cs),
(214,0,l)
);
},
{
closed = 1;
nodes = (
(581,0,l),
(671,391,ls),
(690,472,o),
(658,520,o),
(593,520,cs),
(528,520,o),
(473,488,o),
(429,411,c),
(430,338,l),
(440,382,o),
(467,410,o),
(501,410,cs),
(526,410,o),
(534,394,o),
(526,360,cs),
(443,0,l)
);
}
);
};
layerId = m006;
shapes = (
{
closed = 1;
nodes = (
(124,0,l),
(219,414,l),
(214,414,l),
(236,510,l),
(103,510,l),
(-14,0,l)
);
},
{
closed = 1;
nodes = (
(352,0,l),
(440,379,ls),
(459,462,o),
(421,520,o),
(351,520,cs),
(290,520,o),
(232,481,o),
(199,409,c),
(201,335,l),
(213,388,o),
(237,414,o),
(266,414,cs),
(294,414,o),
(305,394,o),
(295,352,cs),
(214,0,l)
);
},
{
closed = 1;
nodes = (
(581,0,l),
(669,379,ls),
(688,462,o),
(650,520,o),
(578,520,cs),
(511,520,o),
(461,481,o),
(417,407,c),
(429,333,l),
(442,388,o),
(466,414,o),
(495,414,cs),
(523,414,o),
(534,394,o),
(524,352,cs),
(443,0,l)
);
}
);
width = 680;
},
{
background = {
shapes = (
{
closed = 1;
nodes = (
(101,0,l),
(191,390,l),
(186,390,l),
(214,510,l),
(139,510,l),
(21,0,l)
);
},
{
closed = 1;
nodes = (
(445,0,l),
(528,359,ls),
(551,458,o),
(497,520,o),
(399,520,cs),
(318,520,o),
(231,473,o),
(180,397,c),
(165,276,l),
(188,379,o),
(275,450,o),
(368,450,cs),
(433,450,o),
(461,415,o),
(443,338,cs),
(365,0,l)
);
},
{
closed = 1;
nodes = (
(789,0,l),
(872,359,ls),
(895,458,o),
(839,520,o),
(741,520,cs),
(658,520,o),
(568,473,o),
(517,397,c),
(509,276,l),
(532,379,o),
(619,450,o),
(712,450,cs),
(777,450,o),
(805,415,o),
(787,338,cs),
(709,0,l)
);
}
);
};
layerId = m007;
shapes = (
{
closed = 1;
nodes = (
(102,0,l),
(192,390,l),
(187,390,l),
(214,510,l),
(139,510,l),
(22,0,l)
);
},
{
closed = 1;
nodes = (
(445,0,l),
(518,317,ls),
(551,460,o),
(491,520,o),
(386,520,cs),
(307,520,o),
(233,479,o),
(182,407,c),
(167,282,l),
(192,387,o),
(267,452,o),
(352,452,cs),
(422,452,o),
(458,403,o),
(437,313,cs),
(365,0,l)
);
},
{
closed = 1;
nodes = (
(789,0,l),
(862,317,ls),
(891,441,o),
(830,520,o),
(720,520,cs),
(646,520,o),
(564,479,o),
(513,395,c),
(508,280,l),
(536,387,o),
(611,452,o),
(696,452,cs),
(766,452,o),
(802,403,o),
(781,313,cs),
(709,0,l)
);
}
);
width = 922;
},
{
background = {
shapes = (
{
closed = 1;
nodes = (
(151,0,l),
(241,390,l),
(238,390,l),
(266,510,l),
(119,510,l),
(1,0,l)
);
},
{
closed = 1;
nodes = (
(494,0,l),
(578,362,ls),
(598,452,o),
(552,520,o),
(445,520,cs),
(356,520,o),
(280,471,o),
(230,397,c),
(216,282,l),
(232,353,o),
(293,400,o),
(358,400,cs),
(407,400,o),
(431,376,o),
(419,324,cs),
(344,0,l)
);
},
{
closed = 1;
nodes = (
(837,0,l),
(918,352,ls),
(941,452,o),
(895,520,o),
(785,520,cs),
(691,520,o),
(613,471,o),
(563,397,c),
(559,282,l),
(575,353,o),
(636,400,o),
(701,400,cs),
(750,400,o),
(774,376,o),
(762,324,cs),
(687,0,l)
);
}
);
};
layerId = m008;
shapes = (
{
closed = 1;
nodes = (
(152,0,l),
(242,390,l),
(239,390,l),
(266,510,l),
(119,510,l),
(2,0,l)
);
},
{
closed = 1;
nodes = (
(494,0,l),
(567,316,ls),
(599,455,o),
(547,520,o),
(439,520,cs),
(352,520,o),
(269,470,o),
(230,396,c),
(215,273,l),
(234,355,o),
(288,402,o),
(353,402,cs),
(406,402,o),
(428,370,o),
(413,303,cs),
(344,0,l)
);
},
{
closed = 1;
nodes = (
(837,0,l),
(910,316,ls),
(938,438,o),
(880,520,o),
(772,520,cs),
(695,520,o),
(611,470,o),
(552,396,c),
(557,273,l),
(576,355,o),
(631,402,o),
(696,402,cs),
(749,402,o),
(771,370,o),
(756,303,cs),
(687,0,l)
);
}
);
width = 950;
}
);
metricLeft = n;
metricRight = n;
unicode = 109;
userData = {
KernOnSpecialSpacing = {
L = NoKerning;
};
};
},
